<?xml version="1.0" standalone="no"?>
<!DOCTYPE svg PUBLIC "-//W3C//DTD SVG 1.1//EN" "http://www.w3.org/Graphics/SVG/1.1/DTD/svg11.dtd" >
<svg xmlns="http://www.w3.org/2000/svg" xmlns:xlink="http://www.w3.org/1999/xlink" version="1.1">
<metadata>
Created by FontForge 20200427 at Mon Oct 15 22:15:43 2018
 By www
(c) 2018 Banco Santander, S.A. All rights reserved.
</metadata>
<defs>
<font id="SantanderHeadlineW05-Rg" horiz-adv-x="550" >
  <font-face 
    font-family="SantanderHeadlineW05-Rg"
    font-weight="400"
    font-stretch="normal"
    units-per-em="1000"
    panose-1="2 11 5 4 2 2 1 2 1 4"
    ascent="800"
    descent="-200"
    x-height="496"
    cap-height="700"
    bbox="-355 -304 1135 1105"
    underline-thickness="50"
    underline-position="-125"
    unicode-range="U+000D-FEFF"
  />
<missing-glyph horiz-adv-x="630" 
d="M77 0v692h476v-692h-476zM134 54h361v584h-361v-584z" />
    <glyph glyph-name="uniFB01" unicode="fi" horiz-adv-x="506" 
d="M359.5 615.5q-15.5 15.5 -15.5 40.5t15.5 40.5t39.5 15.5t39.5 -15.5t15.5 -40.5q0 -24 -15.5 -40t-39.5 -16t-39.5 15.5zM234 707q43 0 79 -10q-1 -37 -8 -73q-16 5 -34.5 8t-30.5 3q-48 0 -69 -23.5t-21 -74.5v-41h151q-2 -35 -8 -72h-143v-424h-86v538q0 169 170 169z
M356 496h86v-496h-86v496z" />
    <glyph glyph-name="uniFB02" unicode="fl" horiz-adv-x="506" 
d="M234 707q43 0 79 -10q-1 -37 -8 -73q-16 5 -34.5 8t-30.5 3q-48 0 -69 -23.5t-21 -74.5v-41h151q-2 -35 -8 -72h-143v-424h-86v538q0 169 170 169zM442 705v-705h-86v692q36 13 86 13z" />
    <glyph glyph-name="f_f.liga" unicode="ff" horiz-adv-x="579" 
d="M437.5 611q-21.5 -24 -21.5 -76v-39h160q-2 -35 -8 -72h-152v-424h-86v424h-180v-424h-86v537q0 85 44 127.5t130 42.5q45 0 79 -10q0 -29 -6 -73q-38 11 -74 11q-42 0 -64.5 -25t-22.5 -75v-39h180v41q0 85 44 127.5t130 42.5q53 0 87 -10q-2 -41 -6 -73q-39 11 -74 11
q-52 0 -73.5 -24z" />
    <glyph glyph-name="f_f_i.liga" unicode="ffi" horiz-adv-x="779" 
d="M631.5 615.5q-15.5 15.5 -15.5 40.5t15.5 40.5t39.5 15.5t39.5 -15.5t15.5 -40.5t-15.5 -40.5t-39.5 -15.5t-39.5 15.5zM506 707q45 0 79 -10q0 -29 -8 -73q-16 5 -34.5 8t-30.5 3q-48 0 -68.5 -23.5t-20.5 -74.5v-41h151q-4 -42 -9 -72h-142v-424h-86v424h-187v-424h-86
v537q0 85 44 127.5t130 42.5q45 0 79 -10q0 -29 -6 -73q-38 11 -74 11q-42 0 -64.5 -25t-22.5 -75v-39h187v42q0 169 169 169zM628 496h86v-496h-86v496z" />
    <glyph glyph-name="f_f_l.liga" unicode="ffl" horiz-adv-x="779" 
d="M506 707q45 0 79 -10q0 -29 -8 -73q-16 5 -34.5 8t-30.5 3q-48 0 -68.5 -23.5t-20.5 -74.5v-41h151q-4 -42 -9 -72h-142v-424h-86v424h-187v-424h-86v537q0 85 44 127.5t130 42.5q45 0 79 -10q0 -29 -6 -73q-38 11 -74 11q-42 0 -64.5 -25t-22.5 -75v-39h187v42
q0 169 169 169zM714 705v-705h-86v692q36 13 86 13z" />
    <glyph glyph-name="exclam_L.liga" unicode="&#x21;L" horiz-adv-x="1311" 
d="M991.5 453.5q67.5 -39.5 105.5 -90.5t38 -107q0 -79 -71.5 -145.5t-193.5 -105.5t-266 -39t-266 39t-193.5 105.5t-71.5 145.5q0 56 38 107t106 90.5t157 63.5q0 -75 31 -126l167 -288q18 -31 25 -72l6 14q27 64 27 123t-27 106l-132 231q-33 58 -33 111t33 120l6 12
q3 -18 9.5 -34t17.5 -36l199 -345q18 -32 25 -71l8 12q30 54 30 116q0 63 -30 115l-133 231q-30 53 -30 115q0 63 30 115l7 12q4 -17 11 -36.5t15 -33.5l169 -288q25 -43 30 -103q89 -24 156.5 -63.5z" />
    <glyph glyph-name=".notdef" horiz-adv-x="630" 
d="M77 0v692h476v-692h-476zM134 54h361v584h-361v-584z" />
    <glyph glyph-name="glyph1" horiz-adv-x="0" 
 />
    <glyph glyph-name="glyph1" horiz-adv-x="0" 
 />
    <glyph glyph-name="uni000D" unicode="&#xd;" horiz-adv-x="196" 
 />
    <glyph glyph-name="space" unicode=" " horiz-adv-x="196" 
 />
    <glyph glyph-name="exclam" unicode="!" horiz-adv-x="304" 
d="M108 692q17 5 43 9t47 4l-10 -485h-72zM111.5 7.5q-16.5 16.5 -16.5 40.5q0 23 16.5 40t40.5 17q23 0 39.5 -17t16.5 -40q0 -24 -16.5 -40.5t-39.5 -16.5q-24 0 -40.5 16.5z" />
    <glyph glyph-name="quotedbl" unicode="&#x22;" horiz-adv-x="309" 
d="M50 692q13 6 36.5 9.5t40.5 3.5l-8 -227h-61zM182 692q13 6 36.5 9.5t40.5 3.5l-8 -227h-61z" />
    <glyph glyph-name="numbersign" unicode="#" 
d="M428 439l-37 -186h117q0 -29 -9 -67h-122l-37 -186h-68l36 186h-134l-37 -186h-69l37 186h-95q0 32 10 67h98l36 186h-111q0 27 9 67h116l35 180q27 14 74 14l-39 -194h133l35 180q27 14 75 14l-39 -194h97q0 -32 -8 -67h-103zM358 439h-133l-37 -186h133z" />
    <glyph glyph-name="dollar" unicode="$" 
d="M429.5 90q-18.5 -40 -57 -67t-94.5 -35v-119h-68v116q-48 2 -90.5 13t-69.5 29q1 24 3.5 40.5t7.5 34.5q29 -18 69 -28t80 -12v259l-14 6q-72 33 -112 80.5t-40 117.5q0 75 43 121.5t123 57.5v95q13 6 32.5 9.5t35.5 3.5v-105q79 -5 137 -31q-1 -23 -4 -39t-9 -35
q-27 12 -59.5 19t-64.5 9v-247l8 -4q81 -39 121.5 -86t40.5 -115q0 -48 -18.5 -88zM149.5 462.5q20.5 -25.5 60.5 -46.5v210q-40 -10 -60.5 -35.5t-20.5 -63.5q0 -39 20.5 -64.5zM341 104q21 28 21 72q0 38 -19 63.5t-65 49.5v-223q42 10 63 38z" />
    <glyph glyph-name="percent" unicode="%" horiz-adv-x="798" 
d="M78.5 388q-38.5 49 -38.5 138t38.5 136.5t109.5 47.5q70 0 108 -47.5t38 -136.5t-38 -138t-108 -49q-71 0 -109.5 49zM531 692q38 5 83 7l-355 -699q-36 -5 -81 -7zM242 431.5q17 29.5 17 94.5q0 63 -17 93t-54 30t-54.5 -30t-17.5 -93q0 -64 17 -94t55 -30q37 0 54 29.5
zM502.5 34q-38.5 49 -38.5 138q0 90 38 137t110 47q70 0 108 -47.5t38 -136.5q0 -90 -38 -138.5t-108 -48.5q-71 0 -109.5 49zM666 77.5q17 29.5 17 93.5t-17 94t-54 30t-54.5 -30.5t-17.5 -93.5q0 -64 17 -93.5t55 -29.5q37 0 54 29.5z" />
    <glyph glyph-name="ampersand" unicode="&#x26;" horiz-adv-x="684" 
d="M549 0l-67 69q-83 -83 -209 -83q-71 0 -125.5 27t-84.5 75t-30 110q0 61 34.5 116t97.5 88q-20 29 -30.5 59.5t-10.5 67.5q0 52 23.5 92.5t69.5 63t110 22.5q80 0 153 -29q-1 -23 -5 -44t-10 -36q-65 30 -129 30q-61 0 -92.5 -26t-31.5 -73q0 -32 17.5 -65t46.5 -64
l197 -204q41 83 53 208q20 6 40 8t42 2q-5 -78 -23.5 -150t-53.5 -129l130 -135h-112zM426 126l-203 209l-13 14q-42 -20 -67 -58t-25 -87q0 -41 18 -73.5t53.5 -51t86.5 -18.5q92 0 150 65z" />
    <glyph glyph-name="quotesingle" unicode="'" horiz-adv-x="177" 
d="M50 692q13 6 36.5 9.5t40.5 3.5l-8 -227h-61z" />
    <glyph glyph-name="parenleft" unicode="(" horiz-adv-x="264" 
d="M96.5 24q-33.5 125 -33.5 276t34 278.5t95 231.5q18 0 36.5 -5.5t32.5 -14.5q-56 -107 -86 -227t-30 -263t30.5 -265t88.5 -232q-36 -15 -72 -15q-62 111 -95.5 236z" />
    <glyph glyph-name="parenright" unicode=")" horiz-adv-x="264" 
d="M0 -197q58 110 88.5 232t30.5 265t-30 263t-86 227q15 9 33 14.5t36 5.5q61 -104 95 -231.5t34 -278.5t-33.5 -276t-95.5 -236q-36 0 -72 15z" />
    <glyph glyph-name="asterisk" unicode="*" horiz-adv-x="415" 
d="M238 524l91 -98q-10 -11 -25 -23q-16 -11 -29 -17l-67 116l-65 -117q-15 6 -29 17q-18 14 -25 22l90 100l-132 26q1 11 7 33q3 8 6.5 17t7.5 14l122 -55l-16 133q10 3 33 3q24 0 34 -3l-15 -133l122 56q5 -9 13 -31q7 -19 7 -33z" />
    <glyph glyph-name="plus" unicode="+" 
d="M465 301h-154v-157h-73v157h-162q1 29 9 73h153v158h73v-158h163q-1 -26 -9 -73z" />
    <glyph glyph-name="comma" unicode="," horiz-adv-x="249" 
d="M73.5 -34q5.5 53 8.5 122q24 8 45 11t48 3q-8 -85 -21.5 -144t-39.5 -105h-56q10 60 15.5 113z" />
    <glyph glyph-name="hyphen" unicode="-" horiz-adv-x="362" 
d="M49 312h273q-2 -37 -8 -75h-274q2 42 9 75z" />
    <glyph glyph-name="period" unicode="." horiz-adv-x="249" 
d="M94 -2.5q-14 8.5 -22.5 22.5t-8.5 31q0 25 18 43t44 18q16 0 30 -8t22.5 -22t8.5 -31t-8.5 -31t-22.5 -22.5t-30 -8.5q-17 0 -31 8.5z" />
    <glyph glyph-name="slash" unicode="/" horiz-adv-x="360" 
d="M268 750q36 6 82 8l-255 -818h-79z" />
    <glyph glyph-name="zero" unicode="0" 
d="M103 75q-56 90 -56 271q0 183 56 272t173 89t173 -89t56 -272q0 -181 -56 -271t-173 -90t-173 90zM358 95q31 30 44.5 91t13.5 160q0 98 -13.5 159.5t-44.5 92t-82 30.5t-81.5 -30t-44 -92t-13.5 -160q0 -99 13.5 -160t44 -91t81.5 -30t82 30z" />
    <glyph glyph-name="one" unicode="1" 
d="M228 688.5q76 16.5 146 18.5v-707h-88v618q-48 -8 -101 -22t-96 -29q0 33 8 81q55 24 131 40.5z" />
    <glyph glyph-name="two" unicode="2" 
d="M471 80q0 -16 -2.5 -39.5t-6.5 -40.5h-403v31q0 61 25.5 110.5t66 89t104.5 88.5q58 43 86.5 86t28.5 99q0 61 -38.5 92.5t-113.5 31.5q-38 0 -76.5 -9t-72.5 -26q0 48 6 82q67 32 155 32q78 0 129.5 -25t76 -69.5t24.5 -103.5q0 -76 -38.5 -136t-118.5 -120
q-49 -37 -77.5 -61.5t-48.5 -52t-27 -59.5h321z" />
    <glyph glyph-name="three" unicode="3" 
d="M487 194q0 -65 -32 -112t-94.5 -72t-153.5 -25q-72 0 -142 17q0 18 3 40t7 37q28 -7 61.5 -11t64.5 -4q99 0 147.5 32.5t48.5 98.5q0 63 -45 93t-142 30h-83v77h76q84 0 129 31.5t45 89.5q0 51 -38 81.5t-116 30.5q-77 0 -150 -30q0 15 2 36.5t6 43.5q31 15 70 22t81 7
q74 0 126 -21.5t78.5 -61t26.5 -92.5q0 -60 -32.5 -105.5t-84.5 -65.5q141 -34 141 -167z" />
    <glyph glyph-name="four" unicode="4" 
d="M524 221.5q-3 -27.5 -7 -45.5h-83v-176h-85v176h-313q0 46 4 75q49 108 131.5 226t175.5 215q38 7 87 7v-446h93q0 -4 -3 -31.5zM349 253v332q-136 -159 -224 -332h224z" />
    <glyph glyph-name="five" unicode="5" 
d="M364 413q52 -24 80 -73t28 -121q0 -113 -69.5 -173.5t-200.5 -60.5q-73 0 -138 17q0 42 11 78q22 -7 55 -11.5t67 -4.5q186 0 186 151q0 146 -173 146q-28 0 -61 -4.5t-63 -12.5l29 348h338q-2 -45 -8 -80h-250l-16 -181q28 6 63 6q70 0 122 -24z" />
    <glyph glyph-name="six" unicode="6" 
d="M409 417q45 -26 69.5 -75.5t24.5 -118.5q0 -73 -26 -126.5t-75 -82.5t-117 -29q-113 0 -174 85.5t-61 255.5q0 129 31 213.5t96 126t166 41.5q72 0 120 -20q0 -31 -8 -79q-21 9 -51.5 14.5t-59.5 5.5q-71 0 -116 -28t-67 -87.5t-25 -156.5q25 42 68.5 64.5t98.5 22.5
q61 0 106 -26zM381 104.5q34 40.5 34 114.5q0 73 -35.5 110t-94.5 37q-41 0 -79 -18.5t-70 -55.5q4 -118 40 -173t108 -55q63 0 97 40.5z" />
    <glyph glyph-name="seven" unicode="7" 
d="M503 692q0 -31 -7 -63q-185 -314 -259 -629h-91q34 147 98.5 302t151.5 310h-349q2 38 9 80h447z" />
    <glyph glyph-name="eight" unicode="8" 
d="M472 291q36 -47 36 -111q0 -60 -29 -104t-81.5 -67.5t-123.5 -23.5q-70 0 -122 22.5t-79.5 64.5t-27.5 99q0 64 36.5 108.5t102.5 68.5q-57 28 -87.5 73.5t-30.5 104.5q0 54 25 95t73.5 63.5t115.5 22.5q66 0 113 -22t71.5 -61.5t24.5 -91.5q0 -57 -29 -98.5t-86 -69.5
q62 -26 98 -73zM185 605.5q-32 -29.5 -32 -77.5q0 -50 32.5 -83t89.5 -49l12 -4q60 26 88 59.5t28 77.5q0 48 -31 77t-93 29t-94 -29.5zM383 88.5q38 31.5 38 86.5q0 47 -31 82.5t-95 52.5l-33 10q-68 -24 -98.5 -59.5t-30.5 -83.5q0 -59 40 -89.5t105 -30.5q67 0 105 31.5z
" />
    <glyph glyph-name="nine" unicode="9" 
d="M439 622.5q61 -85.5 61 -255.5q0 -129 -31 -213.5t-96 -126t-166 -41.5q-72 0 -120 20q0 31 8 79q21 -9 51.5 -14.5t59.5 -5.5q71 0 116 28t67 87.5t25 156.5q-25 -42 -68.5 -64.5t-98.5 -22.5q-61 0 -106 26t-69.5 75.5t-24.5 118.5q0 73 26 126.5t75 82.5t117 29
q113 0 174 -85.5zM344 345.5q38 18.5 70 55.5q-4 118 -40 173t-108 55q-63 0 -97 -40.5t-34 -114.5q0 -73 35.5 -110t94.5 -37q41 0 79 18.5z" />
    <glyph glyph-name="colon" unicode=":" horiz-adv-x="249" 
d="M94 -2.5q-14 8.5 -22.5 22.5t-8.5 31q0 25 18 43t44 18q16 0 30 -8t22.5 -22t8.5 -31t-8.5 -31t-22.5 -22.5t-30 -8.5q-17 0 -31 8.5zM94 361.5q-14 8.5 -22.5 22.5t-8.5 31q0 25 18 43t44 18q16 0 30 -8t22.5 -22t8.5 -31t-8.5 -31t-22.5 -22.5t-30 -8.5q-17 0 -31 8.5z
" />
    <glyph glyph-name="semicolon" unicode=";" horiz-adv-x="249" 
d="M73.5 -34q5.5 53 8.5 122q24 8 45 11t48 3q-8 -85 -21.5 -144t-39.5 -105h-56q10 60 15.5 113zM94 361.5q-14 8.5 -22.5 22.5t-8.5 31q0 25 18 43t44 18q16 0 30 -8t22.5 -22t8.5 -31t-8.5 -31t-22.5 -22.5t-30 -8.5q-17 0 -31 8.5z" />
    <glyph glyph-name="less" unicode="&#x3c;" 
d="M184 335l275 -109q-1 -35 -11 -77l-371 157q0 31 6 61l376 156q0 -36 -5 -79z" />
    <glyph glyph-name="equal" unicode="=" 
d="M85 287h389q-1 -26 -9 -73h-389q1 29 9 73zM85 457h389q-1 -26 -9 -73h-389q1 29 9 73z" />
    <glyph glyph-name="greater" unicode="&#x3e;" 
d="M472 366q0 -31 -6 -61l-376 -156q0 36 5 79l270 109l-275 109q1 35 11 77z" />
    <glyph glyph-name="question" unicode="?" horiz-adv-x="444" 
d="M139 242q0 49 21 83.5t65 69.5q45 34 64.5 64.5t19.5 71.5q0 45 -30 72.5t-97 27.5q-35 0 -74 -9t-67 -24q0 42 7 76q28 16 66 24.5t79 8.5q100 0 152.5 -46t52.5 -127q0 -42 -14 -73.5t-38.5 -56.5t-63.5 -54t-55.5 -55t-16.5 -65v-18h-69q-2 20 -2 30zM141.5 7.5
q-16.5 16.5 -16.5 40.5q0 23 16.5 40t40.5 17q23 0 40 -17t17 -40q0 -24 -17 -40.5t-40 -16.5q-24 0 -40.5 16.5z" />
    <glyph glyph-name="at" unicode="@" horiz-adv-x="840" 
d="M515 506.5q33 -6.5 67 -19.5v-294q0 -27 12.5 -44.5t33.5 -17.5q27 0 50 23t36.5 69t13.5 114q0 96 -36 165.5t-105 106t-164 36.5q-91 0 -162 -42.5t-111 -120.5t-40 -183q0 -115 39.5 -197t110.5 -124.5t164 -42.5q55 0 108 11.5t92 31.5q0 -29 -6 -67
q-46 -20 -93 -29.5t-103 -9.5q-113 0 -199 52.5t-133 148t-47 221.5q0 121 48 215t134.5 146t198.5 52q113 0 197.5 -47t130 -130t45.5 -188q0 -79 -23 -140.5t-64 -96.5t-93 -35q-40 0 -65.5 22.5t-32.5 59.5q-17 -35 -45.5 -54.5t-69.5 -19.5q-48 0 -84 25.5t-56 75.5
t-20 121q0 102 47.5 157.5t149.5 55.5q41 0 74 -6.5zM516 185v264q-36 11 -80 11q-125 0 -125 -156q0 -80 29 -123t82 -43q57 0 94 47z" />
    <glyph glyph-name="A" unicode="A" horiz-adv-x="560" 
d="M418 166h-280l-53 -166h-85l224 685q19 5 50.5 8.5t58.5 3.5l227 -697h-90zM394 244l-114 368l-117 -368h231z" />
    <glyph glyph-name="B" unicode="B" horiz-adv-x="558" 
d="M494 297.5q31 -45.5 31 -104.5q0 -61 -27.5 -104t-80 -66t-126.5 -23h-214v692q36 7 82 11t88 4q126 0 189 -49t63 -136q0 -54 -26 -95t-73 -64q63 -20 94 -65.5zM165 626v-232h108q62 0 99.5 29t37.5 89q0 58 -39.5 88.5t-119.5 30.5q-39 0 -86 -5zM395.5 105.5
q40.5 29.5 40.5 90.5q0 60 -40 90.5t-116 30.5h-115v-241h119q71 0 111.5 29.5z" />
    <glyph glyph-name="C" unicode="C" horiz-adv-x="534" 
d="M176.5 30.5q-69.5 45.5 -105 127t-35.5 188.5q0 108 36 190t104.5 126.5t162.5 44.5q102 0 159 -33q-2 -25 -5 -42.5t-9 -33.5q-60 31 -140 31q-65 0 -114 -32.5t-75.5 -96.5t-26.5 -155q0 -89 27 -152.5t77.5 -96t119.5 -32.5q43 0 80.5 8t66.5 23q-3 -44 -14 -84
q-67 -26 -139 -26q-100 0 -169.5 45.5z" />
    <glyph glyph-name="D" unicode="D" horiz-adv-x="625" 
d="M509.5 610.5q79.5 -96.5 79.5 -258.5q0 -109 -36 -187.5t-109.5 -121.5t-183.5 -43h-183v690q80 17 180 17q173 0 252.5 -96.5zM498 353q0 278 -241 278q-47 0 -92 -6v-548h98q235 0 235 276z" />
    <glyph glyph-name="E" unicode="E" horiz-adv-x="505" 
d="M165 79h309q-2 -47 -9 -79h-388v692h397q-1 -34 -9 -79h-300v-223h279q0 -31 -8 -79h-271v-232z" />
    <glyph glyph-name="F" unicode="F" horiz-adv-x="471" 
d="M165 613v-223h259q-5 -57 -10 -79h-249v-311h-88v692h376q-1 -19 -3.5 -41t-5.5 -38h-279z" />
    <glyph glyph-name="G" unicode="G" horiz-adv-x="608" 
d="M548 355v-333q-39 -17 -91 -27t-102 -10q-105 0 -176.5 45t-107 126.5t-35.5 191.5q0 115 38.5 195t112.5 122t180 42q51 0 96.5 -8t80.5 -22q-3 -33 -15 -79q-76 31 -162 31q-76 0 -130 -32t-82 -94.5t-28 -153.5q0 -90 26.5 -154t78.5 -97.5t126 -33.5q53 0 101 12v279
h89z" />
    <glyph glyph-name="H" unicode="H" horiz-adv-x="633" 
d="M511 696q25 4 45 4v-700h-87v313h-304v-313h-88v686q19 6 43.5 10t44.5 4v-306h304v292q17 6 42 10z" />
    <glyph glyph-name="I" unicode="I" horiz-adv-x="242" 
d="M77 686q19 6 43.5 10t44.5 4v-700h-88v686z" />
    <glyph glyph-name="J" unicode="J" horiz-adv-x="341" 
d="M21 0q0 29 6 75q30 -5 52 -5q59 0 85.5 32.5t26.5 108.5v475q18 6 43 10t45 4v-499q0 -104 -47.5 -156t-140.5 -52q-39 0 -70 7z" />
    <glyph glyph-name="K" unicode="K" horiz-adv-x="535" 
d="M77 686q19 6 43.5 10t44.5 4v-700h-88v686zM538 0h-108l-261 350v9l253 333h99l-257 -335z" />
    <glyph glyph-name="L" unicode="L" horiz-adv-x="438" 
d="M77 686q19 6 43.5 10t44.5 4v-621h267q-2 -42 -9 -79h-346v686z" />
    <glyph glyph-name="M" unicode="M" horiz-adv-x="830" 
d="M769 0h-86l-16 298q-11 170 -12 277q-56 -177 -112 -320l-98 -255h-65l-100 261q-62 165 -107 308q-1 -119 -12 -287l-18 -282h-82l44 686q21 6 51.5 10t53.5 4l203 -578l202 565q37 12 110 12z" />
    <glyph glyph-name="N" unicode="N" horiz-adv-x="647" 
d="M525 696q25 4 44 4v-700h-73l-285 457q-23 36 -51 90q2 -78 2 -243v-304h-85v686q17 6 41 10t41 4l269 -441q32 -53 59 -108q-4 119 -4 291v244q17 6 42 10z" />
    <glyph glyph-name="O" unicode="O" horiz-adv-x="664" 
d="M169.5 30q-66.5 45 -100 126t-33.5 190q0 110 34.5 191.5t101 125.5t159.5 44q97 0 163.5 -45t100 -126.5t33.5 -189.5q0 -111 -34.5 -192.5t-101 -125t-159.5 -43.5q-97 0 -163.5 45zM485.5 136q51.5 72 51.5 210q0 90 -23.5 153t-70 96.5t-112.5 33.5
q-100 0 -152.5 -73.5t-52.5 -209.5q0 -135 53 -208.5t154 -73.5t152.5 72z" />
    <glyph glyph-name="P" unicode="P" horiz-adv-x="547" 
d="M400.5 677q58.5 -30 84.5 -80t26 -113q0 -72 -30.5 -125.5t-88.5 -82.5t-140 -29h-87v-247h-88v692q38 6 84.5 10.5t88.5 4.5q92 0 150.5 -30zM378.5 364.5q42.5 41.5 42.5 113.5q0 75 -40.5 114t-128.5 39q-41 0 -87 -6v-303h86q85 1 127.5 42.5z" />
    <glyph glyph-name="Q" unicode="Q" horiz-adv-x="664" 
d="M588 -102l-105 125q-64 -38 -150 -38q-97 0 -163.5 45t-100 126t-33.5 190q0 110 34.5 191.5t101 125.5t159.5 44q97 0 163.5 -45t100 -126.5t33.5 -189.5q0 -86 -21 -154.5t-61 -115.5l109 -126q-38 -35 -67 -52zM179 137.5q53 -73.5 154 -73.5t152.5 72t51.5 210
q0 90 -23.5 153t-70 96.5t-112.5 33.5q-100 0 -152.5 -73.5t-52.5 -209.5q0 -135 53 -208.5z" />
    <glyph glyph-name="R" unicode="R" horiz-adv-x="532" 
d="M274 275h-109v-275h-88v689q78 17 164 17t142.5 -29t82.5 -77t26 -106q0 -77 -37.5 -128t-100.5 -74l175 -291h-101zM246 350q72 0 114 34t42 106q0 69 -41.5 105t-120.5 36q-42 0 -75 -4v-277h81z" />
    <glyph glyph-name="S" unicode="S" horiz-adv-x="501" 
d="M123 -4q-47 11 -82 32q2 26 4.5 43t7.5 33q37 -21 82 -32t87 -11q71 0 111 30t40 84q0 36 -17.5 61.5t-44.5 41.5t-65 31l-51 20q-73 30 -113 76t-40 120q0 86 57.5 134t169.5 48q94 0 170 -32q-1 -22 -4 -38.5t-9 -34.5q-38 14 -78 21.5t-76 7.5q-70 0 -105 -28t-35 -76
q0 -50 31 -78.5t83 -49.5l53 -20q76 -29 120.5 -75t44.5 -125q0 -57 -27.5 -100.5t-82 -68.5t-133.5 -25q-51 0 -98 11z" />
    <glyph glyph-name="T" unicode="T" horiz-adv-x="501" 
d="M487 613h-194v-613h-87v613h-200q2 47 9 79h481q-5 -54 -9 -79z" />
    <glyph glyph-name="U" unicode="U" horiz-adv-x="624" 
d="M178.5 15q-56.5 30 -86.5 84.5t-30 125.5v461q18 6 42.5 10t44.5 4v-471q0 -80 43 -122.5t119 -42.5q78 0 121 42t43 124v456q16 6 41.5 10t45.5 4v-475q0 -71 -30.5 -125.5t-87.5 -84.5t-133 -30t-132.5 30z" />
    <glyph glyph-name="V" unicode="V" horiz-adv-x="548" 
d="M548 692l-224 -692h-99l-225 692h95l180 -598l183 598h90z" />
    <glyph glyph-name="W" unicode="W" horiz-adv-x="921" 
d="M906 692l-190 -692h-107l-147 538l-147 -538h-109l-191 692h93l152 -605l161 605h85l161 -603l149 603h90z" />
    <glyph glyph-name="X" unicode="X" horiz-adv-x="531" 
d="M433 0l-167 284l-170 -284h-99l225 357l-207 335h100l153 -257l151 257h99l-206 -330l221 -362h-100z" />
    <glyph glyph-name="Y" unicode="Y" horiz-adv-x="524" 
d="M307 288v-288h-89v288l-221 404h95l172 -326l171 326h92z" />
    <glyph glyph-name="Z" unicode="Z" horiz-adv-x="504" 
d="M482 79q-5 -54 -9 -79h-446q0 38 6 66l330 547h-332q4 54 10 79h433q0 -28 -6 -64l-331 -549h345z" />
    <glyph glyph-name="bracketleft" unicode="[" horiz-adv-x="277" 
d="M77 820h220q-1 -25 -9 -67h-130v-899h139q-1 -16 -3.5 -32.5t-5.5 -33.5h-211v1032z" />
    <glyph glyph-name="backslash" unicode="\" horiz-adv-x="360" 
d="M264 -60l-247 805q15 6 37 10.5t37 4.5l252 -820h-79z" />
    <glyph glyph-name="bracketright" unicode="]" horiz-adv-x="277" 
d="M199 -212h-219q1 32 8 67h130v899h-138q1 28 8 66h211v-1032z" />
    <glyph glyph-name="asciicircum" unicode="^" 
d="M387 274l-112 349l-114 -349h-79l143 410q40 12 97 12l145 -422h-80z" />
    <glyph glyph-name="underscore" unicode="_" horiz-adv-x="514" 
d="M48 -104h426q0 -30 -6 -60h-428q2 34 8 60z" />
    <glyph glyph-name="grave" unicode="`" horiz-adv-x="244" 
d="M190 575q-32 8 -60.5 31.5t-49.5 56t-30 69.5q23 0 53 -4t50 -11l41 -142h-4z" />
    <glyph glyph-name="a" unicode="a" horiz-adv-x="507" 
d="M363.5 501q40.5 -7 78.5 -20v-481h-79l-5 66q-44 -78 -130 -78q-90 0 -141.5 64.5t-51.5 193.5q0 125 58.5 193.5t179.5 68.5q50 0 90.5 -7zM356 106v321q-40 10 -85 10q-79 0 -113.5 -49.5t-34.5 -139.5q0 -96 32.5 -142.5t94.5 -46.5t106 47z" />
    <glyph glyph-name="b" unicode="b" horiz-adv-x="511" 
d="M418.5 442q58.5 -66 58.5 -188q0 -126 -62 -196t-186 -70q-86 0 -165 30v674q38 13 86 13v-218q47 21 100 21q110 0 168.5 -66zM351.5 110q37.5 51 37.5 140q0 92 -35 139.5t-112 47.5q-45 0 -92 -21v-345q39 -12 84 -12q80 0 117.5 51z" />
    <glyph glyph-name="c" unicode="c" horiz-adv-x="405" 
d="M140 17q-52 29 -80.5 87t-28.5 144q0 123 59 191.5t176 68.5q67 0 110 -20q0 -16 -2.5 -35.5t-5.5 -34.5q-23 9 -49.5 13t-49.5 4q-77 0 -113.5 -48t-36.5 -141q0 -58 18 -100t52 -64.5t82 -22.5q26 0 54 7t50 19q-2 -40 -11 -74q-18 -10 -47 -16.5t-55 -6.5
q-70 0 -122 29z" />
    <glyph glyph-name="d" unicode="d" horiz-adv-x="512" 
d="M447 705v-705h-80l-5 67q-21 -39 -52 -59t-79 -20q-60 0 -104 28.5t-68.5 86t-24.5 141.5q0 126 58.5 195t182.5 69q47 0 86 -6v190q36 13 86 13zM361 107v319q-39 11 -85 11q-82 0 -118 -50t-36 -141q0 -93 33.5 -140t99.5 -47q63 0 106 48z" />
    <glyph glyph-name="e" unicode="e" horiz-adv-x="491" 
d="M447.5 250q-1.5 -19 -3.5 -29h-324q7 -86 47 -124t116 -38q81 0 149 41q-2 -19 -5.5 -41t-7.5 -37q-57 -34 -146 -34q-120 0 -181 69t-61 195q0 74 23.5 131.5t72.5 91t121 33.5q100 0 150.5 -60t50.5 -162q0 -17 -1.5 -36zM159 399q-32 -38 -38 -108h240
q-1 69 -28.5 107.5t-87.5 38.5q-54 0 -86 -38z" />
    <glyph glyph-name="f" unicode="f" horiz-adv-x="313" 
d="M171.5 611q-21.5 -24 -21.5 -76v-39h160q0 -5 -2.5 -29t-5.5 -43h-152v-424h-86v537q0 85 44 127.5t130 42.5q51 0 87 -10q-2 -44 -7 -73q-38 11 -73 11q-52 0 -73.5 -24z" />
    <glyph glyph-name="g" unicode="g" horiz-adv-x="512" 
d="M447 481v-473q0 -112 -57 -172t-174 -60q-79 0 -142 31q0 36 7 75q31 -15 67 -23.5t66 -8.5q72 0 109.5 38t37.5 111v65q-20 -37 -52 -56.5t-78 -19.5q-60 0 -104 28.5t-68.5 86t-24.5 141.5q0 126 58.5 195t182.5 69q94 0 172 -27zM361 107v319q-39 11 -85 11
q-82 0 -118 -50t-36 -141q0 -93 33.5 -140t99.5 -47q63 0 106 48z" />
    <glyph glyph-name="h" unicode="h" horiz-adv-x="513" 
d="M454 331v-331h-86v320q0 60 -26.5 88.5t-87.5 28.5q-52 0 -104 -21v-416h-86v692q35 13 86 13v-223q54 24 115 24q189 0 189 -175z" />
    <glyph glyph-name="i" unicode="i" horiz-adv-x="215" 
d="M67.5 615.5q-15.5 15.5 -15.5 40.5t15.5 40.5t39.5 15.5t39.5 -15.5t15.5 -40.5q0 -24 -15.5 -40t-39.5 -16t-39.5 15.5zM64 496h86v-496h-86v496z" />
    <glyph glyph-name="j" unicode="j" horiz-adv-x="214" 
d="M66.5 615.5q-15.5 15.5 -15.5 40.5t15.5 40.5t39.5 15.5t39.5 -15.5t15.5 -40.5t-15.5 -40.5t-39.5 -15.5t-39.5 15.5zM-48 -219q1 23 9 69q22 -5 40 -5q32 0 47.5 17t15.5 56v578h86v-573q0 -78 -34 -114.5t-104 -36.5q-34 0 -60 9z" />
    <glyph glyph-name="k" unicode="k" horiz-adv-x="464" 
d="M64 692q38 13 86 13v-705h-86v692zM465 0h-105l-203 261v6l189 229h100l-195 -230z" />
    <glyph glyph-name="l" unicode="l" horiz-adv-x="215" 
d="M64 692q36 13 86 13v-705h-86v692z" />
    <glyph glyph-name="m" unicode="m" horiz-adv-x="817" 
d="M712 463q46 -45 46 -127v-336h-86v321q0 60 -27.5 88t-89.5 28q-29 0 -58 -7.5t-55 -21.5q12 -33 12 -76v-332h-86v321q0 41 -11.5 66.5t-38 38t-70.5 12.5q-46 0 -98 -13v-425h-86v478q101 30 186 30q109 0 159 -48q66 48 166 48q91 0 137 -45z" />
    <glyph glyph-name="n" unicode="n" horiz-adv-x="513" 
d="M406.5 462.5q47.5 -45.5 47.5 -130.5v-332h-86v321q0 41 -11.5 66.5t-38 38t-70.5 12.5q-46 0 -98 -13v-425h-86v478q101 30 186 30q109 0 156.5 -45.5z" />
    <glyph glyph-name="o" unicode="o" horiz-adv-x="509" 
d="M133 19.5q-50 31.5 -76 90t-26 138.5q0 81 25.5 139.5t75.5 89.5t122 31t122 -31.5t76 -89.5t26 -139t-26 -139t-76.5 -89.5t-121.5 -31.5t-121 31.5zM356 108q34 49 34 140t-34 140t-102 49t-101.5 -48.5t-33.5 -140.5t33.5 -140.5t101.5 -48.5t102 49z" />
    <glyph glyph-name="p" unicode="p" horiz-adv-x="511" 
d="M416.5 442q60.5 -66 60.5 -188q0 -126 -62 -196t-186 -70q-44 0 -79 7v-207h-86v679q39 20 85.5 30.5t92.5 10.5q114 0 174.5 -66zM351.5 110q37.5 51 37.5 140q0 92 -36.5 139.5t-115.5 47.5q-45 0 -87 -14v-352q39 -12 84 -12q80 0 117.5 51z" />
    <glyph glyph-name="q" unicode="q" horiz-adv-x="512" 
d="M447 481v-693h-86v276q-20 -37 -52 -56.5t-78 -19.5q-60 0 -104 28.5t-68.5 86t-24.5 141.5q0 126 58.5 195t182.5 69q94 0 172 -27zM361 107v319q-39 11 -85 11q-82 0 -118 -50t-36 -141q0 -93 33.5 -140t99.5 -47q63 0 106 48z" />
    <glyph glyph-name="r" unicode="r" horiz-adv-x="343" 
d="M328 497q0 -20 -2 -41t-6 -33q-35 9 -92 9q-36 0 -78 -8v-424h-86v479q33 12 78 19.5t85 7.5q59 0 101 -9z" />
    <glyph glyph-name="s" unicode="s" horiz-adv-x="408" 
d="M103 -3q-39 9 -68 25q1 21 3.5 37.5t8.5 34.5q30 -17 65.5 -26t68.5 -9q107 0 107 68q0 21 -8.5 34.5t-25.5 23.5t-46 21l-41 16q-41 16 -69 35t-44 46.5t-16 67.5q0 65 46 101t132 36q80 0 142 -22q-4 -41 -11 -71q-33 11 -62 16.5t-63 5.5q-100 0 -100 -64
q0 -28 20 -46.5t64 -35.5l41 -16q66 -25 97 -57t31 -84q0 -43 -21.5 -76t-64.5 -51.5t-104 -18.5q-43 0 -82 9z" />
    <glyph glyph-name="t" unicode="t" horiz-adv-x="327" 
d="M164 82q19 -21 58 -21q18 0 37.5 5t35.5 14q-2 -25 -5.5 -47.5t-4.5 -26.5q-35 -18 -82 -18q-68 0 -106 37.5t-38 115.5v491q36 13 86 13v-149h152q-3 -45 -8 -72h-144v-274q0 -47 19 -68z" />
    <glyph glyph-name="u" unicode="u" horiz-adv-x="513" 
d="M449 496v-478q-101 -30 -185 -30q-110 0 -157.5 45.5t-47.5 130.5v332h86v-321q0 -61 27.5 -89.5t92.5 -28.5q46 0 98 13v426h86z" />
    <glyph glyph-name="v" unicode="v" horiz-adv-x="439" 
d="M440 496l-179 -496h-84l-178 496h91l131 -402l132 402h87z" />
    <glyph glyph-name="w" unicode="w" horiz-adv-x="733" 
d="M734 496l-164 -496h-82l-120 377l-122 -377h-79l-168 496h90l121 -401l119 401h80l125 -404l115 404h85z" />
    <glyph glyph-name="x" unicode="x" horiz-adv-x="435" 
d="M336 0l-120 179l-121 -179h-96l172 245l-169 251h99l117 -182l121 182h94l-171 -248l174 -248h-100z" />
    <glyph glyph-name="y" unicode="y" horiz-adv-x="456" 
d="M458 496l-195 -561q-27 -79 -69 -119t-107 -40q-25 0 -44 6q0 44 5 72q16 -4 30 -4q29 0 50.5 11t39 38t31.5 74l-200 523h91l148 -417l133 417h87z" />
    <glyph glyph-name="z" unicode="z" horiz-adv-x="436" 
d="M407 73q-3 -35 -11 -73h-366q0 29 3 54l250 369h-249q3 39 10 73h353q0 -27 -3 -51l-254 -372h267z" />
    <glyph glyph-name="braceleft" unicode="{" horiz-adv-x="277" 
d="M171.5 -105q5.5 -21 20 -30.5t42.5 -9.5h65q0 -32 -8 -67h-57q-82 0 -115.5 42t-33.5 121v229q0 42 -20.5 63t-62.5 28v65q45 6 64 26t19 63v232q0 79 33.5 121t115.5 42h65q0 -25 -8 -67h-57q-27 0 -41.5 -10t-20.5 -31t-6 -56v-233q0 -49 -23.5 -80.5t-67.5 -39.5
q44 -9 67.5 -42t23.5 -81v-228q0 -36 5.5 -57z" />
    <glyph glyph-name="bar" unicode="|" horiz-adv-x="267" 
d="M97 788q16 5 36 8.5t37 3.5v-1012h-73v1000z" />
    <glyph glyph-name="braceright" unicode="}" horiz-adv-x="277" 
d="M213 365q20 -21 62 -28v-65q-45 -6 -63.5 -26t-18.5 -63v-232q0 -79 -34 -121t-115 -42h-66q1 32 8 67h58q26 0 40.5 10t20.5 31t6 56v233q0 49 24 80.5t67 39.5q-44 9 -67.5 42t-23.5 81v228q0 36 -5.5 57t-20 30.5t-41.5 9.5h-66q2 40 8 67h58q81 0 115 -42t34 -121
v-229q0 -42 20 -63z" />
    <glyph glyph-name="asciitilde" unicode="~" 
d="M309 286.5q-20 8.5 -48 25.5q-20 13 -34.5 19.5t-26.5 6.5q-19 0 -29.5 -13t-20.5 -43q-43 6 -64 12q15 63 42.5 87t64.5 24q22 0 42.5 -9t48.5 -26q23 -14 36 -20t26 -6q19 0 31 14t23 52q35 -3 64 -11q-16 -66 -45.5 -93.5t-66.5 -27.5q-23 0 -43 8.5z" />
    <glyph glyph-name="uni00A0" unicode="&#xa0;" horiz-adv-x="196" 
 />
    <glyph glyph-name="exclamdown" unicode="&#xa1;" horiz-adv-x="304" 
d="M192 489.5q17 -16.5 17 -39.5q0 -24 -17 -40.5t-40 -16.5t-40 16.5t-17 40.5q0 23 17 39.5t40 16.5t40 -16.5zM196 -195q-19 -5 -45 -9t-45 -4l9 485h73z" />
    <glyph glyph-name="cent" unicode="&#xa2;" 
d="M304 157q26 1 53.5 7.5t48.5 18.5q-2 -35 -12 -74q-15 -9 -40 -14.5t-50 -7.5v-99h-68v102q-89 15 -139.5 79.5t-50.5 175.5q0 109 47.5 175.5t142.5 81.5v84q10 6 31 10t37 4v-94q29 -1 55.5 -6t47.5 -14q0 -16 -2.5 -35.5t-5.5 -34.5q-43 15 -95 17v-376zM163.5 230.5
q25.5 -45.5 72.5 -63.5v358q-98 -32 -98 -181q0 -68 25.5 -113.5z" />
    <glyph glyph-name="sterling" unicode="&#xa3;" 
d="M482 81q-5 -57 -10 -81h-410v77q33 9 57 23t38.5 40.5t14.5 69.5q0 20 -3 54l-6 69h-106v70h100l-4 39q-5 48 -5 79q0 95 54.5 140.5t157.5 45.5q51 0 95 -10q-1 -36 -7 -79q-39 11 -87 11q-61 0 -93 -27.5t-32 -87.5q0 -24 5 -67l4 -44h174q-1 -32 -8 -70h-160l6 -62
q4 -36 4 -50q0 -90 -66 -140h287z" />
    <glyph glyph-name="currency" unicode="&#xa4;" 
d="M436 244l65 -64l-55 -54l-65 65q-23 -15 -50 -23.5t-56 -8.5t-56 8.5t-50 23.5l-65 -65l-55 54l65 65q-32 48 -32 106q0 29 8.5 56.5t23.5 50.5l-65 64l54 55l65 -65q47 32 107 32q59 0 107 -31l65 64l54 -55l-64 -64q15 -23 23 -50.5t8 -56.5q0 -57 -32 -107z
M173.5 290.5q15.5 -26.5 42 -41.5t59.5 -15q32 0 59 15t42.5 41.5t15.5 60.5t-15.5 61t-42.5 42t-59 15q-33 0 -59.5 -15t-42 -42t-15.5 -61t15.5 -60.5z" />
    <glyph glyph-name="yen" unicode="&#xa5;" 
d="M319 304v-73h161q-6 -50 -10 -67h-151v-164h-88v164h-160v67h160v73h-160v66h137l-188 322h98l159 -290l159 290h93l-187 -322h140q0 -4 -3 -27.5t-7 -38.5h-153z" />
    <glyph glyph-name="brokenbar" unicode="&#xa6;" horiz-adv-x="267" 
d="M97 788q16 5 36 8.5t37 3.5v-444h-73v432zM97 184h73v-396h-73v396z" />
    <glyph glyph-name="section" unicode="&#xa7;" horiz-adv-x="520" 
d="M453 179.5q19 -26.5 19 -61.5q0 -65 -55.5 -99t-167.5 -34q-55 0 -105 10t-85 26q0 17 3 39t9 37q45 -20 90 -30t95 -10q65 0 97 15.5t32 46.5q0 20 -14.5 34t-47.5 25.5t-91 23.5q-90 19 -141.5 53.5t-51.5 95.5q0 41 23.5 69t73.5 44q-37 17 -56 43.5t-19 65.5
q0 67 54.5 100.5t155.5 33.5q51 0 88 -5.5t85 -18.5q0 -15 -3.5 -36t-9.5 -33q-44 12 -81 18t-83 6q-121 0 -121 -64q0 -24 16.5 -38t46.5 -22.5t93 -21.5q78 -16 129.5 -50t51.5 -99q0 -40 -22.5 -70t-66.5 -48q40 -19 59 -45.5zM156.5 297.5q36.5 -23.5 116.5 -37.5
q5 -1 18 -3.5t23 -5.5q47 10 67.5 30t20.5 53q0 37 -34 58t-103 35l-52 12q-48 -9 -70.5 -29.5t-22.5 -49.5q0 -39 36.5 -62.5z" />
    <glyph glyph-name="dieresis" unicode="&#xa8;" horiz-adv-x="378" 
d="M64.5 618.5q-14.5 15.5 -14.5 38.5q0 24 14.5 38.5t37.5 14.5t37 -14.5t14 -38.5t-14 -39t-37 -15t-37.5 15.5zM238.5 618q-14.5 15 -14.5 39t14.5 38.5t37.5 14.5t37.5 -14.5t14.5 -38.5t-14.5 -39t-37.5 -15t-37.5 15z" />
    <glyph glyph-name="copyright" unicode="&#xa9;" horiz-adv-x="876" 
d="M234.5 -18.5q-91.5 53.5 -145 148t-53.5 211.5q0 116 53.5 210t145 147.5t202.5 53.5t203.5 -53.5t146 -147.5t53.5 -210q0 -117 -53.5 -211.5t-146 -148t-203.5 -53.5t-202.5 53.5zM609.5 34.5q77.5 46.5 122.5 127t45 179.5q0 98 -45 178.5t-122.5 126.5t-172.5 46
q-94 0 -171.5 -46t-122 -126.5t-44.5 -178.5q0 -99 44.5 -179.5t122 -127t171.5 -46.5q95 0 172.5 46.5zM339 150q-48 27 -75.5 76.5t-27.5 112.5q0 65 27 114.5t75 76.5t110 27q71 0 111 -21q-1 -35 -10 -61q-18 10 -44 15.5t-55 5.5q-42 0 -75 -18.5t-52 -53.5t-19 -82
t19.5 -83t53.5 -55.5t77 -19.5q28 0 55 5.5t47 15.5q-2 -37 -9 -66q-45 -16 -99 -16q-61 0 -109 27z" />
    <glyph glyph-name="ordfeminine" unicode="&#xaa;" horiz-adv-x="388" 
d="M277.5 696.5q35.5 -5.5 65.5 -16.5v-385h-71l-5 57q-16 -33 -41.5 -50t-61.5 -17q-41 0 -72.5 22.5t-49 68t-17.5 112.5q0 105 44 159.5t139 54.5q34 0 69.5 -5.5zM266 386v245q-27 8 -56 8q-56 0 -81 -38.5t-25 -112.5q0 -69 22.5 -104t63.5 -35q44 0 76 37z" />
    <glyph glyph-name="guillemotleft" unicode="&#xab;" horiz-adv-x="525" 
d="M249 275l152 229q33 -9 67 -29l-131 -200l131 -199q-13 -8 -31.5 -16.5t-35.5 -12.5zM47 275l152 229q33 -9 67 -29l-131 -200l131 -199q-13 -8 -31.5 -16.5t-35.5 -12.5z" />
    <glyph glyph-name="logicalnot" unicode="&#xac;" 
d="M474 375v-238h-74v165h-324q1 26 9 73h389z" />
    <glyph glyph-name="uni00AD" unicode="&#xad;" horiz-adv-x="362" 
d="M49 312h273q-2 -37 -8 -75h-274q2 42 9 75z" />
    <glyph glyph-name="registered" unicode="&#xae;" horiz-adv-x="441" 
d="M319.5 680.5q44.5 -25.5 70.5 -70t26 -99.5q0 -56 -26 -100.5t-70.5 -70t-98.5 -25.5q-55 0 -99.5 25.5t-70.5 70t-26 100.5q0 55 26 100t71 70t99 25t98.5 -25.5zM300.5 371.5q35.5 20.5 56.5 57t21 82.5t-20.5 82.5t-56.5 56.5t-80 20q-45 0 -81 -20t-56.5 -56.5
t-20.5 -82.5t20.5 -82.5t56.5 -57t81 -20.5q44 0 79.5 20.5zM285 517q-11 -16 -31 -23l56 -84h-43l-49 77h-22v-77h-37v203q27 6 56 6q37 0 59 -17.5t22 -46.5q0 -22 -11 -38zM196 521h19q23 0 33 7.5t10 24.5q0 33 -43 33q-13 0 -19 -1v-64z" />
    <glyph glyph-name="macron" unicode="&#xaf;" horiz-adv-x="352" 
d="M59 690h243q-4 -42 -8 -65h-244q2 34 9 65z" />
    <glyph glyph-name="degree" unicode="&#xb0;" horiz-adv-x="380" 
d="M111 424q-35 18 -55 52t-20 80t19.5 80t54 52.5t79.5 18.5q44 0 79.5 -18.5t55.5 -53t20 -79.5q0 -46 -20 -80t-55 -52t-79 -18t-79 18zM235 475.5q20 11.5 31.5 32.5t11.5 48q0 28 -12 49.5t-32 33t-44 11.5q-25 0 -44.5 -11.5t-31 -33t-11.5 -49.5q0 -27 11 -48
t31 -32.5t45 -11.5t45 11.5z" />
    <glyph glyph-name="plusminus" unicode="&#xb1;" 
d="M239 363h-164q1 29 9 73h155v147h72v-147h162q-1 -26 -9 -73h-153v-141h-72v141zM84 175h389q-1 -26 -9 -73h-389q1 29 9 73z" />
    <glyph glyph-name="uni00B2" unicode="&#xb2;" horiz-adv-x="321" 
d="M283 522q0 -14 -2 -30.5t-4 -24.5h-249v23q0 30 9 52t30.5 42t60.5 42q29 17 43.5 27.5t20.5 21t6 25.5q0 58 -85 58q-22 0 -44 -4t-40 -11q0 31 7 62q43 13 94 13q69 0 106 -28.5t37 -78.5q0 -39 -17 -65.5t-62 -51.5q-44 -24 -64 -40t-26 -32h179z" />
    <glyph glyph-name="uni00B3" unicode="&#xb3;" horiz-adv-x="320" 
d="M287 561q0 -50 -43 -77.5t-127 -27.5q-44 0 -89 9q0 20 9 56q38 -8 80 -8q50 0 72.5 12t22.5 38q0 28 -23.5 39t-70.5 11h-48v55h38q44 0 68 11t24 39q0 21 -19 32t-55 11q-51 0 -91 -14q0 12 2.5 28.5t5.5 28.5q35 14 90 14q66 0 103 -24t37 -71q0 -31 -20.5 -50
t-59.5 -29q94 -13 94 -83z" />
    <glyph glyph-name="acute" unicode="&#xb4;" horiz-adv-x="244" 
d="M91 717q20 7 50 11t53 4q-8 -36 -29 -69t-50 -56.5t-60 -31.5h-5z" />
    <glyph glyph-name="uni00B5" unicode="&#xb5;" 
d="M470 496v-478q-101 -30 -185 -30q-78 0 -125 24q4 -73 4 -154v-70h-84v708h86v-321q0 -61 27.5 -89.5t92.5 -28.5q46 0 98 13v426h86z" />
    <glyph glyph-name="paragraph" unicode="&#xb6;" horiz-adv-x="583" 
d="M284 227h-36q-98 0 -155 55.5t-57 175.5q0 126 61 180t168 54h241v-819h-61v757h-100v-757h-61v354z" />
    <glyph glyph-name="periodcentered" unicode="&#xb7;" horiz-adv-x="323" 
d="M131 277.5q-14 8.5 -22.5 22.5t-8.5 31q0 25 18 43t44 18q16 0 30 -8t22.5 -22t8.5 -31t-8.5 -31t-22.5 -22.5t-30 -8.5q-17 0 -31 8.5z" />
    <glyph glyph-name="cedilla" unicode="&#xb8;" horiz-adv-x="263" 
d="M195.5 -77q17.5 -18 17.5 -47q0 -38 -25 -60t-74 -22q-34 0 -64 12q2 28 8 47q30 -10 52 -10q21 0 33 8.5t12 24.5q0 19 -19.5 28.5t-62.5 10.5l31 98l56 -4l-20 -57q38 -11 55.5 -29z" />
    <glyph glyph-name="uni00B9" unicode="&#xb9;" horiz-adv-x="261" 
d="M113 809.5q44 8.5 84 9.5v-352h-73v285q-44 -8 -100 -25q0 19 2 33t6 28q37 13 81 21.5z" />
    <glyph glyph-name="ordmasculine" unicode="&#xba;" horiz-adv-x="388" 
d="M100.5 309q-38.5 25 -58.5 72t-20 112t20 112t58.5 72t93.5 25t94 -25t59 -72t20 -112t-20 -112t-59 -72t-94 -25t-93.5 25zM264.5 386q23.5 37 23.5 107q0 71 -23.5 108t-70.5 37t-70 -37t-23 -108q0 -70 23.5 -107t69.5 -37q47 0 70.5 37z" />
    <glyph glyph-name="guillemotright" unicode="&#xbb;" horiz-adv-x="525" 
d="M88.5 59.5q-18.5 8.5 -31.5 16.5l131 199l-131 200q34 20 67 29l152 -229l-152 -228q-17 4 -35.5 12.5zM290 60q-19 8 -31 16l131 199l-131 200q33 20 66 29l153 -229l-152 -228q-17 5 -36 13z" />
    <glyph glyph-name="onequarter" unicode="&#xbc;" horiz-adv-x="725" 
d="M113 687.5q44 8.5 84 9.5v-352h-73v285q-44 -8 -100 -25q0 19 2 33t6 28q37 13 81 21.5zM469 692q36 5 82 7l-354 -699q-38 -5 -82 -7zM652 70h-51v-70h-65v70h-188q0 16 1.5 28.5t3.5 26.5q32 58 80 119.5t95 101.5q17 3 35.5 4t37.5 1v-225h59q-1 -23 -8 -56zM536 126
v152q-64 -65 -120 -152h120z" />
    <glyph glyph-name="onehalf" unicode="&#xbd;" horiz-adv-x="744" 
d="M113 687.5q44 8.5 84 9.5v-352h-73v285q-44 -8 -100 -25q0 19 2 33t6 28q37 13 81 21.5zM457 692q36 5 82 7l-354 -699q-38 -5 -82 -7zM679 55q0 -14 -2 -30.5t-4 -24.5h-249v23q0 30 9 52t30.5 42t60.5 42q29 17 43.5 27.5t20.5 21t6 25.5q0 58 -85 58q-22 0 -44 -4
t-40 -11q0 31 7 62q43 13 94 13q69 0 106 -28.5t37 -78.5q0 -39 -17 -65.5t-62 -51.5q-44 -24 -64 -40t-26 -32h179z" />
    <glyph glyph-name="threequarters" unicode="&#xbe;" horiz-adv-x="739" 
d="M287 439q0 -50 -43 -77.5t-127 -27.5q-44 0 -89 9q0 20 9 56q38 -8 80 -8q50 0 72.5 12t22.5 38q0 28 -23.5 39t-70.5 11h-48v55h38q44 0 68 11t24 39q0 21 -19 32t-55 11q-51 0 -91 -14q0 12 2.5 28.5t5.5 28.5q35 14 90 14q66 0 103 -24t37 -71q0 -31 -20.5 -50
t-59.5 -29q94 -13 94 -83zM527 692q36 5 82 7l-354 -699q-38 -5 -82 -7zM698 70h-51v-70h-65v70h-188q0 16 1.5 28.5t3.5 26.5q32 58 80 119.5t95 101.5q17 3 35.5 4t37.5 1v-225h59q-1 -23 -8 -56zM582 126v152q-64 -65 -120 -152h120z" />
    <glyph glyph-name="questiondown" unicode="&#xbf;" horiz-adv-x="444" 
d="M301.5 488.5q16.5 -16.5 16.5 -40.5q0 -23 -16.5 -39.5t-39.5 -16.5q-24 0 -40.5 16.5t-16.5 39.5q0 24 16.5 40.5t40.5 16.5q23 0 39.5 -16.5zM304 255q0 -50 -20.5 -84.5t-65.5 -69.5q-44 -34 -64 -65t-20 -71q0 -44 30.5 -71.5t97.5 -27.5q36 0 74.5 8.5t66.5 24.5
q0 -39 -8 -77q-28 -16 -66 -24.5t-78 -8.5q-67 0 -113 21t-69.5 60t-23.5 92q0 42 14 73.5t38.5 57t63.5 53.5q39 29 56 55t17 65v18h68q2 -18 2 -29z" />
    <glyph glyph-name="Agrave" unicode="&#xc0;" horiz-adv-x="560" 
d="M418 166h-280l-53 -166h-85l224 685q19 5 50.5 8.5t58.5 3.5l227 -697h-90zM394 244l-114 368l-117 -368h231zM351 763q-47 5 -90.5 36.5t-72.5 74.5q10 4 26.5 6t33.5 2q15 0 31 -1.5t24 -3.5l65 -114h-17z" />
    <glyph glyph-name="Aacute" unicode="&#xc1;" horiz-adv-x="560" 
d="M418 166h-280l-53 -166h-85l224 685q19 5 50.5 8.5t58.5 3.5l227 -697h-90zM394 244l-114 368l-117 -368h231zM281 877q9 2 24.5 3.5t31.5 1.5q36 0 60 -8q-29 -43 -72.5 -74.5t-90.5 -36.5h-17z" />
    <glyph glyph-name="Acircumflex" unicode="&#xc2;" horiz-adv-x="560" 
d="M418 166h-280l-53 -166h-85l224 685q19 5 50.5 8.5t58.5 3.5l227 -697h-90zM394 244l-114 368l-117 -368h231zM226 884q24 6 53 6t53 -6l93 -121h-31q-33 5 -60 24t-55 52q-56 -66 -119 -76h-28z" />
    <glyph glyph-name="Atilde" unicode="&#xc3;" horiz-adv-x="560" 
d="M418 166h-280l-53 -166h-85l224 685q19 5 50.5 8.5t58.5 3.5l227 -697h-90zM394 244l-114 368l-117 -368h231zM310 782q-21 10 -52 29q-35 23 -46 23q-10 0 -14 -6t-4 -21v-34h-65v43q0 42 18 62t51 20q22 0 43.5 -10.5t52.5 -30.5q3 -2 13.5 -8.5t17.5 -9.5t11 -3
q20 0 20 26v35h65v-46q0 -79 -72 -79q-18 0 -39 10z" />
    <glyph glyph-name="Adieresis" unicode="&#xc4;" horiz-adv-x="560" 
d="M418 166h-280l-53 -166h-85l224 685q19 5 50.5 8.5t58.5 3.5l227 -697h-90zM394 244l-114 368l-117 -368h231zM146 782.5q-15 15.5 -15 39.5q0 23 15.5 38t38.5 15t38 -15t15 -38q0 -24 -15 -39.5t-38 -15.5q-24 0 -39 15.5zM336 782.5q-15 15.5 -15 38.5q0 24 15 38.5
t38 14.5t37.5 -14.5t14.5 -38.5t-14.5 -39t-37.5 -15t-38 15.5z" />
    <glyph glyph-name="Aring" unicode="&#xc5;" horiz-adv-x="560" 
d="M418 166h-280l-53 -166h-85l224 685q19 5 50.5 8.5t58.5 3.5l227 -697h-90zM394 244l-114 368l-117 -368h231zM225 756q-24 13 -37.5 35t-13.5 50q0 27 13.5 49.5t37.5 35t54 12.5t53.5 -13t37 -35t13.5 -50q0 -27 -13.5 -49t-37.5 -35t-53 -13q-30 0 -54 13zM316 804
q14 14 14 36t-14 36t-37 14t-37.5 -14t-14.5 -35q0 -23 14 -37t38 -14q23 0 37 14z" />
    <glyph glyph-name="AE" unicode="&#xc6;" horiz-adv-x="834" 
d="M803 78q-2 -45 -9 -79h-388v184h-254q-30 -64 -80 -183h-92q75 181 167.5 358t196.5 334h190v-1h268q0 -31 -8 -79h-301v-222h280q-2 -43 -8 -79h-272v-233h310zM406 260v353h-18q-94 -139 -199 -353h217z" />
    <glyph glyph-name="Ccedilla" unicode="&#xc7;" horiz-adv-x="534" 
d="M361 -15l-11 -33q38 -10 55.5 -28t17.5 -48q0 -38 -25.5 -60t-74.5 -22q-34 0 -64 12q1 21 8 47q30 -10 52 -10t33.5 8.5t11.5 24.5q0 19 -19 28.5t-62 10.5l22 72q-87 9 -147.5 56.5t-91 125.5t-30.5 177q0 108 36 190t104.5 126.5t162.5 44.5q102 0 159 -33
q-2 -25 -5 -42.5t-9 -33.5q-60 31 -140 31q-65 0 -114 -32.5t-75.5 -96.5t-26.5 -155q0 -89 27 -152.5t77.5 -96t119.5 -32.5q43 0 80.5 8t66.5 23q-3 -44 -14 -84q-62 -23 -124 -26z" />
    <glyph glyph-name="Egrave" unicode="&#xc8;" horiz-adv-x="505" 
d="M165 79h309q-2 -47 -9 -79h-388v692h397q-1 -34 -9 -79h-300v-223h279q0 -31 -8 -79h-271v-232zM356 763q-47 5 -90.5 36.5t-72.5 74.5q10 4 26.5 6t33.5 2q15 0 31 -1.5t24 -3.5l65 -114h-17z" />
    <glyph glyph-name="Eacute" unicode="&#xc9;" horiz-adv-x="505" 
d="M165 79h309q-2 -47 -9 -79h-388v692h397q-1 -34 -9 -79h-300v-223h279q0 -31 -8 -79h-271v-232zM285 877q9 2 24.5 3.5t31.5 1.5q36 0 60 -8q-29 -43 -72.5 -74.5t-90.5 -36.5h-17z" />
    <glyph glyph-name="Ecircumflex" unicode="&#xca;" horiz-adv-x="505" 
d="M165 79h309q-2 -47 -9 -79h-388v692h397q-1 -34 -9 -79h-300v-223h279q0 -31 -8 -79h-271v-232zM231 884q24 6 53 6t53 -6l93 -121h-31q-33 5 -60 24t-55 52q-56 -66 -119 -76h-28z" />
    <glyph glyph-name="Edieresis" unicode="&#xcb;" horiz-adv-x="505" 
d="M165 79h309q-2 -47 -9 -79h-388v692h397q-1 -34 -9 -79h-300v-223h279q0 -31 -8 -79h-271v-232zM150 782.5q-15 15.5 -15 39.5q0 23 15.5 38t38.5 15t38 -15t15 -38q0 -24 -15 -39.5t-38 -15.5q-24 0 -39 15.5zM340 782.5q-15 15.5 -15 38.5q0 24 15 38.5t38 14.5
t37.5 -14.5t14.5 -38.5t-14.5 -39t-37.5 -15t-38 15.5z" />
    <glyph glyph-name="Igrave" unicode="&#xcc;" horiz-adv-x="242" 
d="M77 686q19 6 43.5 10t44.5 4v-700h-88v686zM194 763q-47 5 -90.5 36.5t-72.5 74.5q10 4 26.5 6t33.5 2q15 0 31 -1.5t24 -3.5l65 -114h-17z" />
    <glyph glyph-name="Iacute" unicode="&#xcd;" horiz-adv-x="242" 
d="M77 686q19 6 43.5 10t44.5 4v-700h-88v686zM123 877q9 2 24.5 3.5t31.5 1.5q36 0 60 -8q-29 -43 -72.5 -74.5t-90.5 -36.5h-17z" />
    <glyph glyph-name="Icircumflex" unicode="&#xce;" horiz-adv-x="242" 
d="M77 686q19 6 43.5 10t44.5 4v-700h-88v686zM74 872q10 3 23.5 4.5t24.5 1.5q25 0 46 -6l82 -109h-25q-32 5 -57.5 20t-46.5 41q-42 -49 -103 -61h-26z" />
    <glyph glyph-name="Idieresis" unicode="&#xcf;" horiz-adv-x="242" 
d="M77 686q19 6 43.5 10t44.5 4v-700h-88v686zM9 781.5q-14 15.5 -14 39.5q0 23 14 38t37 15q24 0 38 -14.5t14 -38.5t-14 -39.5t-38 -15.5q-23 0 -37 15.5zM157 781.5q-14 15.5 -14 39.5t14 38.5t38 14.5q23 0 37 -15t14 -38q0 -24 -14 -39.5t-37 -15.5q-24 0 -38 15.5z
" />
    <glyph glyph-name="Eth" unicode="&#xd0;" horiz-adv-x="621" 
d="M505.5 610.5q79.5 -96.5 79.5 -258.5q0 -109 -36 -187.5t-109.5 -121.5t-183.5 -43h-183v319h-62q0 3 2.5 25.5t7.5 39.5h52v306q80 17 180 17q173 0 252.5 -96.5zM494 353q0 278 -241 278q-47 0 -92 -6v-241h182q-2 -33 -10 -65h-172v-242h98q235 0 235 276z" />
    <glyph glyph-name="Ntilde" unicode="&#xd1;" horiz-adv-x="647" 
d="M525 696q25 4 44 4v-700h-73l-285 457q-23 36 -51 90q2 -78 2 -243v-304h-85v686q17 6 41 10t41 4l269 -441q32 -53 59 -108q-4 119 -4 291v244q17 6 42 10zM354 782q-21 10 -52 29q-35 23 -46 23q-10 0 -14 -6t-4 -21v-34h-65v43q0 42 18 62t51 20q22 0 43.5 -10.5
t52.5 -30.5q3 -2 13.5 -8.5t17.5 -9.5t11 -3q20 0 20 26v35h65v-46q0 -79 -72 -79q-18 0 -39 10z" />
    <glyph glyph-name="Ograve" unicode="&#xd2;" horiz-adv-x="664" 
d="M169.5 30q-66.5 45 -100 126t-33.5 190q0 110 34.5 191.5t101 125.5t159.5 44q97 0 163.5 -45t100 -126.5t33.5 -189.5q0 -111 -34.5 -192.5t-101 -125t-159.5 -43.5q-97 0 -163.5 45zM485.5 136q51.5 72 51.5 210q0 90 -23.5 153t-70 96.5t-112.5 33.5
q-100 0 -152.5 -73.5t-52.5 -209.5q0 -135 53 -208.5t154 -73.5t152.5 72zM402 763q-47 5 -90.5 36.5t-72.5 74.5q10 4 26.5 6t33.5 2q15 0 31 -1.5t24 -3.5l65 -114h-17z" />
    <glyph glyph-name="Oacute" unicode="&#xd3;" horiz-adv-x="664" 
d="M169.5 30q-66.5 45 -100 126t-33.5 190q0 110 34.5 191.5t101 125.5t159.5 44q97 0 163.5 -45t100 -126.5t33.5 -189.5q0 -111 -34.5 -192.5t-101 -125t-159.5 -43.5q-97 0 -163.5 45zM485.5 136q51.5 72 51.5 210q0 90 -23.5 153t-70 96.5t-112.5 33.5
q-100 0 -152.5 -73.5t-52.5 -209.5q0 -135 53 -208.5t154 -73.5t152.5 72zM331 877q9 2 24.5 3.5t31.5 1.5q36 0 60 -8q-29 -43 -72.5 -74.5t-90.5 -36.5h-17z" />
    <glyph glyph-name="Ocircumflex" unicode="&#xd4;" horiz-adv-x="664" 
d="M169.5 30q-66.5 45 -100 126t-33.5 190q0 110 34.5 191.5t101 125.5t159.5 44q97 0 163.5 -45t100 -126.5t33.5 -189.5q0 -111 -34.5 -192.5t-101 -125t-159.5 -43.5q-97 0 -163.5 45zM485.5 136q51.5 72 51.5 210q0 90 -23.5 153t-70 96.5t-112.5 33.5
q-100 0 -152.5 -73.5t-52.5 -209.5q0 -135 53 -208.5t154 -73.5t152.5 72zM277 884q24 6 53 6t53 -6l93 -121h-31q-33 5 -60 24t-55 52q-56 -66 -119 -76h-28z" />
    <glyph glyph-name="Otilde" unicode="&#xd5;" horiz-adv-x="664" 
d="M169.5 30q-66.5 45 -100 126t-33.5 190q0 110 34.5 191.5t101 125.5t159.5 44q97 0 163.5 -45t100 -126.5t33.5 -189.5q0 -111 -34.5 -192.5t-101 -125t-159.5 -43.5q-97 0 -163.5 45zM485.5 136q51.5 72 51.5 210q0 90 -23.5 153t-70 96.5t-112.5 33.5
q-100 0 -152.5 -73.5t-52.5 -209.5q0 -135 53 -208.5t154 -73.5t152.5 72zM360 782q-21 10 -52 29q-35 23 -46 23q-10 0 -14 -6t-4 -21v-34h-65v43q0 42 18 62t51 20q22 0 43.5 -10.5t52.5 -30.5q3 -2 13.5 -8.5t17.5 -9.5t11 -3q20 0 20 26v35h65v-46q0 -79 -72 -79
q-18 0 -39 10z" />
    <glyph glyph-name="Odieresis" unicode="&#xd6;" horiz-adv-x="664" 
d="M169.5 30q-66.5 45 -100 126t-33.5 190q0 110 34.5 191.5t101 125.5t159.5 44q97 0 163.5 -45t100 -126.5t33.5 -189.5q0 -111 -34.5 -192.5t-101 -125t-159.5 -43.5q-97 0 -163.5 45zM485.5 136q51.5 72 51.5 210q0 90 -23.5 153t-70 96.5t-112.5 33.5
q-100 0 -152.5 -73.5t-52.5 -209.5q0 -135 53 -208.5t154 -73.5t152.5 72zM196 782.5q-15 15.5 -15 39.5q0 23 15.5 38t38.5 15t38 -15t15 -38q0 -24 -15 -39.5t-38 -15.5q-24 0 -39 15.5zM386 782.5q-15 15.5 -15 38.5q0 24 15 38.5t38 14.5t37.5 -14.5t14.5 -38.5
t-14.5 -39t-37.5 -15t-38 15.5z" />
    <glyph glyph-name="multiply" unicode="&#xd7;" 
d="M323 334l126 -126l-48 -49l-126 127l-127 -127l-48 49l126 126l-126 127l48 48l127 -126l126 126l48 -48z" />
    <glyph glyph-name="Oslash" unicode="&#xd8;" horiz-adv-x="664" 
d="M611 486.5q17 -63.5 17 -140.5q0 -111 -34.5 -192.5t-101 -125t-159.5 -43.5q-106 0 -178 55l-70 -95q-24 28 -34 61l58 80q-36 47 -54.5 113t-18.5 147q0 110 34.5 191.5t101 125.5t159.5 44q113 0 186 -62l72 99q19 -27 31 -66l-59 -81q33 -47 50 -110.5zM164 161
l302 415q-50 53 -135 53q-100 0 -152.5 -73.5t-52.5 -209.5q0 -114 38 -185zM485.5 136q51.5 72 51.5 210q0 105 -32 174l-300 -411q51 -45 128 -45q101 0 152.5 72z" />
    <glyph glyph-name="Ugrave" unicode="&#xd9;" horiz-adv-x="624" 
d="M178.5 15q-56.5 30 -86.5 84.5t-30 125.5v461q18 6 42.5 10t44.5 4v-471q0 -80 43 -122.5t119 -42.5q78 0 121 42t43 124v456q16 6 41.5 10t45.5 4v-475q0 -71 -30.5 -125.5t-87.5 -84.5t-133 -30t-132.5 30zM388 763q-47 5 -90.5 36.5t-72.5 74.5q10 4 26.5 6t33.5 2
q15 0 31 -1.5t24 -3.5l65 -114h-17z" />
    <glyph glyph-name="Uacute" unicode="&#xda;" horiz-adv-x="624" 
d="M178.5 15q-56.5 30 -86.5 84.5t-30 125.5v461q18 6 42.5 10t44.5 4v-471q0 -80 43 -122.5t119 -42.5q78 0 121 42t43 124v456q16 6 41.5 10t45.5 4v-475q0 -71 -30.5 -125.5t-87.5 -84.5t-133 -30t-132.5 30zM317 877q9 2 24.5 3.5t31.5 1.5q36 0 60 -8
q-29 -43 -72.5 -74.5t-90.5 -36.5h-17z" />
    <glyph glyph-name="Ucircumflex" unicode="&#xdb;" horiz-adv-x="624" 
d="M178.5 15q-56.5 30 -86.5 84.5t-30 125.5v461q18 6 42.5 10t44.5 4v-471q0 -80 43 -122.5t119 -42.5q78 0 121 42t43 124v456q16 6 41.5 10t45.5 4v-475q0 -71 -30.5 -125.5t-87.5 -84.5t-133 -30t-132.5 30zM263 884q24 6 53 6t53 -6l93 -121h-31q-33 5 -60 24t-55 52
q-56 -66 -119 -76h-28z" />
    <glyph glyph-name="Udieresis" unicode="&#xdc;" horiz-adv-x="624" 
d="M178.5 15q-56.5 30 -86.5 84.5t-30 125.5v461q18 6 42.5 10t44.5 4v-471q0 -80 43 -122.5t119 -42.5q78 0 121 42t43 124v456q16 6 41.5 10t45.5 4v-475q0 -71 -30.5 -125.5t-87.5 -84.5t-133 -30t-132.5 30zM182 782.5q-15 15.5 -15 39.5q0 23 15.5 38t38.5 15t38 -15
t15 -38q0 -24 -15 -39.5t-38 -15.5q-24 0 -39 15.5zM372 782.5q-15 15.5 -15 38.5q0 24 15 38.5t38 14.5t37.5 -14.5t14.5 -38.5t-14.5 -39t-37.5 -15t-38 15.5z" />
    <glyph glyph-name="Yacute" unicode="&#xdd;" horiz-adv-x="524" 
d="M307 288v-288h-89v288l-221 404h95l172 -326l171 326h92zM265 877q9 2 24.5 3.5t31.5 1.5q36 0 60 -8q-29 -43 -72.5 -74.5t-90.5 -36.5h-17z" />
    <glyph glyph-name="Thorn" unicode="&#xde;" horiz-adv-x="556" 
d="M399 554q59 -30 85.5 -80.5t26.5 -113.5q0 -71 -30.5 -124.5t-89 -82.5t-140.5 -29h-86v-124h-88v686q19 6 43.5 10t44.5 4v-120q56 4 84 4q91 0 150 -30zM377.5 241.5q42.5 41.5 42.5 113.5q0 74 -41.5 114t-128.5 40q-40 0 -85 -6v-305l85 1q85 1 127.5 42.5z" />
    <glyph glyph-name="germandbls" unicode="&#xdf;" horiz-adv-x="531" 
d="M469.5 310q30.5 -48 30.5 -118q0 -65 -25.5 -111t-70.5 -69.5t-103 -23.5q-22 0 -44.5 3.5t-39.5 10.5q2 48 8 74q30 -11 63 -11q58 0 90.5 31t32.5 97q0 72 -37.5 105.5t-112.5 33.5h-26v72h23q55 0 88 30.5t33 87.5q0 52 -28 82t-84 30q-58 0 -87.5 -33t-29.5 -99v-502
h-86v510q0 60 22.5 104.5t68 68.5t112.5 24q63 0 107.5 -21.5t67.5 -61.5t23 -96q0 -52 -23 -92t-63 -58q60 -20 90.5 -68z" />
    <glyph glyph-name="agrave" unicode="&#xe0;" horiz-adv-x="507" 
d="M363.5 501q40.5 -7 78.5 -20v-481h-79l-5 66q-44 -78 -130 -78q-90 0 -141.5 64.5t-51.5 193.5q0 125 58.5 193.5t179.5 68.5q50 0 90.5 -7zM356 106v321q-40 10 -85 10q-79 0 -113.5 -49.5t-34.5 -139.5q0 -96 32.5 -142.5t94.5 -46.5t106 47zM314 575q-32 8 -60.5 31.5
t-49.5 56t-30 69.5q23 0 53 -4t50 -11l41 -142h-4z" />
    <glyph glyph-name="aacute" unicode="&#xe1;" horiz-adv-x="507" 
d="M363.5 501q40.5 -7 78.5 -20v-481h-79l-5 66q-44 -78 -130 -78q-90 0 -141.5 64.5t-51.5 193.5q0 125 58.5 193.5t179.5 68.5q50 0 90.5 -7zM356 106v321q-40 10 -85 10q-79 0 -113.5 -49.5t-34.5 -139.5q0 -96 32.5 -142.5t94.5 -46.5t106 47zM257 717q20 7 50 11t53 4
q-8 -36 -29 -69t-50 -56.5t-60 -31.5h-5z" />
    <glyph glyph-name="acircumflex" unicode="&#xe2;" horiz-adv-x="507" 
d="M363.5 501q40.5 -7 78.5 -20v-481h-79l-5 66q-44 -78 -130 -78q-90 0 -141.5 64.5t-51.5 193.5q0 125 58.5 193.5t179.5 68.5q50 0 90.5 -7zM356 106v321q-40 10 -85 10q-79 0 -113.5 -49.5t-34.5 -139.5q0 -96 32.5 -142.5t94.5 -46.5t106 47zM399 581h-26q-31 6 -54 25
t-57 64q-34 -43 -58 -63t-54 -26h-23l92 146q17 4 44 4q24 0 41 -3z" />
    <glyph glyph-name="atilde" unicode="&#xe3;" horiz-adv-x="507" 
d="M363.5 501q40.5 -7 78.5 -20v-481h-79l-5 66q-44 -78 -130 -78q-90 0 -141.5 64.5t-51.5 193.5q0 125 58.5 193.5t179.5 68.5q50 0 90.5 -7zM356 106v321q-40 10 -85 10q-79 0 -113.5 -49.5t-34.5 -139.5q0 -96 32.5 -142.5t94.5 -46.5t106 47zM288.5 599.5
q-16.5 9.5 -41.5 27.5q-5 3 -11.5 8t-13.5 9t-11 4q-8 0 -11.5 -6t-3.5 -20v-32h-52v41q0 74 56 74q17 0 35 -10t40 -27q3 -2 11.5 -8.5t14.5 -9.5t10 -3q16 0 16 25v33h52v-43q0 -38 -15 -55t-43 -17q-16 0 -32.5 9.5z" />
    <glyph glyph-name="adieresis" unicode="&#xe4;" horiz-adv-x="507" 
d="M363.5 501q40.5 -7 78.5 -20v-481h-79l-5 66q-44 -78 -130 -78q-90 0 -141.5 64.5t-51.5 193.5q0 125 58.5 193.5t179.5 68.5q50 0 90.5 -7zM356 106v321q-40 10 -85 10q-79 0 -113.5 -49.5t-34.5 -139.5q0 -96 32.5 -142.5t94.5 -46.5t106 47zM138.5 618.5
q-14.5 15.5 -14.5 38.5q0 24 14.5 38.5t37.5 14.5t37 -14.5t14 -38.5t-14 -39t-37 -15t-37.5 15.5zM312.5 618q-14.5 15 -14.5 39t14.5 38.5t37.5 14.5t37.5 -14.5t14.5 -38.5t-14.5 -39t-37.5 -15t-37.5 15z" />
    <glyph glyph-name="aring" unicode="&#xe5;" horiz-adv-x="507" 
d="M363.5 501q40.5 -7 78.5 -20v-481h-79l-5 66q-44 -78 -130 -78q-90 0 -141.5 64.5t-51.5 193.5q0 125 58.5 193.5t179.5 68.5q50 0 90.5 -7zM356 106v321q-40 10 -85 10q-79 0 -113.5 -49.5t-34.5 -139.5q0 -96 32.5 -142.5t94.5 -46.5t106 47zM211 579q-24 13 -38 36
t-14 53t14 53t38 36t53 13t52.5 -13t37.5 -36.5t14 -52.5q0 -30 -13.5 -53t-37.5 -36t-53 -13t-53 13zM301 630.5q14 15.5 14 37.5t-14 37.5t-37 15.5t-37 -15t-14 -38q0 -22 14 -37.5t37 -15.5t37 15.5z" />
    <glyph glyph-name="ae" unicode="&#xe6;" horiz-adv-x="788" 
d="M744.5 256q-1.5 -17 -3.5 -27h-324q4 -90 43.5 -130t116.5 -40q81 0 152 42q-2 -20 -5.5 -42t-7.5 -37q-31 -15 -67.5 -24.5t-76.5 -9.5q-130 0 -192 78q-29 -37 -75 -57.5t-106 -20.5q-48 0 -85.5 17t-58 49t-20.5 76q0 54 26 89t84.5 54.5t157.5 23.5l27 1q1 2 1 5l1 6
q2 26 2 36q0 49 -28.5 71t-88.5 22q-38 0 -77.5 -10.5t-74.5 -28.5q2 47 8 73q30 16 72.5 26t91.5 10q114 0 156 -59q27 28 65.5 43.5t87.5 15.5q67 0 111.5 -27.5t66.5 -76.5t22 -114q0 -17 -1.5 -34zM456.5 400.5q-31.5 -36.5 -38.5 -104.5h240q-1 65 -29 103t-86 38
q-55 0 -86.5 -36.5zM292 74.5q36 16.5 58 43.5q-19 46 -22 113l-25 -1q-71 -3 -111 -14.5t-55.5 -31.5t-15.5 -51q0 -36 24 -55.5t66 -19.5q45 0 81 16.5z" />
    <glyph glyph-name="ccedilla" unicode="&#xe7;" horiz-adv-x="405" 
d="M137 146q18 -42 52 -64.5t82 -22.5q26 0 54 7t50 19q-2 -40 -11 -74q-15 -9 -40.5 -15t-49.5 -8l-12 -36q38 -10 55.5 -28t17.5 -48q0 -38 -25.5 -60t-74.5 -22q-34 0 -64 12q1 21 8 47q30 -10 52 -10t34 8.5t12 24.5q0 19 -19.5 28.5t-62.5 10.5l24 76q-88 12 -138 77.5
t-50 179.5q0 123 59 191.5t176 68.5q67 0 110 -20q0 -16 -2.5 -35.5t-5.5 -34.5q-23 9 -49.5 13t-49.5 4q-77 0 -113.5 -48t-36.5 -141q0 -58 18 -100z" />
    <glyph glyph-name="egrave" unicode="&#xe8;" horiz-adv-x="491" 
d="M447.5 250q-1.5 -19 -3.5 -29h-324q7 -86 47 -124t116 -38q81 0 149 41q-2 -19 -5.5 -41t-7.5 -37q-57 -34 -146 -34q-120 0 -181 69t-61 195q0 74 23.5 131.5t72.5 91t121 33.5q100 0 150.5 -60t50.5 -162q0 -17 -1.5 -36zM159 399q-32 -38 -38 -108h240
q-1 69 -28.5 107.5t-87.5 38.5q-54 0 -86 -38zM297 575q-32 8 -60.5 31.5t-49.5 56t-30 69.5q23 0 53 -4t50 -11l41 -142h-4z" />
    <glyph glyph-name="eacute" unicode="&#xe9;" horiz-adv-x="491" 
d="M447.5 250q-1.5 -19 -3.5 -29h-324q7 -86 47 -124t116 -38q81 0 149 41q-2 -19 -5.5 -41t-7.5 -37q-57 -34 -146 -34q-120 0 -181 69t-61 195q0 74 23.5 131.5t72.5 91t121 33.5q100 0 150.5 -60t50.5 -162q0 -17 -1.5 -36zM159 399q-32 -38 -38 -108h240
q-1 69 -28.5 107.5t-87.5 38.5q-54 0 -86 -38zM240 717q20 7 50 11t53 4q-8 -36 -29 -69t-50 -56.5t-60 -31.5h-5z" />
    <glyph glyph-name="ecircumflex" unicode="&#xea;" horiz-adv-x="491" 
d="M447.5 250q-1.5 -19 -3.5 -29h-324q7 -86 47 -124t116 -38q81 0 149 41q-2 -19 -5.5 -41t-7.5 -37q-57 -34 -146 -34q-120 0 -181 69t-61 195q0 74 23.5 131.5t72.5 91t121 33.5q100 0 150.5 -60t50.5 -162q0 -17 -1.5 -36zM159 399q-32 -38 -38 -108h240
q-1 69 -28.5 107.5t-87.5 38.5q-54 0 -86 -38zM382 581h-26q-31 6 -54 25t-57 64q-34 -43 -58 -63t-54 -26h-23l92 146q17 4 44 4q24 0 41 -3z" />
    <glyph glyph-name="edieresis" unicode="&#xeb;" horiz-adv-x="491" 
d="M447.5 250q-1.5 -19 -3.5 -29h-324q7 -86 47 -124t116 -38q81 0 149 41q-2 -19 -5.5 -41t-7.5 -37q-57 -34 -146 -34q-120 0 -181 69t-61 195q0 74 23.5 131.5t72.5 91t121 33.5q100 0 150.5 -60t50.5 -162q0 -17 -1.5 -36zM159 399q-32 -38 -38 -108h240
q-1 69 -28.5 107.5t-87.5 38.5q-54 0 -86 -38zM121.5 618.5q-14.5 15.5 -14.5 38.5q0 24 14.5 38.5t37.5 14.5t37 -14.5t14 -38.5t-14 -39t-37 -15t-37.5 15.5zM295.5 618q-14.5 15 -14.5 39t14.5 38.5t37.5 14.5t37.5 -14.5t14.5 -38.5t-14.5 -39t-37.5 -15t-37.5 15z" />
    <glyph glyph-name="igrave" unicode="&#xec;" horiz-adv-x="215" 
d="M64 496h86v-496h-86v496zM158 575q-32 8 -60.5 31.5t-49.5 56t-30 69.5q23 0 53 -4t50 -11l41 -142h-4z" />
    <glyph glyph-name="iacute" unicode="&#xed;" horiz-adv-x="215" 
d="M64 496h86v-496h-86v496zM101 717q20 7 50 11t53 4q-8 -36 -29 -69t-50 -56.5t-60 -31.5h-5z" />
    <glyph glyph-name="icircumflex" unicode="&#xee;" horiz-adv-x="215" 
d="M64 496h86v-496h-86v496zM223 579h-25q-22 5 -43 26.5t-49 61.5q-30 -45 -49.5 -64t-44.5 -24h-22l77 144q16 4 39 4t39 -3z" />
    <glyph glyph-name="idieresis" unicode="&#xef;" horiz-adv-x="215" 
d="M64 496h86v-496h-86v496zM-3 619q-14 15 -14 38t14 37.5t37 14.5q22 0 35.5 -14.5t13.5 -37.5t-13.5 -38t-35.5 -15q-23 0 -37 15zM142 619q-14 15 -14 38t14 37.5t37 14.5q22 0 36 -14.5t14 -37.5q0 -24 -14 -38.5t-36 -14.5q-23 0 -37 15z" />
    <glyph glyph-name="eth" unicode="&#xf0;" horiz-adv-x="497" 
d="M426 458.5q33 -86.5 33 -185.5q0 -138 -55 -211.5t-162 -73.5q-66 0 -112.5 28t-71 81t-24.5 127q0 76 24.5 129.5t70 81.5t107.5 28q75 0 119 -44q-28 88 -93 147l-135 -79q0 32 5 72l79 46q-45 28 -95 44q7 15 20.5 32t25.5 26q65 -20 121 -59l128 75q0 -31 -7 -73
l-73 -43q62 -62 95 -148.5zM344 111.5q32 52.5 32 167.5q0 40 -6 76q-54 36 -117 36q-66 0 -99.5 -39.5t-33.5 -124.5q0 -81 31.5 -124.5t93.5 -43.5q67 0 99 52.5z" />
    <glyph glyph-name="ntilde" unicode="&#xf1;" horiz-adv-x="513" 
d="M406.5 462.5q47.5 -45.5 47.5 -130.5v-332h-86v321q0 41 -11.5 66.5t-38 38t-70.5 12.5q-46 0 -98 -13v-425h-86v478q101 30 186 30q109 0 156.5 -45.5zM294.5 599.5q-16.5 9.5 -41.5 27.5q-5 3 -11.5 8t-13.5 9t-11 4q-8 0 -11.5 -6t-3.5 -20v-32h-52v41q0 74 56 74
q17 0 35 -10t40 -27q3 -2 11.5 -8.5t14.5 -9.5t10 -3q16 0 16 25v33h52v-43q0 -38 -15 -55t-43 -17q-16 0 -32.5 9.5z" />
    <glyph glyph-name="ograve" unicode="&#xf2;" horiz-adv-x="509" 
d="M133 19.5q-50 31.5 -76 90t-26 138.5q0 81 25.5 139.5t75.5 89.5t122 31t122 -31.5t76 -89.5t26 -139t-26 -139t-76.5 -89.5t-121.5 -31.5t-121 31.5zM356 108q34 49 34 140t-34 140t-102 49t-101.5 -48.5t-33.5 -140.5t33.5 -140.5t101.5 -48.5t102 49zM305 575
q-32 8 -60.5 31.5t-49.5 56t-30 69.5q23 0 53 -4t50 -11l41 -142h-4z" />
    <glyph glyph-name="oacute" unicode="&#xf3;" horiz-adv-x="509" 
d="M133 19.5q-50 31.5 -76 90t-26 138.5q0 81 25.5 139.5t75.5 89.5t122 31t122 -31.5t76 -89.5t26 -139t-26 -139t-76.5 -89.5t-121.5 -31.5t-121 31.5zM356 108q34 49 34 140t-34 140t-102 49t-101.5 -48.5t-33.5 -140.5t33.5 -140.5t101.5 -48.5t102 49zM248 717
q20 7 50 11t53 4q-8 -36 -29 -69t-50 -56.5t-60 -31.5h-5z" />
    <glyph glyph-name="ocircumflex" unicode="&#xf4;" horiz-adv-x="509" 
d="M133 19.5q-50 31.5 -76 90t-26 138.5q0 81 25.5 139.5t75.5 89.5t122 31t122 -31.5t76 -89.5t26 -139t-26 -139t-76.5 -89.5t-121.5 -31.5t-121 31.5zM356 108q34 49 34 140t-34 140t-102 49t-101.5 -48.5t-33.5 -140.5t33.5 -140.5t101.5 -48.5t102 49zM390 581h-26
q-31 6 -54 25t-57 64q-34 -43 -58 -63t-54 -26h-23l92 146q17 4 44 4q24 0 41 -3z" />
    <glyph glyph-name="otilde" unicode="&#xf5;" horiz-adv-x="509" 
d="M133 19.5q-50 31.5 -76 90t-26 138.5q0 81 25.5 139.5t75.5 89.5t122 31t122 -31.5t76 -89.5t26 -139t-26 -139t-76.5 -89.5t-121.5 -31.5t-121 31.5zM356 108q34 49 34 140t-34 140t-102 49t-101.5 -48.5t-33.5 -140.5t33.5 -140.5t101.5 -48.5t102 49zM279.5 599.5
q-16.5 9.5 -41.5 27.5q-5 3 -11.5 8t-13.5 9t-11 4q-8 0 -11.5 -6t-3.5 -20v-32h-52v41q0 74 56 74q17 0 35 -10t40 -27q3 -2 11.5 -8.5t14.5 -9.5t10 -3q16 0 16 25v33h52v-43q0 -38 -15 -55t-43 -17q-16 0 -32.5 9.5z" />
    <glyph glyph-name="odieresis" unicode="&#xf6;" horiz-adv-x="509" 
d="M133 19.5q-50 31.5 -76 90t-26 138.5q0 81 25.5 139.5t75.5 89.5t122 31t122 -31.5t76 -89.5t26 -139t-26 -139t-76.5 -89.5t-121.5 -31.5t-121 31.5zM356 108q34 49 34 140t-34 140t-102 49t-101.5 -48.5t-33.5 -140.5t33.5 -140.5t101.5 -48.5t102 49zM129.5 618.5
q-14.5 15.5 -14.5 38.5q0 24 14.5 38.5t37.5 14.5t37 -14.5t14 -38.5t-14 -39t-37 -15t-37.5 15.5zM303.5 618q-14.5 15 -14.5 39t14.5 38.5t37.5 14.5t37.5 -14.5t14.5 -38.5t-14.5 -39t-37.5 -15t-37.5 15z" />
    <glyph glyph-name="divide" unicode="&#xf7;" 
d="M233.5 444.5q-16.5 16.5 -16.5 39.5t16.5 39.5t39.5 16.5t39.5 -16.5t16.5 -39.5t-16.5 -39.5t-39.5 -16.5t-39.5 16.5zM85 374h389q-1 -26 -9 -73h-389q1 29 9 73zM233.5 152.5q-16.5 16.5 -16.5 39.5t16.5 39.5t39.5 16.5t39.5 -16.5t16.5 -39.5t-16.5 -39.5
t-39.5 -16.5t-39.5 16.5z" />
    <glyph glyph-name="oslash" unicode="&#xf8;" horiz-adv-x="513" 
d="M469 351q13 -46 13 -103q0 -80 -26.5 -138.5t-77.5 -90t-122 -31.5q-72 0 -122 32l-58 -81q-15 18 -22.5 29.5t-12.5 27.5l46 65q-27 33 -41.5 80.5t-14.5 106.5q0 81 26 139t76.5 89.5t122.5 31.5q76 0 128 -35l59 82q27 -40 32 -62l-45 -63q26 -33 39 -79zM139 133
l200 277q-31 27 -83 27q-69 0 -103 -48.5t-34 -140.5q0 -69 20 -115zM358.5 108q34.5 49 34.5 140q0 63 -17 108l-197 -274q31 -23 77 -23q68 0 102.5 49z" />
    <glyph glyph-name="ugrave" unicode="&#xf9;" horiz-adv-x="513" 
d="M449 496v-478q-101 -30 -185 -30q-110 0 -157.5 45.5t-47.5 130.5v332h86v-321q0 -61 27.5 -89.5t92.5 -28.5q46 0 98 13v426h86zM310 575q-32 8 -60.5 31.5t-49.5 56t-30 69.5q23 0 53 -4t50 -11l41 -142h-4z" />
    <glyph glyph-name="uacute" unicode="&#xfa;" horiz-adv-x="513" 
d="M449 496v-478q-101 -30 -185 -30q-110 0 -157.5 45.5t-47.5 130.5v332h86v-321q0 -61 27.5 -89.5t92.5 -28.5q46 0 98 13v426h86zM253 717q20 7 50 11t53 4q-8 -36 -29 -69t-50 -56.5t-60 -31.5h-5z" />
    <glyph glyph-name="ucircumflex" unicode="&#xfb;" horiz-adv-x="513" 
d="M449 496v-478q-101 -30 -185 -30q-110 0 -157.5 45.5t-47.5 130.5v332h86v-321q0 -61 27.5 -89.5t92.5 -28.5q46 0 98 13v426h86zM395 581h-26q-31 6 -54 25t-57 64q-34 -43 -58 -63t-54 -26h-23l92 146q17 4 44 4q24 0 41 -3z" />
    <glyph glyph-name="udieresis" unicode="&#xfc;" horiz-adv-x="513" 
d="M449 496v-478q-101 -30 -185 -30q-110 0 -157.5 45.5t-47.5 130.5v332h86v-321q0 -61 27.5 -89.5t92.5 -28.5q46 0 98 13v426h86zM134.5 618.5q-14.5 15.5 -14.5 38.5q0 24 14.5 38.5t37.5 14.5t37 -14.5t14 -38.5t-14 -39t-37 -15t-37.5 15.5zM308.5 618
q-14.5 15 -14.5 39t14.5 38.5t37.5 14.5t37.5 -14.5t14.5 -38.5t-14.5 -39t-37.5 -15t-37.5 15z" />
    <glyph glyph-name="yacute" unicode="&#xfd;" horiz-adv-x="456" 
d="M458 496l-195 -561q-27 -79 -69 -119t-107 -40q-25 0 -44 6q0 44 5 72q16 -4 30 -4q29 0 50.5 11t39 38t31.5 74l-200 523h91l148 -417l133 417h87zM223 717q20 7 50 11t53 4q-8 -36 -29 -69t-50 -56.5t-60 -31.5h-5z" />
    <glyph glyph-name="thorn" unicode="&#xfe;" horiz-adv-x="511" 
d="M416.5 442q60.5 -66 60.5 -188q0 -126 -62 -196t-186 -70q-44 0 -79 7v-207h-86v904q36 13 86 13v-208q47 11 92 11q114 0 174.5 -66zM351.5 110q37.5 51 37.5 140q0 92 -36.5 139.5t-115.5 47.5q-45 0 -87 -14v-352q39 -12 84 -12q80 0 117.5 51z" />
    <glyph glyph-name="ydieresis" unicode="&#xff;" horiz-adv-x="456" 
d="M458 496l-195 -561q-27 -79 -69 -119t-107 -40q-25 0 -44 6q0 44 5 72q16 -4 30 -4q29 0 50.5 11t39 38t31.5 74l-200 523h91l148 -417l133 417h87zM104.5 618.5q-14.5 15.5 -14.5 38.5q0 24 14.5 38.5t37.5 14.5t37 -14.5t14 -38.5t-14 -39t-37 -15t-37.5 15.5z
M278.5 618q-14.5 15 -14.5 39t14.5 38.5t37.5 14.5t37.5 -14.5t14.5 -38.5t-14.5 -39t-37.5 -15t-37.5 15z" />
    <glyph glyph-name="Amacron" unicode="&#x100;" horiz-adv-x="560" 
d="M418 166h-280l-53 -166h-85l224 685q19 5 50.5 8.5t58.5 3.5l227 -697h-90zM394 244l-114 368l-117 -368h231zM160 855h245q-2 -37 -9 -64h-245q2 37 9 64z" />
    <glyph glyph-name="amacron" unicode="&#x101;" horiz-adv-x="507" 
d="M363.5 501q40.5 -7 78.5 -20v-481h-79l-5 66q-44 -78 -130 -78q-90 0 -141.5 64.5t-51.5 193.5q0 125 58.5 193.5t179.5 68.5q50 0 90.5 -7zM356 106v321q-40 10 -85 10q-79 0 -113.5 -49.5t-34.5 -139.5q0 -96 32.5 -142.5t94.5 -46.5t106 47zM146 690h243
q-4 -42 -8 -65h-244q2 34 9 65z" />
    <glyph glyph-name="Abreve" unicode="&#x102;" horiz-adv-x="560" 
d="M418 166h-280l-53 -166h-85l224 685q19 5 50.5 8.5t58.5 3.5l227 -697h-90zM394 244l-114 368l-117 -368h231zM181.5 791q-35.5 31 -44.5 85q14 2 31.5 3.5t32.5 1.5q15 -62 78 -62t79 62q14 0 31 -1.5t31 -3.5q-8 -54 -43 -85t-98 -31q-62 0 -97.5 31z" />
    <glyph glyph-name="abreve" unicode="&#x103;" horiz-adv-x="507" 
d="M363.5 501q40.5 -7 78.5 -20v-481h-79l-5 66q-44 -78 -130 -78q-90 0 -141.5 64.5t-51.5 193.5q0 125 58.5 193.5t179.5 68.5q50 0 90.5 -7zM356 106v321q-40 10 -85 10q-79 0 -113.5 -49.5t-34.5 -139.5q0 -96 32.5 -142.5t94.5 -46.5t106 47zM166.5 614
q-33.5 37 -41.5 97q28 7 61 7q6 -37 24.5 -59t52.5 -22t52.5 21.5t24.5 59.5q37 0 61 -7q-8 -59 -42.5 -96.5t-95.5 -37.5q-63 0 -96.5 37z" />
    <glyph glyph-name="Aogonek" unicode="&#x104;" horiz-adv-x="560" 
d="M562 -149q-1 -23 -7 -58q-22 -9 -52 -9q-49 0 -77 26.5t-28 74.5q0 64 71 118l-51 163h-280l-53 -166h-85l224 685q19 5 50.5 8.5t58.5 3.5l227 -697h-24q-37 -22 -53.5 -50t-16.5 -53q0 -27 13.5 -41t37.5 -14q23 0 45 9zM394 244l-114 368l-117 -368h231z" />
    <glyph glyph-name="aogonek" unicode="&#x105;" horiz-adv-x="507" 
d="M453 -149q-2 -25 -8 -58q-22 -9 -52 -9q-49 0 -77 26.5t-28 74.5q0 66 75 121l-5 60q-44 -78 -130 -78q-90 0 -141.5 64.5t-51.5 193.5q0 125 58.5 193.5t179.5 68.5q50 0 90.5 -7t78.5 -20v-481h-15q-37 -22 -53.5 -49.5t-16.5 -53.5q0 -27 13.5 -41t36.5 -14q24 0 46 9
zM356 106v321q-40 10 -85 10q-79 0 -113.5 -49.5t-34.5 -139.5q0 -96 32.5 -142.5t94.5 -46.5t106 47z" />
    <glyph glyph-name="Cacute" unicode="&#x106;" horiz-adv-x="534" 
d="M176.5 30.5q-69.5 45.5 -105 127t-35.5 188.5q0 108 36 190t104.5 126.5t162.5 44.5q102 0 159 -33q-2 -25 -5 -42.5t-9 -33.5q-60 31 -140 31q-65 0 -114 -32.5t-75.5 -96.5t-26.5 -155q0 -89 27 -152.5t77.5 -96t119.5 -32.5q43 0 80.5 8t66.5 23q-3 -44 -14 -84
q-67 -26 -139 -26q-100 0 -169.5 45.5zM336 877q9 2 24.5 3.5t31.5 1.5q36 0 60 -8q-29 -43 -72.5 -74.5t-90.5 -36.5h-17z" />
    <glyph glyph-name="cacute" unicode="&#x107;" horiz-adv-x="405" 
d="M140 17q-52 29 -80.5 87t-28.5 144q0 123 59 191.5t176 68.5q67 0 110 -20q0 -16 -2.5 -35.5t-5.5 -34.5q-23 9 -49.5 13t-49.5 4q-77 0 -113.5 -48t-36.5 -141q0 -58 18 -100t52 -64.5t82 -22.5q26 0 54 7t50 19q-2 -40 -11 -74q-18 -10 -47 -16.5t-55 -6.5
q-70 0 -122 29zM243 717q20 7 50 11t53 4q-8 -36 -29 -69t-50 -56.5t-60 -31.5h-5z" />
    <glyph glyph-name="Ccircumflex" unicode="&#x108;" horiz-adv-x="534" 
d="M176.5 30.5q-69.5 45.5 -105 127t-35.5 188.5q0 108 36 190t104.5 126.5t162.5 44.5q102 0 159 -33q-2 -25 -5 -42.5t-9 -33.5q-60 31 -140 31q-65 0 -114 -32.5t-75.5 -96.5t-26.5 -155q0 -89 27 -152.5t77.5 -96t119.5 -32.5q43 0 80.5 8t66.5 23q-3 -44 -14 -84
q-67 -26 -139 -26q-100 0 -169.5 45.5zM282 884q24 6 53 6t53 -6l93 -121h-31q-33 5 -60 24t-55 52q-56 -66 -119 -76h-28z" />
    <glyph glyph-name="ccircumflex" unicode="&#x109;" horiz-adv-x="405" 
d="M140 17q-52 29 -80.5 87t-28.5 144q0 123 59 191.5t176 68.5q67 0 110 -20q0 -16 -2.5 -35.5t-5.5 -34.5q-23 9 -49.5 13t-49.5 4q-77 0 -113.5 -48t-36.5 -141q0 -58 18 -100t52 -64.5t82 -22.5q26 0 54 7t50 19q-2 -40 -11 -74q-18 -10 -47 -16.5t-55 -6.5
q-70 0 -122 29zM398 581h-26q-31 6 -54 25t-57 64q-34 -43 -58 -63t-54 -26h-23l92 146q17 4 44 4q24 0 41 -3z" />
    <glyph glyph-name="Cdotaccent" unicode="&#x10a;" horiz-adv-x="534" 
d="M176.5 30.5q-69.5 45.5 -105 127t-35.5 188.5q0 108 36 190t104.5 126.5t162.5 44.5q102 0 159 -33q-2 -25 -5 -42.5t-9 -33.5q-60 31 -140 31q-65 0 -114 -32.5t-75.5 -96.5t-26.5 -155q0 -89 27 -152.5t77.5 -96t119.5 -32.5q43 0 80.5 8t66.5 23q-3 -44 -14 -84
q-67 -26 -139 -26q-100 0 -169.5 45.5zM295.5 781q-14.5 15 -14.5 39t15 38.5t38 14.5t37.5 -14.5t14.5 -38.5t-14.5 -39t-37.5 -15q-24 0 -38.5 15z" />
    <glyph glyph-name="cdotaccent" unicode="&#x10b;" horiz-adv-x="405" 
d="M140 17q-52 29 -80.5 87t-28.5 144q0 123 59 191.5t176 68.5q67 0 110 -20q0 -16 -2.5 -35.5t-5.5 -34.5q-23 9 -49.5 13t-49.5 4q-77 0 -113.5 -48t-36.5 -141q0 -58 18 -100t52 -64.5t82 -22.5q26 0 54 7t50 19q-2 -40 -11 -74q-18 -10 -47 -16.5t-55 -6.5
q-70 0 -122 29zM209.5 615.5q-15.5 15.5 -15.5 40.5t15.5 40.5t39.5 15.5t39.5 -15.5t15.5 -40.5q0 -24 -16 -40t-39 -16q-24 0 -39.5 15.5z" />
    <glyph glyph-name="Ccaron" unicode="&#x10c;" horiz-adv-x="534" 
d="M176.5 30.5q-69.5 45.5 -105 127t-35.5 188.5q0 108 36 190t104.5 126.5t162.5 44.5q102 0 159 -33q-2 -25 -5 -42.5t-9 -33.5q-60 31 -140 31q-65 0 -114 -32.5t-75.5 -96.5t-26.5 -155q0 -89 27 -152.5t77.5 -96t119.5 -32.5q43 0 80.5 8t66.5 23q-3 -44 -14 -84
q-67 -26 -139 -26q-100 0 -169.5 45.5zM386 766q-20 -5 -53 -5t-53 5l-93 122h31q33 -6 60.5 -25t54.5 -52q57 68 119 77h28z" />
    <glyph glyph-name="ccaron" unicode="&#x10d;" horiz-adv-x="405" 
d="M140 17q-52 29 -80.5 87t-28.5 144q0 123 59 191.5t176 68.5q67 0 110 -20q0 -16 -2.5 -35.5t-5.5 -34.5q-23 9 -49.5 13t-49.5 4q-77 0 -113.5 -48t-36.5 -141q0 -58 18 -100t52 -64.5t82 -22.5q26 0 54 7t50 19q-2 -40 -11 -74q-18 -10 -47 -16.5t-55 -6.5
q-70 0 -122 29zM385 730l-92 -147q-17 -4 -43 -4q-27 0 -42 4l-95 147h26q31 -6 54 -25.5t57 -64.5q34 43 58 63t54 27h23z" />
    <glyph glyph-name="Dcaron" unicode="&#x10e;" horiz-adv-x="625" 
d="M509.5 610.5q79.5 -96.5 79.5 -258.5q0 -109 -36 -187.5t-109.5 -121.5t-183.5 -43h-183v690q80 17 180 17q173 0 252.5 -96.5zM498 353q0 278 -241 278q-47 0 -92 -6v-548h98q235 0 235 276zM338 766q-20 -5 -53 -5t-53 5l-93 122h31q33 -6 60.5 -25t54.5 -52
q57 68 119 77h28z" />
    <glyph glyph-name="dcaron" unicode="&#x10f;" horiz-adv-x="512" 
d="M447 705v-705h-80l-5 67q-21 -39 -52 -59t-79 -20q-60 0 -104 28.5t-68.5 86t-24.5 141.5q0 126 58.5 195t182.5 69q47 0 86 -6v190q36 13 86 13zM361 107v319q-39 11 -85 11q-82 0 -118 -50t-36 -141q0 -93 33.5 -140t99.5 -47q63 0 106 48zM525 693q23 6 42.5 9.5
t40.5 3.5q-4 -57 -22.5 -102.5t-49.5 -76.5h-22q11 76 11 166z" />
    <glyph glyph-name="Dcroat" unicode="&#x110;" horiz-adv-x="621" 
d="M505.5 610.5q79.5 -96.5 79.5 -258.5q0 -109 -36 -187.5t-109.5 -121.5t-183.5 -43h-183v319h-62q0 3 2.5 25.5t7.5 39.5h52v306q80 17 180 17q173 0 252.5 -96.5zM494 353q0 278 -241 278q-47 0 -92 -6v-241h182q-2 -33 -10 -65h-172v-242h98q235 0 235 276z" />
    <glyph glyph-name="dcroat" unicode="&#x111;" horiz-adv-x="512" 
d="M537 572h-90v-572h-80l-5 67q-21 -39 -52 -59t-79 -20q-60 0 -104 28.5t-68.5 86t-24.5 141.5q0 126 58.5 195t182.5 69q47 0 86 -6v70h-144q2 35 9 59h135v61q36 13 86 13v-74h99q-2 -29 -9 -59zM361 107v319q-39 11 -85 11q-82 0 -118 -50t-36 -141q0 -93 33.5 -140
t99.5 -47q63 0 106 48z" />
    <glyph glyph-name="Emacron" unicode="&#x112;" horiz-adv-x="505" 
d="M165 79h309q-2 -47 -9 -79h-388v692h397q-1 -34 -9 -79h-300v-223h279q0 -31 -8 -79h-271v-232zM165 855h245q-2 -37 -9 -64h-245q2 37 9 64z" />
    <glyph glyph-name="emacron" unicode="&#x113;" horiz-adv-x="491" 
d="M447.5 250q-1.5 -19 -3.5 -29h-324q7 -86 47 -124t116 -38q81 0 149 41q-2 -19 -5.5 -41t-7.5 -37q-57 -34 -146 -34q-120 0 -181 69t-61 195q0 74 23.5 131.5t72.5 91t121 33.5q100 0 150.5 -60t50.5 -162q0 -17 -1.5 -36zM159 399q-32 -38 -38 -108h240
q-1 69 -28.5 107.5t-87.5 38.5q-54 0 -86 -38zM129 690h243q-4 -42 -8 -65h-244q2 34 9 65z" />
    <glyph glyph-name="Ebreve" unicode="&#x114;" horiz-adv-x="505" 
d="M165 79h309q-2 -47 -9 -79h-388v692h397q-1 -34 -9 -79h-300v-223h279q0 -31 -8 -79h-271v-232zM186.5 791q-35.5 31 -44.5 85q14 2 31.5 3.5t32.5 1.5q15 -62 78 -62t79 62q14 0 31 -1.5t31 -3.5q-8 -54 -43 -85t-98 -31q-62 0 -97.5 31z" />
    <glyph glyph-name="ebreve" unicode="&#x115;" horiz-adv-x="491" 
d="M447.5 250q-1.5 -19 -3.5 -29h-324q7 -86 47 -124t116 -38q81 0 149 41q-2 -19 -5.5 -41t-7.5 -37q-57 -34 -146 -34q-120 0 -181 69t-61 195q0 74 23.5 131.5t72.5 91t121 33.5q100 0 150.5 -60t50.5 -162q0 -17 -1.5 -36zM159 399q-32 -38 -38 -108h240
q-1 69 -28.5 107.5t-87.5 38.5q-54 0 -86 -38zM149.5 614q-33.5 37 -41.5 97q28 7 61 7q6 -37 24.5 -59t52.5 -22t52.5 21.5t24.5 59.5q37 0 61 -7q-8 -59 -42.5 -96.5t-95.5 -37.5q-63 0 -96.5 37z" />
    <glyph glyph-name="Edotaccent" unicode="&#x116;" horiz-adv-x="505" 
d="M165 79h309q-2 -47 -9 -79h-388v692h397q-1 -34 -9 -79h-300v-223h279q0 -31 -8 -79h-271v-232zM244.5 781q-14.5 15 -14.5 39t15 38.5t38 14.5t37.5 -14.5t14.5 -38.5t-14.5 -39t-37.5 -15q-24 0 -38.5 15z" />
    <glyph glyph-name="edotaccent" unicode="&#x117;" horiz-adv-x="491" 
d="M447.5 250q-1.5 -19 -3.5 -29h-324q7 -86 47 -124t116 -38q81 0 149 41q-2 -19 -5.5 -41t-7.5 -37q-57 -34 -146 -34q-120 0 -181 69t-61 195q0 74 23.5 131.5t72.5 91t121 33.5q100 0 150.5 -60t50.5 -162q0 -17 -1.5 -36zM159 399q-32 -38 -38 -108h240
q-1 69 -28.5 107.5t-87.5 38.5q-54 0 -86 -38zM206.5 615.5q-15.5 15.5 -15.5 40.5t15.5 40.5t39.5 15.5t39.5 -15.5t15.5 -40.5q0 -24 -16 -40t-39 -16q-24 0 -39.5 15.5z" />
    <glyph glyph-name="Eogonek" unicode="&#x118;" horiz-adv-x="505" 
d="M165 79h309q-2 -47 -9 -79h-40q-37 -22 -53.5 -50t-16.5 -53q0 -27 13.5 -41t36.5 -14t46 9q0 -4 -2 -20.5t-6 -37.5q-22 -9 -51 -9q-49 0 -77 26.5t-28 74.5q0 64 67 115h-277v692h397q-1 -34 -9 -79h-300v-223h279q0 -31 -8 -79h-271v-232z" />
    <glyph glyph-name="eogonek" unicode="&#x119;" horiz-adv-x="491" 
d="M447.5 250q-1.5 -19 -3.5 -29h-324q7 -86 47 -124t116 -38q81 0 149 41q-2 -19 -5.5 -41t-7.5 -37q-25 -14 -58 -24q-36 -21 -51.5 -48t-15.5 -53q0 -27 13.5 -41t36.5 -14q24 0 46 9q-2 -25 -8 -58q-22 -9 -52 -9q-49 0 -77 26.5t-28 74.5q0 55 52 103h-4
q-120 0 -181 69t-61 195q0 74 23.5 131.5t72.5 91t121 33.5q100 0 150.5 -60t50.5 -162q0 -17 -1.5 -36zM159 399q-32 -38 -38 -108h240q-1 69 -28.5 107.5t-87.5 38.5q-54 0 -86 -38z" />
    <glyph glyph-name="Ecaron" unicode="&#x11a;" horiz-adv-x="505" 
d="M165 79h309q-2 -47 -9 -79h-388v692h397q-1 -34 -9 -79h-300v-223h279q0 -31 -8 -79h-271v-232zM335 766q-20 -5 -53 -5t-53 5l-93 122h31q33 -6 60.5 -25t54.5 -52q57 68 119 77h28z" />
    <glyph glyph-name="ecaron" unicode="&#x11b;" horiz-adv-x="491" 
d="M447.5 250q-1.5 -19 -3.5 -29h-324q7 -86 47 -124t116 -38q81 0 149 41q-2 -19 -5.5 -41t-7.5 -37q-57 -34 -146 -34q-120 0 -181 69t-61 195q0 74 23.5 131.5t72.5 91t121 33.5q100 0 150.5 -60t50.5 -162q0 -17 -1.5 -36zM159 399q-32 -38 -38 -108h240
q-1 69 -28.5 107.5t-87.5 38.5q-54 0 -86 -38zM382 730l-92 -147q-17 -4 -43 -4q-27 0 -42 4l-95 147h26q31 -6 54 -25.5t57 -64.5q34 43 58 63t54 27h23z" />
    <glyph glyph-name="Gcircumflex" unicode="&#x11c;" horiz-adv-x="608" 
d="M548 355v-333q-39 -17 -91 -27t-102 -10q-105 0 -176.5 45t-107 126.5t-35.5 191.5q0 115 38.5 195t112.5 122t180 42q51 0 96.5 -8t80.5 -22q-3 -33 -15 -79q-76 31 -162 31q-76 0 -130 -32t-82 -94.5t-28 -153.5q0 -90 26.5 -154t78.5 -97.5t126 -33.5q53 0 101 12v279
h89zM301 884q24 6 53 6t53 -6l93 -121h-31q-33 5 -60 24t-55 52q-56 -66 -119 -76h-28z" />
    <glyph glyph-name="gcircumflex" unicode="&#x11d;" horiz-adv-x="512" 
d="M447 481v-473q0 -112 -57 -172t-174 -60q-79 0 -142 31q0 36 7 75q31 -15 67 -23.5t66 -8.5q72 0 109.5 38t37.5 111v65q-20 -37 -52 -56.5t-78 -19.5q-60 0 -104 28.5t-68.5 86t-24.5 141.5q0 126 58.5 195t182.5 69q94 0 172 -27zM361 107v319q-39 11 -85 11
q-82 0 -118 -50t-36 -141q0 -93 33.5 -140t99.5 -47q63 0 106 48zM397 581h-26q-31 6 -54 25t-57 64q-34 -43 -58 -63t-54 -26h-23l92 146q17 4 44 4q24 0 41 -3z" />
    <glyph glyph-name="Gbreve" unicode="&#x11e;" horiz-adv-x="608" 
d="M548 355v-333q-39 -17 -91 -27t-102 -10q-105 0 -176.5 45t-107 126.5t-35.5 191.5q0 115 38.5 195t112.5 122t180 42q51 0 96.5 -8t80.5 -22q-3 -33 -15 -79q-76 31 -162 31q-76 0 -130 -32t-82 -94.5t-28 -153.5q0 -90 26.5 -154t78.5 -97.5t126 -33.5q53 0 101 12v279
h89zM256.5 791q-35.5 31 -44.5 85q14 2 31.5 3.5t32.5 1.5q15 -62 78 -62t79 62q14 0 31 -1.5t31 -3.5q-8 -54 -43 -85t-98 -31q-62 0 -97.5 31z" />
    <glyph glyph-name="gbreve" unicode="&#x11f;" horiz-adv-x="512" 
d="M447 481v-473q0 -112 -57 -172t-174 -60q-79 0 -142 31q0 36 7 75q31 -15 67 -23.5t66 -8.5q72 0 109.5 38t37.5 111v65q-20 -37 -52 -56.5t-78 -19.5q-60 0 -104 28.5t-68.5 86t-24.5 141.5q0 126 58.5 195t182.5 69q94 0 172 -27zM361 107v319q-39 11 -85 11
q-82 0 -118 -50t-36 -141q0 -93 33.5 -140t99.5 -47q63 0 106 48zM164.5 614q-33.5 37 -41.5 97q28 7 61 7q6 -37 24.5 -59t52.5 -22t52.5 21.5t24.5 59.5q37 0 61 -7q-8 -59 -42.5 -96.5t-95.5 -37.5q-63 0 -96.5 37z" />
    <glyph glyph-name="Gdotaccent" unicode="&#x120;" horiz-adv-x="608" 
d="M548 355v-333q-39 -17 -91 -27t-102 -10q-105 0 -176.5 45t-107 126.5t-35.5 191.5q0 115 38.5 195t112.5 122t180 42q51 0 96.5 -8t80.5 -22q-3 -33 -15 -79q-76 31 -162 31q-76 0 -130 -32t-82 -94.5t-28 -153.5q0 -90 26.5 -154t78.5 -97.5t126 -33.5q53 0 101 12v279
h89zM314.5 781q-14.5 15 -14.5 39t15 38.5t38 14.5t37.5 -14.5t14.5 -38.5t-14.5 -39t-37.5 -15q-24 0 -38.5 15z" />
    <glyph glyph-name="gdotaccent" unicode="&#x121;" horiz-adv-x="512" 
d="M447 481v-473q0 -112 -57 -172t-174 -60q-79 0 -142 31q0 36 7 75q31 -15 67 -23.5t66 -8.5q72 0 109.5 38t37.5 111v65q-20 -37 -52 -56.5t-78 -19.5q-60 0 -104 28.5t-68.5 86t-24.5 141.5q0 126 58.5 195t182.5 69q94 0 172 -27zM361 107v319q-39 11 -85 11
q-82 0 -118 -50t-36 -141q0 -93 33.5 -140t99.5 -47q63 0 106 48zM221.5 615.5q-15.5 15.5 -15.5 40.5t15.5 40.5t39.5 15.5t39.5 -15.5t15.5 -40.5q0 -24 -16 -40t-39 -16q-24 0 -39.5 15.5z" />
    <glyph glyph-name="Gcommaaccent" unicode="&#x122;" horiz-adv-x="608" 
d="M548 355v-333q-39 -17 -91 -27t-102 -10q-105 0 -176.5 45t-107 126.5t-35.5 191.5q0 115 38.5 195t112.5 122t180 42q51 0 96.5 -8t80.5 -22q-3 -33 -15 -79q-76 31 -162 31q-76 0 -130 -32t-82 -94.5t-28 -153.5q0 -90 26.5 -154t78.5 -97.5t126 -33.5q53 0 101 12v279
h89zM314 -75q23 6 42.5 9.5t40.5 3.5q-4 -57 -22.5 -102.5t-49.5 -76.5h-22q11 76 11 166z" />
    <glyph glyph-name="gcommaaccent" unicode="&#x123;" horiz-adv-x="512" 
d="M302 571q-23 -6 -42.5 -9.5t-40.5 -3.5q4 58 23 103t50 76h22q-12 -82 -12 -166zM447 481v-473q0 -112 -57 -172t-174 -60q-79 0 -142 31q0 36 7 75q31 -15 67 -23.5t66 -8.5q72 0 109.5 38t37.5 111v65q-20 -37 -52 -56.5t-78 -19.5q-60 0 -104 28.5t-68.5 86
t-24.5 141.5q0 126 58.5 195t182.5 69q94 0 172 -27zM361 107v319q-39 11 -85 11q-82 0 -118 -50t-36 -141q0 -93 33.5 -140t99.5 -47q63 0 106 48z" />
    <glyph glyph-name="Hcircumflex" unicode="&#x124;" horiz-adv-x="633" 
d="M511 696q25 4 45 4v-700h-87v313h-304v-313h-88v686q19 6 43.5 10t44.5 4v-306h304v292q17 6 42 10zM265 884q24 6 53 6t53 -6l93 -121h-31q-33 5 -60 24t-55 52q-56 -66 -119 -76h-28z" />
    <glyph glyph-name="hcircumflex" unicode="&#x125;" horiz-adv-x="513" 
d="M454 331v-331h-86v320q0 60 -26.5 88.5t-87.5 28.5q-52 0 -104 -21v-416h-86v692q35 13 86 13v-223q54 24 115 24q189 0 189 -175zM205 884q24 6 53 6t53 -6l93 -121h-31q-33 5 -60 24t-55 52q-56 -66 -119 -76h-28z" />
    <glyph glyph-name="Hbar" unicode="&#x126;" horiz-adv-x="653" 
d="M634 508h-68v-508h-87v313h-304v-313h-88v508h-76q2 41 8 65h68v113q19 6 43.5 10t44.5 4v-127h304v113q17 6 42 10t45 4v-127h76q-2 -38 -8 -65zM479 508h-304v-114h304v114z" />
    <glyph glyph-name="hbar" unicode="&#x127;" horiz-adv-x="513" 
d="M454 331v-331h-86v320q0 60 -26.5 88.5t-87.5 28.5q-27 0 -52 -5.5t-51 -15.5v-416h-86v572h-60q2 35 9 59h51v61q35 13 86 13v-74h183q-2 -29 -9 -59h-174v-90q52 24 114 24q189 0 189 -175z" />
    <glyph glyph-name="Itilde" unicode="&#x128;" horiz-adv-x="242" 
d="M77 686q19 6 43.5 10t44.5 4v-700h-88v686zM146.5 774.5q-16.5 9.5 -38.5 27.5q-10 9 -19 15t-15 6q-10 0 -14 -6t-4 -21v-30h-57v44q0 43 14 62t46 19q22 0 38.5 -10t37.5 -29q9 -8 17.5 -14t14.5 -6q19 0 19 26v33h60v-47q0 -42 -15 -60.5t-49 -18.5q-19 0 -35.5 9.5z
" />
    <glyph glyph-name="itilde" unicode="&#x129;" horiz-adv-x="215" 
d="M64 496h86v-496h-86v496zM126 600q-14 10 -31 27q-3 3 -9.5 9t-11 9t-8.5 3q-8 0 -11.5 -6t-3.5 -20v-32h-52v41q0 74 56 74q17 0 31.5 -10t30.5 -27q8 -8 15.5 -14.5t13.5 -6.5q16 0 16 25v33h52v-43q0 -38 -15 -55t-43 -17q-16 0 -30 10z" />
    <glyph glyph-name="Imacron" unicode="&#x12a;" horiz-adv-x="242" 
d="M77 686q19 6 43.5 10t44.5 4v-700h-88v686zM19 854h212q-4 -40 -8 -64h-213q2 37 9 64z" />
    <glyph glyph-name="imacron" unicode="&#x12b;" horiz-adv-x="215" 
d="M64 496h86v-496h-86v496zM9 690h207q-1 -29 -9 -66h-207q2 35 9 66z" />
    <glyph glyph-name="Ibreve" unicode="&#x12c;" horiz-adv-x="242" 
d="M77 686q19 6 43.5 10t44.5 4v-700h-88v686zM35 792.5q-31 31.5 -38 77.5q13 2 29.5 3t29.5 1q12 -53 65 -53q27 0 42.5 13t21.5 40q13 0 28.5 -1t28.5 -3q-6 -45 -35.5 -77t-84.5 -32q-56 0 -87 31.5z" />
    <glyph glyph-name="ibreve" unicode="&#x12d;" horiz-adv-x="215" 
d="M64 496h86v-496h-86v496zM25.5 612.5q-27.5 34.5 -31.5 93.5q13 2 28.5 3.5t30.5 1.5q3 -70 54 -70q47 0 54 70q37 0 57 -5q-3 -58 -31 -93t-80 -35q-54 0 -81.5 34.5z" />
    <glyph glyph-name="Iogonek" unicode="&#x12e;" horiz-adv-x="242" 
d="M171.5 -154q11.5 3 17.5 7q-2 -32 -7 -58q-18 -9 -46 -9q-45 0 -72 24.5t-27 69.5q0 34 15 61t50 59h-25v686q19 6 43.5 10t44.5 4v-700q-33 -32 -47 -58t-14 -52q0 -23 11.5 -35t33.5 -12q11 0 22.5 3z" />
    <glyph glyph-name="iogonek" unicode="&#x12f;" horiz-adv-x="215" 
d="M67.5 615.5q-15.5 15.5 -15.5 40.5t15.5 40.5t39.5 15.5t39.5 -15.5t15.5 -40.5q0 -24 -15.5 -40t-39.5 -16t-39.5 15.5zM151 -154q11 3 18 7q-1 -29 -6 -58q-20 -9 -47 -9q-45 0 -71.5 24.5t-26.5 69.5q0 34 15 61t49 59h-18v496h86v-496h-5q-33 -32 -47 -58t-14 -52
q0 -23 11.5 -35t33.5 -12q11 0 22 3z" />
    <glyph glyph-name="Idotaccent" unicode="&#x130;" horiz-adv-x="242" 
d="M77 686q19 6 43.5 10t44.5 4v-700h-88v686zM82.5 781q-14.5 15 -14.5 39t15 38.5t38 14.5t37.5 -14.5t14.5 -38.5t-14.5 -39t-37.5 -15q-24 0 -38.5 15z" />
    <glyph glyph-name="dotlessi" unicode="&#x131;" horiz-adv-x="215" 
d="M64 496h86v-496h-86v496z" />
    <glyph glyph-name="IJ" unicode="&#x132;" horiz-adv-x="582" 
d="M77 686q19 6 43.5 10t44.5 4v-700h-88v686zM263 0q0 29 6 75q30 -5 52 -5q59 0 85.5 32.5t26.5 108.5v475q18 6 43 10t45 4v-499q0 -104 -47.5 -156t-140.5 -52q-39 0 -70 7z" />
    <glyph glyph-name="ij" unicode="&#x133;" horiz-adv-x="428" 
d="M67.5 615.5q-15.5 15.5 -15.5 40.5t15.5 40.5t39.5 15.5t39.5 -15.5t15.5 -40.5q0 -24 -15.5 -40t-39.5 -16t-39.5 15.5zM64 496h86v-496h-86v496zM281.5 615.5q-15.5 15.5 -15.5 40.5t15.5 40.5t39.5 15.5t39.5 -15.5t15.5 -40.5t-15.5 -40.5t-39.5 -15.5t-39.5 15.5z
M167 -219q1 23 9 69q22 -5 40 -5q32 0 47.5 17t15.5 56v578h86v-573q0 -78 -34 -114.5t-104 -36.5q-34 0 -60 9z" />
    <glyph glyph-name="Jcircumflex" unicode="&#x134;" horiz-adv-x="341" 
d="M21 0q0 29 6 75q30 -5 52 -5q59 0 85.5 32.5t26.5 108.5v475q18 6 43 10t45 4v-499q0 -104 -47.5 -156t-140.5 -52q-39 0 -70 7zM188 872q10 3 23.5 4.5t24.5 1.5q25 0 46 -6l82 -109h-25q-32 5 -57.5 20t-46.5 41q-42 -49 -103 -61h-26z" />
    <glyph glyph-name="jcircumflex" unicode="&#x135;" horiz-adv-x="215" 
d="M-48 -219q1 23 9 69q22 -5 40 -5q32 0 47.5 17t15.5 56v578h86v-573q0 -78 -34 -114.5t-104 -36.5q-34 0 -60 9zM222 579h-25q-22 5 -43 26.5t-49 61.5q-30 -45 -49.5 -64t-44.5 -24h-22l77 144q16 4 39 4t39 -3z" />
    <glyph glyph-name="Kcommaaccent" unicode="&#x136;" horiz-adv-x="535" 
d="M77 686q19 6 43.5 10t44.5 4v-700h-88v686zM538 0h-108l-261 350v9l253 333h99l-257 -335zM254 -75q23 6 42.5 9.5t40.5 3.5q-4 -57 -22.5 -102.5t-49.5 -76.5h-22q11 76 11 166z" />
    <glyph glyph-name="kcommaaccent" unicode="&#x137;" horiz-adv-x="464" 
d="M64 692q38 13 86 13v-705h-86v692zM465 0h-105l-203 261v6l189 229h100l-195 -230zM210 -75q23 6 42.5 9.5t40.5 3.5q-4 -57 -22.5 -102.5t-49.5 -76.5h-22q11 76 11 166z" />
    <glyph glyph-name="kgreenlandic" unicode="&#x138;" horiz-adv-x="463" 
d="M64 496h86v-496h-86v496zM464 0h-104l-204 261v6l189 229h100l-195 -230z" />
    <glyph glyph-name="Lacute" unicode="&#x139;" horiz-adv-x="438" 
d="M77 686q19 6 43.5 10t44.5 4v-621h267q-2 -42 -9 -79h-346v686zM144 877q9 2 24.5 3.5t31.5 1.5q36 0 60 -8q-29 -43 -72.5 -74.5t-90.5 -36.5h-17z" />
    <glyph glyph-name="lacute" unicode="&#x13a;" horiz-adv-x="215" 
d="M64 692q36 13 86 13v-705h-86v692zM137 877q9 2 24.5 3.5t31.5 1.5q36 0 60 -8q-29 -43 -72.5 -74.5t-90.5 -36.5h-17z" />
    <glyph glyph-name="Lcommaaccent" unicode="&#x13b;" horiz-adv-x="438" 
d="M77 686q19 6 43.5 10t44.5 4v-621h267q-2 -42 -9 -79h-346v686zM217 -75q23 6 42.5 9.5t40.5 3.5q-4 -57 -22.5 -102.5t-49.5 -76.5h-22q11 76 11 166z" />
    <glyph glyph-name="lcommaaccent" unicode="&#x13c;" horiz-adv-x="215" 
d="M64 692q36 13 86 13v-705h-86v692zM67 -75q23 6 42.5 9.5t40.5 3.5q-4 -57 -22.5 -102.5t-49.5 -76.5h-22q11 76 11 166z" />
    <glyph glyph-name="Lcaron" unicode="&#x13d;" horiz-adv-x="438" 
d="M77 686q19 6 43.5 10t44.5 4v-621h267q-2 -42 -9 -79h-346v686zM292 693q23 6 42.5 9.5t40.5 3.5q-4 -57 -22.5 -102.5t-49.5 -76.5h-22q11 76 11 166z" />
    <glyph glyph-name="lcaron" unicode="&#x13e;" horiz-adv-x="215" 
d="M64 692q36 13 86 13v-705h-86v692zM211 693q23 6 42.5 9.5t40.5 3.5q-4 -57 -22.5 -102.5t-49.5 -76.5h-22q11 76 11 166z" />
    <glyph glyph-name="Ldot" unicode="&#x13f;" horiz-adv-x="438" 
d="M77 686q19 6 43.5 10t44.5 4v-621h267q-2 -42 -9 -79h-346v686zM316 361.5q-14 8.5 -22.5 22.5t-8.5 31q0 25 18 43t44 18q16 0 30 -8t22.5 -22t8.5 -31t-8.5 -31t-22.5 -22.5t-30 -8.5q-17 0 -31 8.5z" />
    <glyph glyph-name="ldot" unicode="&#x140;" horiz-adv-x="340" 
d="M64 692q36 13 86 13v-705h-86v692zM253.5 347.5q-15.5 15.5 -15.5 40.5t15.5 40.5t39.5 15.5t39.5 -15.5t15.5 -40.5q0 -24 -16 -40t-39 -16q-24 0 -39.5 15.5z" />
    <glyph glyph-name="Lslash" unicode="&#x141;" horiz-adv-x="448" 
d="M442 79q-2 -42 -9 -79h-346v270l-75 -42q0 52 6 81l69 39v338q19 6 43.5 10t44.5 4v-303l173 97q-2 -54 -8 -82l-165 -93v-240h267z" />
    <glyph glyph-name="lslash" unicode="&#x142;" horiz-adv-x="235" 
d="M240 438l-82 -59v-379h-86v317l-84 -61q0 33 5 73l79 56v307q36 13 86 13v-258l89 63q-1 -28 -7 -72z" />
    <glyph glyph-name="Nacute" unicode="&#x143;" horiz-adv-x="647" 
d="M525 696q25 4 44 4v-700h-73l-285 457q-23 36 -51 90q2 -78 2 -243v-304h-85v686q17 6 41 10t41 4l269 -441q32 -53 59 -108q-4 119 -4 291v244q17 6 42 10zM326 877q9 2 24.5 3.5t31.5 1.5q36 0 60 -8q-29 -43 -72.5 -74.5t-90.5 -36.5h-17z" />
    <glyph glyph-name="nacute" unicode="&#x144;" horiz-adv-x="513" 
d="M406.5 462.5q47.5 -45.5 47.5 -130.5v-332h-86v321q0 41 -11.5 66.5t-38 38t-70.5 12.5q-46 0 -98 -13v-425h-86v478q101 30 186 30q109 0 156.5 -45.5zM263 717q20 7 50 11t53 4q-8 -36 -29 -69t-50 -56.5t-60 -31.5h-5z" />
    <glyph glyph-name="Ncommaaccent" unicode="&#x145;" horiz-adv-x="647" 
d="M525 696q25 4 44 4v-700h-73l-285 457q-23 36 -51 90q2 -78 2 -243v-304h-85v686q17 6 41 10t41 4l269 -441q32 -53 59 -108q-4 119 -4 291v244q17 6 42 10zM286 -75q23 6 42.5 9.5t40.5 3.5q-4 -57 -22.5 -102.5t-49.5 -76.5h-22q11 76 11 166z" />
    <glyph glyph-name="ncommaaccent" unicode="&#x146;" horiz-adv-x="513" 
d="M406.5 462.5q47.5 -45.5 47.5 -130.5v-332h-86v321q0 41 -11.5 66.5t-38 38t-70.5 12.5q-46 0 -98 -13v-425h-86v478q101 30 186 30q109 0 156.5 -45.5zM220 -75q23 6 42.5 9.5t40.5 3.5q-4 -57 -22.5 -102.5t-49.5 -76.5h-22q11 76 11 166z" />
    <glyph glyph-name="Ncaron" unicode="&#x147;" horiz-adv-x="647" 
d="M525 696q25 4 44 4v-700h-73l-285 457q-23 36 -51 90q2 -78 2 -243v-304h-85v686q17 6 41 10t41 4l269 -441q32 -53 59 -108q-4 119 -4 291v244q17 6 42 10zM375 766q-20 -5 -53 -5t-53 5l-93 122h31q33 -6 60.5 -25t54.5 -52q57 68 119 77h28z" />
    <glyph glyph-name="ncaron" unicode="&#x148;" horiz-adv-x="513" 
d="M406.5 462.5q47.5 -45.5 47.5 -130.5v-332h-86v321q0 41 -11.5 66.5t-38 38t-70.5 12.5q-46 0 -98 -13v-425h-86v478q101 30 186 30q109 0 156.5 -45.5zM405 730l-92 -147q-17 -4 -43 -4q-27 0 -42 4l-95 147h26q31 -6 54 -25.5t57 -64.5q34 43 58 63t54 27h23z" />
    <glyph glyph-name="napostrophe" unicode="&#x149;" horiz-adv-x="628" 
d="M521.5 462.5q47.5 -45.5 47.5 -130.5v-332h-86v321q0 41 -11.5 66.5t-38 38t-70.5 12.5q-46 0 -98 -13v-425h-86v478q101 30 186 30q109 0 156.5 -45.5zM77.5 578.5q7.5 54.5 10.5 113.5q24 8 41.5 11t41.5 3q-5 -70 -18 -128t-35 -120h-60q12 66 19.5 120.5z" />
    <glyph glyph-name="Eng" unicode="&#x14a;" horiz-adv-x="647" 
d="M525 696q25 4 44 4v-700q-1 -116 -47.5 -170t-140.5 -54q-26 0 -66 6q2 50 7 78q27 -5 55 -5q39 0 63 15.5t35.5 49t11.5 88.5v6l-276 443q-23 36 -51 90q2 -78 2 -243v-304h-85v686q17 6 41 10t41 4l269 -441q32 -53 59 -108q-4 119 -4 291v244q17 6 42 10z" />
    <glyph glyph-name="eng" unicode="&#x14b;" horiz-adv-x="513" 
d="M406.5 462.5q47.5 -45.5 47.5 -130.5v-401q0 -81 -30.5 -118t-95.5 -37q-26 0 -50 8q1 31 7 67q22 -4 31 -4q26 0 39 16t13 50v408q0 41 -11.5 66.5t-38 38t-70.5 12.5q-46 0 -98 -13v-425h-86v478q101 30 186 30q109 0 156.5 -45.5z" />
    <glyph glyph-name="Omacron" unicode="&#x14c;" horiz-adv-x="664" 
d="M169.5 30q-66.5 45 -100 126t-33.5 190q0 110 34.5 191.5t101 125.5t159.5 44q97 0 163.5 -45t100 -126.5t33.5 -189.5q0 -111 -34.5 -192.5t-101 -125t-159.5 -43.5q-97 0 -163.5 45zM485.5 136q51.5 72 51.5 210q0 90 -23.5 153t-70 96.5t-112.5 33.5
q-100 0 -152.5 -73.5t-52.5 -209.5q0 -135 53 -208.5t154 -73.5t152.5 72zM211 855h245q-2 -37 -9 -64h-245q2 37 9 64z" />
    <glyph glyph-name="omacron" unicode="&#x14d;" horiz-adv-x="509" 
d="M133 19.5q-50 31.5 -76 90t-26 138.5q0 81 25.5 139.5t75.5 89.5t122 31t122 -31.5t76 -89.5t26 -139t-26 -139t-76.5 -89.5t-121.5 -31.5t-121 31.5zM356 108q34 49 34 140t-34 140t-102 49t-101.5 -48.5t-33.5 -140.5t33.5 -140.5t101.5 -48.5t102 49zM137 690h243
q-4 -42 -8 -65h-244q2 34 9 65z" />
    <glyph glyph-name="Obreve" unicode="&#x14e;" horiz-adv-x="664" 
d="M169.5 30q-66.5 45 -100 126t-33.5 190q0 110 34.5 191.5t101 125.5t159.5 44q97 0 163.5 -45t100 -126.5t33.5 -189.5q0 -111 -34.5 -192.5t-101 -125t-159.5 -43.5q-97 0 -163.5 45zM485.5 136q51.5 72 51.5 210q0 90 -23.5 153t-70 96.5t-112.5 33.5
q-100 0 -152.5 -73.5t-52.5 -209.5q0 -135 53 -208.5t154 -73.5t152.5 72zM232.5 791q-35.5 31 -44.5 85q14 2 31.5 3.5t32.5 1.5q15 -62 78 -62t79 62q14 0 31 -1.5t31 -3.5q-8 -54 -43 -85t-98 -31q-62 0 -97.5 31z" />
    <glyph glyph-name="obreve" unicode="&#x14f;" horiz-adv-x="509" 
d="M133 19.5q-50 31.5 -76 90t-26 138.5q0 81 25.5 139.5t75.5 89.5t122 31t122 -31.5t76 -89.5t26 -139t-26 -139t-76.5 -89.5t-121.5 -31.5t-121 31.5zM356 108q34 49 34 140t-34 140t-102 49t-101.5 -48.5t-33.5 -140.5t33.5 -140.5t101.5 -48.5t102 49zM157.5 614
q-33.5 37 -41.5 97q28 7 61 7q6 -37 24.5 -59t52.5 -22t52.5 21.5t24.5 59.5q37 0 61 -7q-8 -59 -42.5 -96.5t-95.5 -37.5q-63 0 -96.5 37z" />
    <glyph glyph-name="Ohungarumlaut" unicode="&#x150;" horiz-adv-x="664" 
d="M169.5 30q-66.5 45 -100 126t-33.5 190q0 110 34.5 191.5t101 125.5t159.5 44q97 0 163.5 -45t100 -126.5t33.5 -189.5q0 -111 -34.5 -192.5t-101 -125t-159.5 -43.5q-97 0 -163.5 45zM485.5 136q51.5 72 51.5 210q0 90 -23.5 153t-70 96.5t-112.5 33.5
q-100 0 -152.5 -73.5t-52.5 -209.5q0 -135 53 -208.5t154 -73.5t152.5 72zM269 879q17 5 55 5q31 0 41 -2q-12 -27 -36.5 -54t-56 -45t-60.5 -21h-13zM408 879q19 5 55 5q31 0 41 -2q-12 -27 -36.5 -53t-55.5 -44.5t-61 -22.5h-12z" />
    <glyph glyph-name="ohungarumlaut" unicode="&#x151;" horiz-adv-x="509" 
d="M133 19.5q-50 31.5 -76 90t-26 138.5q0 81 25.5 139.5t75.5 89.5t122 31t122 -31.5t76 -89.5t26 -139t-26 -139t-76.5 -89.5t-121.5 -31.5t-121 31.5zM356 108q34 49 34 140t-34 140t-102 49t-101.5 -48.5t-33.5 -140.5t33.5 -140.5t101.5 -48.5t102 49zM197 719
q14 6 41 9t50 3q-32 -75 -68 -110.5t-82 -47.5h-7zM338 719q14 6 40 9t49 3q-30 -74 -68.5 -112t-80.5 -46h-7z" />
    <glyph glyph-name="OE" unicode="&#x152;" horiz-adv-x="874" 
d="M534 79h309q0 -33 -8 -79h-350v-1h-147q-100 0 -167.5 41.5t-101 119t-33.5 186.5q0 110 34.5 187.5t102 118t165.5 40.5h505q-2 -45 -9 -79h-300v-223h280q-2 -41 -8 -79h-272v-232zM179.5 145q53.5 -67 158.5 -67h109v536h-109q-108 0 -160 -66.5t-52 -201.5
q0 -134 53.5 -201z" />
    <glyph glyph-name="oe" unicode="&#x153;" horiz-adv-x="842" 
d="M799.5 253q-1.5 -17 -3.5 -30h-323q7 -87 47 -125.5t114 -38.5q79 0 147 41q-4 -51 -12 -78q-36 -17 -69.5 -25.5t-71.5 -8.5q-70 0 -119 25t-77 74q-27 -49 -72 -74t-106 -25q-71 0 -121 31.5t-76 90t-26 138.5q0 81 25.5 139.5t75.5 89.5t122 31q61 0 106 -24.5
t71 -71.5q27 45 69.5 70.5t101.5 25.5q68 0 112.5 -28.5t65.5 -78t21 -114.5q0 -17 -1.5 -34zM356 108q34 49 34 140t-34 140t-102 49t-101.5 -48.5t-33.5 -140.5t33.5 -140.5t101.5 -48.5t102 49zM511 400.5q-31 -36.5 -37 -107.5h239q-2 69 -29.5 106.5t-86.5 37.5
q-55 0 -86 -36.5z" />
    <glyph glyph-name="Racute" unicode="&#x154;" horiz-adv-x="532" 
d="M274 275h-109v-275h-88v689q78 17 164 17t142.5 -29t82.5 -77t26 -106q0 -77 -37.5 -128t-100.5 -74l175 -291h-101zM246 350q72 0 114 34t42 106q0 69 -41.5 105t-120.5 36q-42 0 -75 -4v-277h81zM270 877q9 2 24.5 3.5t31.5 1.5q36 0 60 -8q-29 -43 -72.5 -74.5
t-90.5 -36.5h-17z" />
    <glyph glyph-name="racute" unicode="&#x155;" horiz-adv-x="343" 
d="M328 497q0 -20 -2 -41t-6 -33q-35 9 -92 9q-36 0 -78 -8v-424h-86v479q33 12 78 19.5t85 7.5q59 0 101 -9zM191 717q20 7 50 11t53 4q-8 -36 -29 -69t-50 -56.5t-60 -31.5h-5z" />
    <glyph glyph-name="Rcommaaccent" unicode="&#x156;" horiz-adv-x="532" 
d="M274 275h-109v-275h-88v689q78 17 164 17t142.5 -29t82.5 -77t26 -106q0 -77 -37.5 -128t-100.5 -74l175 -291h-101zM246 350q72 0 114 34t42 106q0 69 -41.5 105t-120.5 36q-42 0 -75 -4v-277h81zM245 -75q23 6 42.5 9.5t40.5 3.5q-4 -57 -22.5 -102.5t-49.5 -76.5h-22
q11 76 11 166z" />
    <glyph glyph-name="rcommaaccent" unicode="&#x157;" horiz-adv-x="343" 
d="M328 497q0 -20 -2 -41t-6 -33q-35 9 -92 9q-36 0 -78 -8v-424h-86v479q33 12 78 19.5t85 7.5q59 0 101 -9zM65 -75q23 6 42.5 9.5t40.5 3.5q-4 -57 -22.5 -102.5t-49.5 -76.5h-22q11 76 11 166z" />
    <glyph glyph-name="Rcaron" unicode="&#x158;" horiz-adv-x="532" 
d="M274 275h-109v-275h-88v689q78 17 164 17t142.5 -29t82.5 -77t26 -106q0 -77 -37.5 -128t-100.5 -74l175 -291h-101zM246 350q72 0 114 34t42 106q0 69 -41.5 105t-120.5 36q-42 0 -75 -4v-277h81zM320 766q-20 -5 -53 -5t-53 5l-93 122h31q33 -6 60.5 -25t54.5 -52
q57 68 119 77h28z" />
    <glyph glyph-name="rcaron" unicode="&#x159;" horiz-adv-x="343" 
d="M328 497q0 -20 -2 -41t-6 -33q-35 9 -92 9q-36 0 -78 -8v-424h-86v479q33 12 78 19.5t85 7.5q59 0 101 -9zM313 725l-77 -144q-15 -4 -39 -4q-23 0 -38 3l-79 145h25q22 -5 44 -27t48 -61q31 45 50.5 64t43.5 24h22z" />
    <glyph glyph-name="Sacute" unicode="&#x15a;" horiz-adv-x="501" 
d="M123 -4q-47 11 -82 32q2 26 4.5 43t7.5 33q37 -21 82 -32t87 -11q71 0 111 30t40 84q0 36 -17.5 61.5t-44.5 41.5t-65 31l-51 20q-73 30 -113 76t-40 120q0 86 57.5 134t169.5 48q94 0 170 -32q-1 -22 -4 -38.5t-9 -34.5q-38 14 -78 21.5t-76 7.5q-70 0 -105 -28t-35 -76
q0 -50 31 -78.5t83 -49.5l53 -20q76 -29 120.5 -75t44.5 -125q0 -57 -27.5 -100.5t-82 -68.5t-133.5 -25q-51 0 -98 11zM257 877q9 2 24.5 3.5t31.5 1.5q36 0 60 -8q-29 -43 -72.5 -74.5t-90.5 -36.5h-17z" />
    <glyph glyph-name="sacute" unicode="&#x15b;" horiz-adv-x="408" 
d="M103 -3q-39 9 -68 25q1 21 3.5 37.5t8.5 34.5q30 -17 65.5 -26t68.5 -9q107 0 107 68q0 21 -8.5 34.5t-25.5 23.5t-46 21l-41 16q-41 16 -69 35t-44 46.5t-16 67.5q0 65 46 101t132 36q80 0 142 -22q-4 -41 -11 -71q-33 11 -62 16.5t-63 5.5q-100 0 -100 -64
q0 -28 20 -46.5t64 -35.5l41 -16q66 -25 97 -57t31 -84q0 -43 -21.5 -76t-64.5 -51.5t-104 -18.5q-43 0 -82 9zM197 717q20 7 50 11t53 4q-8 -36 -29 -69t-50 -56.5t-60 -31.5h-5z" />
    <glyph glyph-name="Scircumflex" unicode="&#x15c;" horiz-adv-x="501" 
d="M123 -4q-47 11 -82 32q2 26 4.5 43t7.5 33q37 -21 82 -32t87 -11q71 0 111 30t40 84q0 36 -17.5 61.5t-44.5 41.5t-65 31l-51 20q-73 30 -113 76t-40 120q0 86 57.5 134t169.5 48q94 0 170 -32q-1 -22 -4 -38.5t-9 -34.5q-38 14 -78 21.5t-76 7.5q-70 0 -105 -28t-35 -76
q0 -50 31 -78.5t83 -49.5l53 -20q76 -29 120.5 -75t44.5 -125q0 -57 -27.5 -100.5t-82 -68.5t-133.5 -25q-51 0 -98 11zM202 884q24 6 53 6t53 -6l93 -121h-31q-33 5 -60 24t-55 52q-56 -66 -119 -76h-28z" />
    <glyph glyph-name="scircumflex" unicode="&#x15d;" horiz-adv-x="408" 
d="M103 -3q-39 9 -68 25q1 21 3.5 37.5t8.5 34.5q30 -17 65.5 -26t68.5 -9q107 0 107 68q0 21 -8.5 34.5t-25.5 23.5t-46 21l-41 16q-41 16 -69 35t-44 46.5t-16 67.5q0 65 46 101t132 36q80 0 142 -22q-4 -41 -11 -71q-33 11 -62 16.5t-63 5.5q-100 0 -100 -64
q0 -28 20 -46.5t64 -35.5l41 -16q66 -25 97 -57t31 -84q0 -43 -21.5 -76t-64.5 -51.5t-104 -18.5q-43 0 -82 9zM339 581h-26q-31 6 -54 25t-57 64q-34 -43 -58 -63t-54 -26h-23l92 146q17 4 44 4q24 0 41 -3z" />
    <glyph glyph-name="Scedilla" unicode="&#x15e;" horiz-adv-x="501" 
d="M442.5 89q-21.5 -40 -64.5 -66.5t-105 -34.5l-12 -36q38 -10 55.5 -28t17.5 -48q0 -38 -25.5 -60t-74.5 -22q-34 0 -64 12q1 21 8 47q30 -10 52 -10t33.5 8.5t11.5 24.5q0 19 -19.5 28.5t-62.5 10.5l22 70q-50 1 -94.5 11.5t-79.5 31.5q2 26 4.5 43t7.5 33q37 -21 82 -32
t87 -11q71 0 111 30t40 84q0 36 -17.5 61.5t-44.5 41.5t-65 31l-51 20q-73 30 -113 76t-40 120q0 86 57.5 134t169.5 48q94 0 170 -32q-1 -22 -4 -38.5t-9 -34.5q-38 14 -78 21.5t-76 7.5q-70 0 -105 -28t-35 -76q0 -50 31 -78.5t83 -49.5l53 -20q76 -29 120.5 -75
t44.5 -125q0 -50 -21.5 -90z" />
    <glyph glyph-name="scedilla" unicode="&#x15f;" horiz-adv-x="408" 
d="M338 39q-37 -38 -107 -48l-14 -39q38 -10 55.5 -28t17.5 -48q0 -38 -25.5 -60t-74.5 -22q-35 0 -63 12q0 21 7 47q30 -10 52 -10t34 8.5t12 24.5q0 19 -19.5 28.5t-62.5 10.5l23 73q-40 2 -76 10.5t-62 23.5q1 21 3.5 37.5t8.5 34.5q30 -17 65.5 -26t68.5 -9
q107 0 107 68q0 21 -8.5 34.5t-25.5 23.5t-46 21l-41 16q-41 16 -69 35t-44 46.5t-16 67.5q0 65 46 101t132 36q80 0 142 -22q-4 -41 -11 -71q-33 11 -62 16.5t-63 5.5q-100 0 -100 -64q0 -28 20 -46.5t64 -35.5l41 -16q66 -25 97 -57t31 -84q0 -57 -37 -95z" />
    <glyph glyph-name="Scaron" unicode="&#x160;" horiz-adv-x="501" 
d="M123 -4q-47 11 -82 32q2 26 4.5 43t7.5 33q37 -21 82 -32t87 -11q71 0 111 30t40 84q0 36 -17.5 61.5t-44.5 41.5t-65 31l-51 20q-73 30 -113 76t-40 120q0 86 57.5 134t169.5 48q94 0 170 -32q-1 -22 -4 -38.5t-9 -34.5q-38 14 -78 21.5t-76 7.5q-70 0 -105 -28t-35 -76
q0 -50 31 -78.5t83 -49.5l53 -20q76 -29 120.5 -75t44.5 -125q0 -57 -27.5 -100.5t-82 -68.5t-133.5 -25q-51 0 -98 11zM306 766q-20 -5 -53 -5t-53 5l-93 122h31q33 -6 60.5 -25t54.5 -52q57 68 119 77h28z" />
    <glyph glyph-name="scaron" unicode="&#x161;" horiz-adv-x="408" 
d="M103 -3q-39 9 -68 25q1 21 3.5 37.5t8.5 34.5q30 -17 65.5 -26t68.5 -9q107 0 107 68q0 21 -8.5 34.5t-25.5 23.5t-46 21l-41 16q-41 16 -69 35t-44 46.5t-16 67.5q0 65 46 101t132 36q80 0 142 -22q-4 -41 -11 -71q-33 11 -62 16.5t-63 5.5q-100 0 -100 -64
q0 -28 20 -46.5t64 -35.5l41 -16q66 -25 97 -57t31 -84q0 -43 -21.5 -76t-64.5 -51.5t-104 -18.5q-43 0 -82 9zM339 730l-92 -147q-17 -4 -43 -4q-27 0 -42 4l-95 147h26q31 -6 54 -25.5t57 -64.5q34 43 58 63t54 27h23z" />
    <glyph glyph-name="Tcommaaccent" unicode="&#x162;" horiz-adv-x="501" 
d="M280 0l-16 -48q38 -10 55.5 -28t17.5 -48q0 -38 -25.5 -60t-74.5 -22q-34 0 -64 12q1 21 8 47q30 -10 52 -10t33.5 8.5t11.5 24.5q0 19 -19.5 28.5t-62.5 10.5l27 85h-17v613h-200q2 47 9 79h481q-5 -54 -9 -79h-194v-613h-13z" />
    <glyph glyph-name="tcommaaccent" unicode="&#x163;" horiz-adv-x="327" 
d="M164 82q19 -21 58 -21q18 0 37.5 5t35.5 14q-2 -25 -5.5 -47.5t-4.5 -26.5q-30 -16 -74 -18l-12 -36q38 -10 55.5 -28t17.5 -48q0 -38 -25.5 -60t-74.5 -22q-34 0 -64 12q1 21 8 47q30 -10 52 -10t34 8.5t12 24.5q0 19 -19.5 28.5t-62.5 10.5l25 78q-47 11 -72.5 47.5
t-25.5 100.5v491q36 13 86 13v-149h152q-3 -45 -8 -72h-144v-274q0 -47 19 -68z" />
    <glyph glyph-name="Tcaron" unicode="&#x164;" horiz-adv-x="501" 
d="M487 613h-194v-613h-87v613h-200q2 47 9 79h481q-5 -54 -9 -79zM303 766q-20 -5 -53 -5t-53 5l-93 122h31q33 -6 60.5 -25t54.5 -52q57 68 119 77h28z" />
    <glyph glyph-name="tcaron" unicode="&#x165;" horiz-adv-x="327" 
d="M316 610.5q-19 -40.5 -50 -68.5h-21q6 37 8.5 72t2.5 78q44 11 83 11q-4 -52 -23 -92.5zM145 424v-274q0 -47 19 -68t58 -21q18 0 37.5 5t35.5 14q-2 -25 -5.5 -47.5t-4.5 -26.5q-35 -18 -82 -18q-68 0 -106 37.5t-38 115.5v491q36 13 86 13v-149h152q-3 -45 -8 -72h-144
z" />
    <glyph glyph-name="Tbar" unicode="&#x166;" horiz-adv-x="501" 
d="M293 613v-222h127q-1 -17 -2.5 -35t-4.5 -33h-120v-323h-87v323h-149q0 35 6 68h143v222h-200q2 47 9 79h481q-5 -54 -9 -79h-194z" />
    <glyph glyph-name="tbar" unicode="&#x167;" horiz-adv-x="327" 
d="M145 258v-108q0 -47 19 -68t58 -21q18 0 37.5 5t35.5 14q-2 -25 -5.5 -47.5t-4.5 -26.5q-35 -18 -82 -18q-68 0 -106 37.5t-38 115.5v117h-64q2 29 9 59h55v315q36 13 86 13v-149h152q-3 -45 -8 -72h-144v-107h152q-2 -36 -8 -59h-144z" />
    <glyph glyph-name="Utilde" unicode="&#x168;" horiz-adv-x="624" 
d="M178.5 15q-56.5 30 -86.5 84.5t-30 125.5v461q18 6 42.5 10t44.5 4v-471q0 -80 43 -122.5t119 -42.5q78 0 121 42t43 124v456q16 6 41.5 10t45.5 4v-475q0 -71 -30.5 -125.5t-87.5 -84.5t-133 -30t-132.5 30zM346 782q-21 10 -52 29q-35 23 -46 23q-10 0 -14 -6t-4 -21
v-34h-65v43q0 42 18 62t51 20q22 0 43.5 -10.5t52.5 -30.5q3 -2 13.5 -8.5t17.5 -9.5t11 -3q20 0 20 26v35h65v-46q0 -79 -72 -79q-18 0 -39 10z" />
    <glyph glyph-name="utilde" unicode="&#x169;" horiz-adv-x="513" 
d="M449 496v-478q-101 -30 -185 -30q-110 0 -157.5 45.5t-47.5 130.5v332h86v-321q0 -61 27.5 -89.5t92.5 -28.5q46 0 98 13v426h86zM284.5 599.5q-16.5 9.5 -41.5 27.5q-5 3 -11.5 8t-13.5 9t-11 4q-8 0 -11.5 -6t-3.5 -20v-32h-52v41q0 74 56 74q17 0 35 -10t40 -27
q3 -2 11.5 -8.5t14.5 -9.5t10 -3q16 0 16 25v33h52v-43q0 -38 -15 -55t-43 -17q-16 0 -32.5 9.5z" />
    <glyph glyph-name="Umacron" unicode="&#x16a;" horiz-adv-x="624" 
d="M178.5 15q-56.5 30 -86.5 84.5t-30 125.5v461q18 6 42.5 10t44.5 4v-471q0 -80 43 -122.5t119 -42.5q78 0 121 42t43 124v456q16 6 41.5 10t45.5 4v-475q0 -71 -30.5 -125.5t-87.5 -84.5t-133 -30t-132.5 30zM197 855h245q-2 -37 -9 -64h-245q2 37 9 64z" />
    <glyph glyph-name="umacron" unicode="&#x16b;" horiz-adv-x="513" 
d="M449 496v-478q-101 -30 -185 -30q-110 0 -157.5 45.5t-47.5 130.5v332h86v-321q0 -61 27.5 -89.5t92.5 -28.5q46 0 98 13v426h86zM142 690h243q-4 -42 -8 -65h-244q2 34 9 65z" />
    <glyph glyph-name="Ubreve" unicode="&#x16c;" horiz-adv-x="624" 
d="M178.5 15q-56.5 30 -86.5 84.5t-30 125.5v461q18 6 42.5 10t44.5 4v-471q0 -80 43 -122.5t119 -42.5q78 0 121 42t43 124v456q16 6 41.5 10t45.5 4v-475q0 -71 -30.5 -125.5t-87.5 -84.5t-133 -30t-132.5 30zM218.5 791q-35.5 31 -44.5 85q14 2 31.5 3.5t32.5 1.5
q15 -62 78 -62t79 62q14 0 31 -1.5t31 -3.5q-8 -54 -43 -85t-98 -31q-62 0 -97.5 31z" />
    <glyph glyph-name="ubreve" unicode="&#x16d;" horiz-adv-x="513" 
d="M449 496v-478q-101 -30 -185 -30q-110 0 -157.5 45.5t-47.5 130.5v332h86v-321q0 -61 27.5 -89.5t92.5 -28.5q46 0 98 13v426h86zM162.5 614q-33.5 37 -41.5 97q28 7 61 7q6 -37 24.5 -59t52.5 -22t52.5 21.5t24.5 59.5q37 0 61 -7q-8 -59 -42.5 -96.5t-95.5 -37.5
q-63 0 -96.5 37z" />
    <glyph glyph-name="Uring" unicode="&#x16e;" horiz-adv-x="624" 
d="M178.5 15q-56.5 30 -86.5 84.5t-30 125.5v461q18 6 42.5 10t44.5 4v-471q0 -80 43 -122.5t119 -42.5q78 0 121 42t43 124v456q16 6 41.5 10t45.5 4v-475q0 -71 -30.5 -125.5t-87.5 -84.5t-133 -30t-132.5 30zM261 756q-24 13 -37.5 35t-13.5 50q0 27 13.5 49.5t37.5 35
t54 12.5t53.5 -13t37 -35t13.5 -50q0 -27 -13.5 -49t-37.5 -35t-53 -13q-30 0 -54 13zM352 804q14 14 14 36t-14 36t-37 14t-37.5 -14t-14.5 -35q0 -23 14 -37t38 -14q23 0 37 14z" />
    <glyph glyph-name="uring" unicode="&#x16f;" horiz-adv-x="513" 
d="M449 496v-478q-101 -30 -185 -30q-110 0 -157.5 45.5t-47.5 130.5v332h86v-321q0 -61 27.5 -89.5t92.5 -28.5q46 0 98 13v426h86zM207 579q-24 13 -38 36t-14 53t14 53t38 36t53 13t52.5 -13t37.5 -36.5t14 -52.5q0 -30 -13.5 -53t-37.5 -36t-53 -13t-53 13zM297 630.5
q14 15.5 14 37.5t-14 37.5t-37 15.5t-37 -15t-14 -38q0 -22 14 -37.5t37 -15.5t37 15.5z" />
    <glyph glyph-name="Uhungarumlaut" unicode="&#x170;" horiz-adv-x="624" 
d="M178.5 15q-56.5 30 -86.5 84.5t-30 125.5v461q18 6 42.5 10t44.5 4v-471q0 -80 43 -122.5t119 -42.5q78 0 121 42t43 124v456q16 6 41.5 10t45.5 4v-475q0 -71 -30.5 -125.5t-87.5 -84.5t-133 -30t-132.5 30zM255 879q17 5 55 5q31 0 41 -2q-12 -27 -36.5 -54t-56 -45
t-60.5 -21h-13zM394 879q19 5 55 5q31 0 41 -2q-12 -27 -36.5 -53t-55.5 -44.5t-61 -22.5h-12z" />
    <glyph glyph-name="uhungarumlaut" unicode="&#x171;" horiz-adv-x="513" 
d="M449 496v-478q-101 -30 -185 -30q-110 0 -157.5 45.5t-47.5 130.5v332h86v-321q0 -61 27.5 -89.5t92.5 -28.5q46 0 98 13v426h86zM201 719q14 6 41 9t50 3q-32 -75 -68 -110.5t-82 -47.5h-7zM342 719q14 6 40 9t49 3q-30 -74 -68.5 -112t-80.5 -46h-7z" />
    <glyph glyph-name="Uogonek" unicode="&#x172;" horiz-adv-x="624" 
d="M516.5 696q25.5 4 45.5 4v-475q0 -78 -36 -135t-102 -84q-33 -22 -48 -48.5t-15 -50.5q0 -27 13.5 -41t36.5 -14q24 0 46 9q-2 -25 -8 -58q-22 -9 -51 -9q-49 0 -77.5 26.5t-28.5 74.5q0 50 40 91q-7 -1 -21 -1q-76 0 -132.5 30t-86.5 84.5t-30 125.5v461q18 6 42.5 10
t44.5 4v-471q0 -80 43 -122.5t119 -42.5q78 0 121 42t43 124v456q16 6 41.5 10z" />
    <glyph glyph-name="uogonek" unicode="&#x173;" horiz-adv-x="513" 
d="M337 -47.5q-15 -26.5 -15 -50.5q0 -26 13.5 -40.5t36.5 -14.5q21 0 46 10q-3 -28 -8 -59q-20 -8 -51 -8q-49 0 -77.5 26t-28.5 74q0 27 11.5 51.5t36.5 47.5q-12 -1 -37 -1q-110 0 -157.5 45.5t-47.5 130.5v332h86v-321q0 -61 27.5 -89.5t92.5 -28.5q46 0 98 13v426h86
v-478q-46 -13 -64 -16q-33 -23 -48 -49.5z" />
    <glyph glyph-name="Wcircumflex" unicode="&#x174;" horiz-adv-x="921" 
d="M906 692l-190 -692h-107l-147 538l-147 -538h-109l-191 692h93l152 -605l161 605h85l161 -603l149 603h90zM409 884q24 6 53 6t53 -6l93 -121h-31q-33 5 -60 24t-55 52q-56 -66 -119 -76h-28z" />
    <glyph glyph-name="wcircumflex" unicode="&#x175;" horiz-adv-x="733" 
d="M734 496l-164 -496h-82l-120 377l-122 -377h-79l-168 496h90l121 -401l119 401h80l125 -404l115 404h85zM503 581h-26q-31 6 -54 25t-57 64q-34 -43 -58 -63t-54 -26h-23l92 146q17 4 44 4q24 0 41 -3z" />
    <glyph glyph-name="Ycircumflex" unicode="&#x176;" horiz-adv-x="524" 
d="M307 288v-288h-89v288l-221 404h95l172 -326l171 326h92zM210 884q24 6 53 6t53 -6l93 -121h-31q-33 5 -60 24t-55 52q-56 -66 -119 -76h-28z" />
    <glyph glyph-name="ycircumflex" unicode="&#x177;" horiz-adv-x="456" 
d="M458 496l-195 -561q-27 -79 -69 -119t-107 -40q-25 0 -44 6q0 44 5 72q16 -4 30 -4q29 0 50.5 11t39 38t31.5 74l-200 523h91l148 -417l133 417h87zM365 581h-26q-31 6 -54 25t-57 64q-34 -43 -58 -63t-54 -26h-23l92 146q17 4 44 4q24 0 41 -3z" />
    <glyph glyph-name="Ydieresis" unicode="&#x178;" horiz-adv-x="524" 
d="M307 288v-288h-89v288l-221 404h95l172 -326l171 326h92zM129 782.5q-15 15.5 -15 39.5q0 23 15.5 38t38.5 15t38 -15t15 -38q0 -24 -15 -39.5t-38 -15.5q-24 0 -39 15.5zM319 782.5q-15 15.5 -15 38.5q0 24 15 38.5t38 14.5t37.5 -14.5t14.5 -38.5t-14.5 -39t-37.5 -15
t-38 15.5z" />
    <glyph glyph-name="Zacute" unicode="&#x179;" horiz-adv-x="504" 
d="M482 79q-5 -54 -9 -79h-446q0 38 6 66l330 547h-332q4 54 10 79h433q0 -28 -6 -64l-331 -549h345zM250 877q9 2 24.5 3.5t31.5 1.5q36 0 60 -8q-29 -43 -72.5 -74.5t-90.5 -36.5h-17z" />
    <glyph glyph-name="zacute" unicode="&#x17a;" horiz-adv-x="436" 
d="M407 73q-3 -35 -11 -73h-366q0 29 3 54l250 369h-249q3 39 10 73h353q0 -27 -3 -51l-254 -372h267zM210 717q20 7 50 11t53 4q-8 -36 -29 -69t-50 -56.5t-60 -31.5h-5z" />
    <glyph glyph-name="Zdotaccent" unicode="&#x17b;" horiz-adv-x="504" 
d="M482 79q-5 -54 -9 -79h-446q0 38 6 66l330 547h-332q4 54 10 79h433q0 -28 -6 -64l-331 -549h345zM208.5 781q-14.5 15 -14.5 39t15 38.5t38 14.5t37.5 -14.5t14.5 -38.5t-14.5 -39t-37.5 -15q-24 0 -38.5 15z" />
    <glyph glyph-name="zdotaccent" unicode="&#x17c;" horiz-adv-x="436" 
d="M407 73q-3 -35 -11 -73h-366q0 29 3 54l250 369h-249q3 39 10 73h353q0 -27 -3 -51l-254 -372h267zM175.5 615.5q-15.5 15.5 -15.5 40.5t15.5 40.5t39.5 15.5t39.5 -15.5t15.5 -40.5q0 -24 -16 -40t-39 -16q-24 0 -39.5 15.5z" />
    <glyph glyph-name="Zcaron" unicode="&#x17d;" horiz-adv-x="504" 
d="M482 79q-5 -54 -9 -79h-446q0 38 6 66l330 547h-332q4 54 10 79h433q0 -28 -6 -64l-331 -549h345zM299 766q-20 -5 -53 -5t-53 5l-93 122h31q33 -6 60.5 -25t54.5 -52q57 68 119 77h28z" />
    <glyph glyph-name="zcaron" unicode="&#x17e;" horiz-adv-x="436" 
d="M407 73q-3 -35 -11 -73h-366q0 29 3 54l250 369h-249q3 39 10 73h353q0 -27 -3 -51l-254 -372h267zM352 730l-92 -147q-17 -4 -43 -4q-27 0 -42 4l-95 147h26q31 -6 54 -25.5t57 -64.5q34 43 58 63t54 27h23z" />
    <glyph glyph-name="longs" unicode="&#x17f;" horiz-adv-x="303" 
d="M64 544q0 82 44.5 122.5t130.5 40.5q44 0 77 -10q0 -23 -3.5 -47t-3.5 -27q-13 5 -31 8t-34 3q-50 0 -72 -25t-22 -77v-532h-86v544z" />
    <glyph glyph-name="uni018F" unicode="&#x18f;" horiz-adv-x="607" 
d="M443.5 661.5q68.5 -45.5 97.5 -126.5t29 -195q0 -107 -29.5 -187t-89.5 -124t-151 -44q-92 0 -151 44.5t-86 122t-27 180.5v38h444q-3 88 -24.5 144t-70 84.5t-130.5 28.5q-102 0 -192 -53q0 23 2.5 46t8.5 40q34 20 80.5 33.5t105.5 13.5q115 0 183.5 -45.5zM480 293
h-353q5 -112 49 -170t125 -58q165 0 179 228z" />
    <glyph glyph-name="florin" unicode="&#x192;" 
d="M348 624q-16 -10 -22 -30t-6 -52v-81h126q-4 -48 -8 -69h-118v-243q0 -79 -39 -120t-116 -41q-41 0 -74 11q0 27 6 73q35 -11 61 -11q76 0 76 92v239h-109v69h109v85q0 161 151 161q40 0 74 -10q0 -28 -6 -74q-14 5 -30.5 8t-30.5 3q-28 0 -44 -10z" />
    <glyph glyph-name="Aringacute" unicode="&#x1fa;" horiz-adv-x="560" 
d="M418 166h-280l-53 -166h-85l224 685q19 5 50.5 8.5t58.5 3.5l227 -697h-90zM394 244l-114 368l-117 -368h231zM225 756q-24 13 -37.5 35t-13.5 50q0 27 13.5 49.5t37.5 35t54 12.5t53.5 -13t37 -35t13.5 -50q0 -27 -13.5 -49t-37.5 -35t-53 -13q-30 0 -54 13zM316 804
q14 14 14 36t-14 36t-37 14t-37.5 -14t-14.5 -35q0 -23 14 -37t38 -14q23 0 37 14zM281 1100q9 2 24.5 3.5t31.5 1.5q36 0 60 -8q-29 -43 -72.5 -74.5t-90.5 -36.5h-17z" />
    <glyph glyph-name="aringacute" unicode="&#x1fb;" horiz-adv-x="507" 
d="M363.5 501q40.5 -7 78.5 -20v-481h-79l-5 66q-44 -78 -130 -78q-90 0 -141.5 64.5t-51.5 193.5q0 125 58.5 193.5t179.5 68.5q50 0 90.5 -7zM356 106v321q-40 10 -85 10q-79 0 -113.5 -49.5t-34.5 -139.5q0 -96 32.5 -142.5t94.5 -46.5t106 47zM211 579q-24 13 -38 36
t-14 53t14 53t38 36t53 13t52.5 -13t37.5 -36.5t14 -52.5q0 -30 -13.5 -53t-37.5 -36t-53 -13t-53 13zM301 630.5q14 15.5 14 37.5t-14 37.5t-37 15.5t-37 -15t-14 -38q0 -22 14 -37.5t37 -15.5t37 15.5zM257 959q20 7 50 11t53 4q-8 -36 -29 -69t-50 -56.5t-60 -31.5h-5z
" />
    <glyph glyph-name="AEacute" unicode="&#x1fc;" horiz-adv-x="834" 
d="M803 78q-2 -45 -9 -79h-388v184h-254q-30 -64 -80 -183h-92q75 181 167.5 358t196.5 334h190v-1h268q0 -31 -8 -79h-301v-222h280q-2 -43 -8 -79h-272v-233h310zM406 260v353h-18q-94 -139 -199 -353h217zM605 877q9 2 24.5 3.5t31.5 1.5q36 0 60 -8q-29 -43 -72.5 -74.5
t-90.5 -36.5h-17z" />
    <glyph glyph-name="aeacute" unicode="&#x1fd;" horiz-adv-x="788" 
d="M744.5 256q-1.5 -17 -3.5 -27h-324q4 -90 43.5 -130t116.5 -40q81 0 152 42q-2 -20 -5.5 -42t-7.5 -37q-31 -15 -67.5 -24.5t-76.5 -9.5q-130 0 -192 78q-29 -37 -75 -57.5t-106 -20.5q-48 0 -85.5 17t-58 49t-20.5 76q0 54 26 89t84.5 54.5t157.5 23.5l27 1q1 2 1 5l1 6
q2 26 2 36q0 49 -28.5 71t-88.5 22q-38 0 -77.5 -10.5t-74.5 -28.5q2 47 8 73q30 16 72.5 26t91.5 10q114 0 156 -59q27 28 65.5 43.5t87.5 15.5q67 0 111.5 -27.5t66.5 -76.5t22 -114q0 -17 -1.5 -34zM456.5 400.5q-31.5 -36.5 -38.5 -104.5h240q-1 65 -29 103t-86 38
q-55 0 -86.5 -36.5zM292 74.5q36 16.5 58 43.5q-19 46 -22 113l-25 -1q-71 -3 -111 -14.5t-55.5 -31.5t-15.5 -51q0 -36 24 -55.5t66 -19.5q45 0 81 16.5zM388 717q20 7 50 11t53 4q-8 -36 -29 -69t-50 -56.5t-60 -31.5h-5z" />
    <glyph glyph-name="Oslashacute" unicode="&#x1fe;" horiz-adv-x="664" 
d="M611 486.5q17 -63.5 17 -140.5q0 -111 -34.5 -192.5t-101 -125t-159.5 -43.5q-106 0 -178 55l-70 -95q-24 28 -34 61l58 80q-36 47 -54.5 113t-18.5 147q0 110 34.5 191.5t101 125.5t159.5 44q113 0 186 -62l72 99q19 -27 31 -66l-59 -81q33 -47 50 -110.5zM164 161
l302 415q-50 53 -135 53q-100 0 -152.5 -73.5t-52.5 -209.5q0 -114 38 -185zM485.5 136q51.5 72 51.5 210q0 105 -32 174l-300 -411q51 -45 128 -45q101 0 152.5 72zM353 877q9 2 24.5 3.5t31.5 1.5q36 0 60 -8q-29 -43 -72.5 -74.5t-90.5 -36.5h-17z" />
    <glyph glyph-name="oslashacute" unicode="&#x1ff;" horiz-adv-x="513" 
d="M469 351q13 -46 13 -103q0 -80 -26.5 -138.5t-77.5 -90t-122 -31.5q-72 0 -122 32l-58 -81q-15 18 -22.5 29.5t-12.5 27.5l46 65q-27 33 -41.5 80.5t-14.5 106.5q0 81 26 139t76.5 89.5t122.5 31.5q76 0 128 -35l59 82q27 -40 32 -62l-45 -63q26 -33 39 -79zM139 133
l200 277q-31 27 -83 27q-69 0 -103 -48.5t-34 -140.5q0 -69 20 -115zM358.5 108q34.5 49 34.5 140q0 63 -17 108l-197 -274q31 -23 77 -23q68 0 102.5 49zM249 717q20 7 50 11t53 4q-8 -36 -29 -69t-50 -56.5t-60 -31.5h-5z" />
    <glyph glyph-name="Scommaaccent" unicode="&#x218;" horiz-adv-x="501" 
d="M123 -4q-47 11 -82 32q2 26 4.5 43t7.5 33q37 -21 82 -32t87 -11q71 0 111 30t40 84q0 36 -17.5 61.5t-44.5 41.5t-65 31l-51 20q-73 30 -113 76t-40 120q0 86 57.5 134t169.5 48q94 0 170 -32q-1 -22 -4 -38.5t-9 -34.5q-38 14 -78 21.5t-76 7.5q-70 0 -105 -28t-35 -76
q0 -50 31 -78.5t83 -49.5l53 -20q76 -29 120.5 -75t44.5 -125q0 -57 -27.5 -100.5t-82 -68.5t-133.5 -25q-51 0 -98 11zM206 -75q23 6 42.5 9.5t40.5 3.5q-4 -57 -22.5 -102.5t-49.5 -76.5h-22q11 76 11 166z" />
    <glyph glyph-name="scommaaccent" unicode="&#x219;" horiz-adv-x="408" 
d="M103 -3q-39 9 -68 25q1 21 3.5 37.5t8.5 34.5q30 -17 65.5 -26t68.5 -9q107 0 107 68q0 21 -8.5 34.5t-25.5 23.5t-46 21l-41 16q-41 16 -69 35t-44 46.5t-16 67.5q0 65 46 101t132 36q80 0 142 -22q-4 -41 -11 -71q-33 11 -62 16.5t-63 5.5q-100 0 -100 -64
q0 -28 20 -46.5t64 -35.5l41 -16q66 -25 97 -57t31 -84q0 -43 -21.5 -76t-64.5 -51.5t-104 -18.5q-43 0 -82 9zM163 -75q23 6 42.5 9.5t40.5 3.5q-4 -57 -22.5 -102.5t-49.5 -76.5h-22q11 76 11 166z" />
    <glyph glyph-name="uni021A" unicode="&#x21a;" horiz-adv-x="501" 
d="M487 613h-194v-613h-87v613h-200q2 47 9 79h481q-5 -54 -9 -79zM209 -75q23 6 42.5 9.5t40.5 3.5q-4 -57 -22.5 -102.5t-49.5 -76.5h-22q11 76 11 166z" />
    <glyph glyph-name="uni021B" unicode="&#x21b;" horiz-adv-x="327" 
d="M164 82q19 -21 58 -21q18 0 37.5 5t35.5 14q-2 -25 -5.5 -47.5t-4.5 -26.5q-35 -18 -82 -18q-68 0 -106 37.5t-38 115.5v491q36 13 86 13v-149h152q-3 -45 -8 -72h-144v-274q0 -47 19 -68zM145 -75q23 6 42.5 9.5t40.5 3.5q-4 -57 -22.5 -102.5t-49.5 -76.5h-22
q11 76 11 166z" />
    <glyph glyph-name="uni0237" unicode="&#x237;" horiz-adv-x="215" 
d="M-48 -219q1 23 9 69q22 -5 40 -5q32 0 47.5 17t15.5 56v578h86v-573q0 -78 -34 -114.5t-104 -36.5q-34 0 -60 9z" />
    <glyph glyph-name="uni0259" unicode="&#x259;" horiz-adv-x="491" 
d="M398 439q61 -69 61 -195q0 -74 -23.5 -131.5t-72.5 -91t-121 -33.5q-100 0 -150.5 59.5t-50.5 162.5q0 17 1.5 34.5t3.5 30.5h325q-7 86 -47.5 124t-115.5 38q-81 0 -149 -41q1 18 4.5 40.5t7.5 37.5q57 34 147 34q119 0 180 -69zM332 97q32 38 38 108h-240
q2 -146 116 -146q54 0 86 38z" />
    <glyph glyph-name="circumflex" unicode="&#x2c6;" horiz-adv-x="372" 
d="M322 581h-26q-31 6 -54 25t-57 64q-34 -43 -58 -63t-54 -26h-23l92 146q17 4 44 4q24 0 41 -3z" />
    <glyph glyph-name="caron" unicode="&#x2c7;" horiz-adv-x="372" 
d="M322 730l-92 -147q-17 -4 -43 -4q-27 0 -42 4l-95 147h26q31 -6 54 -25.5t57 -64.5q34 43 58 63t54 27h23z" />
    <glyph glyph-name="uni02C9" unicode="&#x2c9;" horiz-adv-x="352" 
d="M59 690h243q-4 -42 -8 -65h-244q2 34 9 65z" />
    <glyph glyph-name="breve" unicode="&#x2d8;" horiz-adv-x="376" 
d="M91.5 614q-33.5 37 -41.5 97q28 7 61 7q6 -37 24.5 -59t52.5 -22t52.5 21.5t24.5 59.5q37 0 61 -7q-8 -59 -42.5 -96.5t-95.5 -37.5q-63 0 -96.5 37z" />
    <glyph glyph-name="dotaccent" unicode="&#x2d9;" horiz-adv-x="210" 
d="M65.5 615.5q-15.5 15.5 -15.5 40.5t15.5 40.5t39.5 15.5t39.5 -15.5t15.5 -40.5q0 -24 -16 -40t-39 -16q-24 0 -39.5 15.5z" />
    <glyph glyph-name="ring" unicode="&#x2da;" horiz-adv-x="309" 
d="M102 579q-24 13 -38 36t-14 53t14 53t38 36t53 13t52.5 -13t37.5 -36.5t14 -52.5q0 -30 -13.5 -53t-37.5 -36t-53 -13t-53 13zM192 630.5q14 15.5 14 37.5t-14 37.5t-37 15.5t-37 -15t-14 -38q0 -22 14 -37.5t37 -15.5t37 15.5z" />
    <glyph glyph-name="ogonek" unicode="&#x2db;" horiz-adv-x="265" 
d="M78 -189.5q-28 26.5 -28 74.5q0 36 21.5 68.5t67.5 62.5l50 -16q-37 -22 -54 -50t-17 -53q0 -27 14 -41t37 -14t46 9q-3 -25 -8 -58q-22 -9 -52 -9q-49 0 -77 26.5z" />
    <glyph glyph-name="tilde" unicode="&#x2dc;" horiz-adv-x="335" 
d="M194.5 599.5q-16.5 9.5 -41.5 27.5q-5 3 -11.5 8t-13.5 9t-11 4q-8 0 -11.5 -6t-3.5 -20v-32h-52v41q0 74 56 74q17 0 35 -10t40 -27q3 -2 11.5 -8.5t14.5 -9.5t10 -3q16 0 16 25v33h52v-43q0 -38 -15 -55t-43 -17q-16 0 -32.5 9.5z" />
    <glyph glyph-name="hungarumlaut" unicode="&#x2dd;" horiz-adv-x="396" 
d="M116 719q14 6 41 9t50 3q-32 -75 -68 -110.5t-82 -47.5h-7zM257 719q14 6 40 9t49 3q-30 -74 -68.5 -112t-80.5 -46h-7z" />
    <glyph glyph-name="gravecomb" unicode="&#x300;" horiz-adv-x="0" 
d="M-54 575q-32 8 -60.5 31.5t-49.5 56t-30 69.5q23 0 53 -4t50 -11l41 -142h-4z" />
    <glyph glyph-name="acutecomb" unicode="&#x301;" horiz-adv-x="0" 
d="M-153 717q20 7 50 11t53 4q-8 -36 -29 -69t-50 -56.5t-60 -31.5h-5z" />
    <glyph glyph-name="uni0302" unicode="&#x302;" horiz-adv-x="0" 
d="M-50 581h-26q-31 6 -54 25t-57 64q-34 -43 -58 -63t-54 -26h-23l92 146q17 4 44 4q24 0 41 -3z" />
    <glyph glyph-name="tildecomb" unicode="&#x303;" horiz-adv-x="0" 
d="M-140.5 599.5q-16.5 9.5 -41.5 27.5q-5 3 -11.5 8t-13.5 9t-11 4q-8 0 -11.5 -6t-3.5 -20v-32h-52v41q0 74 56 74q17 0 35 -10t40 -27q3 -2 11.5 -8.5t14.5 -9.5t10 -3q16 0 16 25v33h52v-43q0 -38 -15 -55t-43 -17q-16 0 -32.5 9.5z" />
    <glyph glyph-name="uni0304" unicode="&#x304;" horiz-adv-x="0" 
d="M-293 690h243q-4 -42 -8 -65h-244q2 34 9 65z" />
    <glyph glyph-name="uni0306" unicode="&#x306;" horiz-adv-x="0" 
d="M-284.5 614q-33.5 37 -41.5 97q28 7 61 7q6 -37 24.5 -59t52.5 -22t52.5 21.5t24.5 59.5q37 0 61 -7q-8 -59 -42.5 -96.5t-95.5 -37.5q-63 0 -96.5 37z" />
    <glyph glyph-name="uni0307" unicode="&#x307;" horiz-adv-x="0" 
d="M-144.5 615.5q-15.5 15.5 -15.5 40.5t15.5 40.5t39.5 15.5t39.5 -15.5t15.5 -40.5q0 -24 -16 -40t-39 -16q-24 0 -39.5 15.5z" />
    <glyph glyph-name="uni0308" unicode="&#x308;" horiz-adv-x="0" 
d="M-313.5 618.5q-14.5 15.5 -14.5 38.5q0 24 14.5 38.5t37.5 14.5t37 -14.5t14 -38.5t-14 -39t-37 -15t-37.5 15.5zM-139.5 618q-14.5 15 -14.5 39t14.5 38.5t37.5 14.5t37.5 -14.5t14.5 -38.5t-14.5 -39t-37.5 -15t-37.5 15z" />
    <glyph glyph-name="uni030A" unicode="&#x30a;" horiz-adv-x="0" 
d="M-207 579q-24 13 -38 36t-14 53t14 53t38 36t53 13t52.5 -13t37.5 -36.5t14 -52.5q0 -30 -13.5 -53t-37.5 -36t-53 -13t-53 13zM-117 630.5q14 15.5 14 37.5t-14 37.5t-37 15.5t-37 -15t-14 -38q0 -22 14 -37.5t37 -15.5t37 15.5z" />
    <glyph glyph-name="uni030B" unicode="&#x30b;" horiz-adv-x="0" 
d="M-280 719q14 6 41 9t50 3q-32 -75 -68 -110.5t-82 -47.5h-7zM-139 719q14 6 40 9t49 3q-30 -74 -68.5 -112t-80.5 -46h-7z" />
    <glyph glyph-name="uni030C" unicode="&#x30c;" horiz-adv-x="0" 
d="M-50 730l-92 -147q-17 -4 -43 -4q-27 0 -42 4l-95 147h26q31 -6 54 -25.5t57 -64.5q34 43 58 63t54 27h23z" />
    <glyph glyph-name="uni0313" unicode="&#x313;" horiz-adv-x="0" 
d="M-133 700q23 6 42.5 9.5t40.5 3.5q-4 -57 -22.5 -102.5t-49.5 -76.5h-22q11 76 11 166z" />
    <glyph glyph-name="uni0326" unicode="&#x326;" horiz-adv-x="0" 
d="M-133 -75q23 6 42.5 9.5t40.5 3.5q-4 -57 -22.5 -102.5t-49.5 -76.5h-22q11 76 11 166z" />
    <glyph glyph-name="uni0327" unicode="&#x327;" horiz-adv-x="0" 
d="M-67.5 -77q17.5 -18 17.5 -47q0 -38 -25 -60t-74 -22q-34 0 -64 12q2 28 8 47q30 -10 52 -10q21 0 33 8.5t12 24.5q0 19 -19.5 28.5t-62.5 10.5l31 98l56 -4l-20 -57q38 -11 55.5 -29z" />
    <glyph glyph-name="uni0328" unicode="&#x328;" horiz-adv-x="0" 
d="M-187 -189.5q-28 26.5 -28 74.5q0 36 21.5 68.5t67.5 62.5l50 -16q-37 -22 -54 -50t-17 -53q0 -27 14 -41t37 -14t46 9q-3 -25 -8 -58q-22 -9 -52 -9q-49 0 -77 26.5z" />
    <glyph glyph-name="Delta" unicode="&#x394;" 
d="M537 0h-524l207 684q21 6 49.5 9t55.5 3zM424 77l-150 526l-153 -526h303z" />
    <glyph glyph-name="Delta" unicode="&#x3b4;" 
d="M537 0h-524l207 684q21 6 49.5 9t55.5 3zM424 77l-150 526l-153 -526h303z" />
    <glyph glyph-name="Omega" unicode="&#x3a9;" 
d="M365 80h129q-2 -38 -8 -80h-181v148q108 30 108 236q0 81 -18 136t-50.5 82.5t-77.5 27.5t-77.5 -28t-50 -82.5t-17.5 -132.5q0 -106 28.5 -164t82.5 -75v-147h-1v-1h-194q1 19 3 40.5t4 39.5h129l1 22q-42 20 -74 60t-50 98t-18 130q0 96 28 167.5t80.5 110.5t126.5 39
q75 0 128.5 -40t81 -111.5t27.5 -166.5q0 -71 -18.5 -128.5t-50.5 -97t-72 -58.5z" />
    <glyph glyph-name="Omega" unicode="&#x3c9;" 
d="M365 80h129q-2 -38 -8 -80h-181v148q108 30 108 236q0 81 -18 136t-50.5 82.5t-77.5 27.5t-77.5 -28t-50 -82.5t-17.5 -132.5q0 -106 28.5 -164t82.5 -75v-147h-1v-1h-194q1 19 3 40.5t4 39.5h129l1 22q-42 20 -74 60t-50 98t-18 130q0 96 28 167.5t80.5 110.5t126.5 39
q75 0 128.5 -40t81 -111.5t27.5 -166.5q0 -71 -18.5 -128.5t-50.5 -97t-72 -58.5z" />
    <glyph glyph-name="mu" unicode="&#x3bc;" 
d="M470 496v-478q-101 -30 -185 -30q-78 0 -125 24q4 -73 4 -154v-70h-84v708h86v-321q0 -61 27.5 -89.5t92.5 -28.5q46 0 98 13v426h86z" />
    <glyph glyph-name="pi" unicode="&#x3c0;" 
d="M451 72q13 -14 37 -14t42 7q-2 -41 -8 -67q-12 -5 -29 -7.5t-33 -2.5q-51 0 -79.5 29.5t-28.5 84.5v324h-174v-427h-86v427h-84q2 40 7 69h521q-3 -38 -8 -69h-90v-312q0 -28 13 -42z" />
    <glyph glyph-name="uni0E3F" unicode="&#xe3f;" 
d="M453 95q-23 -42 -67.5 -67t-106.5 -28v-131h-57v131h-148v692q31 7 71 11t77 4v92q12 6 28 9.5t29 3.5v-108q90 -10 133.5 -56t43.5 -121q0 -58 -26.5 -98.5t-73.5 -61.5q60 -19 90 -65t30 -111q0 -54 -23 -96zM222 632q-22 0 -64 -4v-232h64v236zM347.5 589
q-22.5 29 -68.5 38v-228q41 8 66 35t25 79q0 47 -22.5 76zM222 73v248h-64v-248h64zM361 109q31 30 31 88q0 52 -29.5 83t-83.5 39v-245q51 5 82 35z" />
    <glyph glyph-name="Wgrave" unicode="&#x1e80;" horiz-adv-x="921" 
d="M906 692l-190 -692h-107l-147 538l-147 -538h-109l-191 692h93l152 -605l161 605h85l161 -603l149 603h90zM534 763q-47 5 -90.5 36.5t-72.5 74.5q10 4 26.5 6t33.5 2q15 0 31 -1.5t24 -3.5l65 -114h-17z" />
    <glyph glyph-name="wgrave" unicode="&#x1e81;" horiz-adv-x="733" 
d="M734 496l-164 -496h-82l-120 377l-122 -377h-79l-168 496h90l121 -401l119 401h80l125 -404l115 404h85zM418 575q-32 8 -60.5 31.5t-49.5 56t-30 69.5q23 0 53 -4t50 -11l41 -142h-4z" />
    <glyph glyph-name="Wacute" unicode="&#x1e82;" horiz-adv-x="921" 
d="M906 692l-190 -692h-107l-147 538l-147 -538h-109l-191 692h93l152 -605l161 605h85l161 -603l149 603h90zM464 877q9 2 24.5 3.5t31.5 1.5q36 0 60 -8q-29 -43 -72.5 -74.5t-90.5 -36.5h-17z" />
    <glyph glyph-name="wacute" unicode="&#x1e83;" horiz-adv-x="733" 
d="M734 496l-164 -496h-82l-120 377l-122 -377h-79l-168 496h90l121 -401l119 401h80l125 -404l115 404h85zM361 717q20 7 50 11t53 4q-8 -36 -29 -69t-50 -56.5t-60 -31.5h-5z" />
    <glyph glyph-name="Wdieresis" unicode="&#x1e84;" horiz-adv-x="921" 
d="M906 692l-190 -692h-107l-147 538l-147 -538h-109l-191 692h93l152 -605l161 605h85l161 -603l149 603h90zM329 782.5q-15 15.5 -15 39.5q0 23 15.5 38t38.5 15t38 -15t15 -38q0 -24 -15 -39.5t-38 -15.5q-24 0 -39 15.5zM519 782.5q-15 15.5 -15 38.5q0 24 15 38.5
t38 14.5t37.5 -14.5t14.5 -38.5t-14.5 -39t-37.5 -15t-38 15.5z" />
    <glyph glyph-name="wdieresis" unicode="&#x1e85;" horiz-adv-x="733" 
d="M734 496l-164 -496h-82l-120 377l-122 -377h-79l-168 496h90l121 -401l119 401h80l125 -404l115 404h85zM242.5 618.5q-14.5 15.5 -14.5 38.5q0 24 14.5 38.5t37.5 14.5t37 -14.5t14 -38.5t-14 -39t-37 -15t-37.5 15.5zM416.5 618q-14.5 15 -14.5 39t14.5 38.5t37.5 14.5
t37.5 -14.5t14.5 -38.5t-14.5 -39t-37.5 -15t-37.5 15z" />
    <glyph glyph-name="uni1E9E" unicode="&#x1e9e;" horiz-adv-x="621" 
d="M496 376.5q42 -27.5 67 -72.5t25 -102q0 -67 -29 -115t-81.5 -73t-122.5 -25q-55 0 -86 10q1 25 7 77q42 -10 75 -10q68 0 107 36t39 102q0 45 -20.5 76t-57.5 47t-85 16h-33v52l152 221h-147q-35 0 -67.5 -16.5t-53 -53.5t-20.5 -94v-452h-88v462q0 108 53 169t165 61
h275q0 -27 -7 -64l-159 -217q50 -7 92 -34.5z" />
    <glyph glyph-name="Ygrave" unicode="&#x1ef2;" horiz-adv-x="524" 
d="M307 288v-288h-89v288l-221 404h95l172 -326l171 326h92zM335 763q-47 5 -90.5 36.5t-72.5 74.5q10 4 26.5 6t33.5 2q15 0 31 -1.5t24 -3.5l65 -114h-17z" />
    <glyph glyph-name="ygrave" unicode="&#x1ef3;" horiz-adv-x="456" 
d="M458 496l-195 -561q-27 -79 -69 -119t-107 -40q-25 0 -44 6q0 44 5 72q16 -4 30 -4q29 0 50.5 11t39 38t31.5 74l-200 523h91l148 -417l133 417h87zM280 575q-32 8 -60.5 31.5t-49.5 56t-30 69.5q23 0 53 -4t50 -11l41 -142h-4z" />
    <glyph glyph-name="uni2011" unicode="&#x2011;" horiz-adv-x="362" 
d="M49 312h273q-2 -37 -8 -75h-274q2 42 9 75z" />
    <glyph glyph-name="endash" unicode="&#x2013;" horiz-adv-x="525" 
d="M49 312h436q-2 -37 -8 -75h-437q2 43 9 75z" />
    <glyph glyph-name="emdash" unicode="&#x2014;" horiz-adv-x="878" 
d="M49 315h789q-2 -37 -8 -75h-790q2 41 9 75z" />
    <glyph glyph-name="quoteleft" unicode="&#x2018;" horiz-adv-x="246" 
d="M163.5 585.5q-8.5 -56.5 -10.5 -120.5h-79q8 83 18.5 130.5t35.5 100.5q40 10 60 10q-16 -64 -24.5 -120.5z" />
    <glyph glyph-name="quoteright" unicode="&#x2019;" horiz-adv-x="246" 
d="M77.5 578.5q7.5 54.5 10.5 113.5q24 8 41.5 11t41.5 3q-5 -70 -18 -128t-35 -120h-60q12 66 19.5 120.5z" />
    <glyph glyph-name="quotesinglbase" unicode="&#x201a;" horiz-adv-x="246" 
d="M77.5 -30.5q7.5 54.5 10.5 113.5q24 8 41.5 11t41.5 3q-5 -70 -18 -128t-35 -120h-60q12 66 19.5 120.5z" />
    <glyph glyph-name="quotedblleft" unicode="&#x201c;" horiz-adv-x="393" 
d="M163.5 585.5q-8.5 -56.5 -10.5 -120.5h-79q8 83 18.5 130.5t35.5 100.5q40 10 60 10q-16 -64 -24.5 -120.5zM311.5 585.5q-8.5 -56.5 -10.5 -120.5h-79q8 83 18.5 130.5t35.5 100.5q40 10 60 10q-16 -64 -24.5 -120.5z" />
    <glyph glyph-name="quotedblright" unicode="&#x201d;" horiz-adv-x="393" 
d="M77.5 578.5q7.5 54.5 10.5 113.5q24 8 41.5 11t41.5 3q-5 -70 -18 -128t-35 -120h-60q12 66 19.5 120.5zM225.5 578.5q7.5 54.5 10.5 113.5q24 8 41.5 11t41.5 3q-5 -70 -18 -128t-35 -120h-60q12 66 19.5 120.5z" />
    <glyph glyph-name="quotedblbase" unicode="&#x201e;" horiz-adv-x="393" 
d="M77.5 -30.5q7.5 54.5 10.5 113.5q24 8 41.5 11t41.5 3q-5 -70 -18 -128t-35 -120h-60q12 66 19.5 120.5zM225.5 -29.5q7.5 54.5 10.5 113.5q24 8 41.5 11t41.5 3q-5 -70 -18 -128t-35 -120h-60q12 66 19.5 120.5z" />
    <glyph glyph-name="dagger" unicode="&#x2020;" horiz-adv-x="523" 
d="M447 423h-150v-423h-73v423h-157q2 45 9 73h148v196h73v-196h159q-2 -39 -9 -73z" />
    <glyph glyph-name="daggerdbl" unicode="&#x2021;" horiz-adv-x="526" 
d="M298 245h159q-2 -44 -8 -73h-151v-172h-72v172h-158q2 39 9 73h149v202h-157q0 33 8 73h149v172h72v-172h160q-2 -41 -9 -73h-151v-202z" />
    <glyph glyph-name="bullet" unicode="&#x2022;" horiz-adv-x="406" 
d="M150 242.5q-24 13.5 -37 36.5t-13 51t13 51.5t37 37t55 13.5q30 0 53 -13.5t35.5 -36.5t12.5 -52t-12.5 -52t-35.5 -36t-53 -13q-31 0 -55 13.5z" />
    <glyph glyph-name="ellipsis" unicode="&#x2026;" horiz-adv-x="748" 
d="M112 7q-17 17 -17 41t17 40.5t41 16.5t40.5 -16.5t16.5 -40.5t-16.5 -41t-40.5 -17t-41 17zM334.5 7q-16.5 17 -16.5 41t16.5 40.5t40.5 16.5t41 -16.5t17 -40.5t-17 -41t-41 -17t-40.5 17zM554.5 7q-16.5 17 -16.5 41t16.5 40.5t40.5 16.5t41 -16.5t17 -40.5t-17 -41
t-41 -17t-40.5 17z" />
    <glyph glyph-name="perthousand" unicode="&#x2030;" horiz-adv-x="1146" 
d="M78.5 388q-38.5 49 -38.5 138t38.5 136.5t109.5 47.5q70 0 108 -47.5t38 -136.5t-38 -138t-108 -49q-71 0 -109.5 49zM531 692q38 5 83 7l-355 -699q-36 -5 -81 -7zM242 431.5q17 29.5 17 94.5q0 63 -17 93t-54 30t-54.5 -30t-17.5 -93q0 -64 17 -94t55 -30q37 0 54 29.5
zM502.5 34q-38.5 49 -38.5 138q0 90 38 137t110 47q70 0 108 -47.5t38 -136.5q0 -90 -38 -138.5t-108 -48.5q-71 0 -109.5 49zM863.5 33q-38.5 49 -38.5 138q0 90 38 137t110 47q70 0 108 -47.5t38 -136.5t-38 -138t-108 -49q-71 0 -109.5 49zM666 77.5q17 29.5 17 93.5
t-17 94t-54 30t-54.5 -30.5t-17.5 -93.5q0 -64 17 -93.5t55 -29.5q37 0 54 29.5zM1027 76.5q17 29.5 17 93.5t-17 94t-54 30t-54.5 -30.5t-17.5 -93.5q0 -64 17 -93.5t55 -29.5q37 0 54 29.5z" />
    <glyph glyph-name="guilsinglleft" unicode="&#x2039;" horiz-adv-x="323" 
d="M47 275l152 229q33 -9 67 -29l-131 -200l131 -199q-13 -8 -31.5 -16.5t-35.5 -12.5z" />
    <glyph glyph-name="guilsinglright" unicode="&#x203a;" horiz-adv-x="323" 
d="M88.5 59.5q-18.5 8.5 -31.5 16.5l131 199l-131 200q34 20 67 29l152 -229l-152 -228q-17 4 -35.5 12.5z" />
    <glyph glyph-name="fraction" unicode="&#x2044;" horiz-adv-x="234" 
d="M253 692q36 5 82 7l-354 -699q-38 -5 -82 -7z" />
    <glyph glyph-name="uni2070" unicode="&#x2070;" horiz-adv-x="374" 
d="M76 500.5q-36 44.5 -36 136.5t36 137t111 45t111 -45t36 -137t-36 -136.5t-111 -44.5t-111 44.5zM229.5 528.5q15.5 11.5 22 37.5t6.5 71q0 46 -6.5 72t-22 37.5t-42.5 11.5t-42 -12t-21.5 -38t-6.5 -71t6.5 -70.5t21.5 -37.5t42 -12t42.5 11.5z" />
    <glyph glyph-name="uni2074" unicode="&#x2074;" horiz-adv-x="333" 
d="M314 537h-51v-70h-65v70h-188q0 16 1.5 28.5t3.5 26.5q32 58 80 119.5t95 101.5q17 3 35.5 4t37.5 1v-225h59q-1 -23 -8 -56zM198 593v152q-64 -65 -120 -152h120z" />
    <glyph glyph-name="uni2075" unicode="&#x2075;" horiz-adv-x="343" 
d="M262.5 659q42.5 -28 42.5 -84q0 -58 -44.5 -89t-125.5 -31q-40 0 -92 8q0 27 8 62q48 -8 80 -8q50 0 74 14t24 43q0 27 -24.5 40.5t-76.5 13.5q-38 0 -70 -7l16 190h221q0 -15 -1.5 -33t-3.5 -27h-149l-7 -64h16q70 0 112.5 -28z" />
    <glyph glyph-name="uni2076" unicode="&#x2076;" horiz-adv-x="364" 
d="M294 661q34 -30 34 -83q0 -35 -16 -63t-47 -44t-74 -16q-75 0 -113 45t-38 128q0 91 42.5 141t128.5 50q29 0 54.5 -4.5t42.5 -12.5q0 -22 -7 -56q-37 15 -88 15t-75 -28t-27 -84q14 20 38.5 31t54.5 11q56 0 90 -30zM240.5 529q17.5 17 17.5 43q0 28 -18 44.5t-53 16.5
q-20 0 -40 -7t-36 -20q6 -94 78 -94q34 0 51.5 17z" />
    <glyph glyph-name="uni2077" unicode="&#x2077;" horiz-adv-x="304" 
d="M288 809q0 -32 -5 -55q-50 -76 -85 -146.5t-56 -140.5h-74q39 131 135 285h-191q0 13 1.5 30.5t3.5 26.5h271z" />
    <glyph glyph-name="uni2078" unicode="&#x2078;" horiz-adv-x="375" 
d="M339 557q0 -31 -18.5 -54t-53 -35.5t-81.5 -12.5q-71 0 -110 25t-39 71q0 59 78 81q-34 14 -51.5 36t-17.5 53q0 30 17 52t49 34.5t78 12.5q44 0 75 -11.5t47 -31.5t16 -46q0 -29 -16.5 -49t-53.5 -32q81 -29 81 -93zM134.5 755q-17.5 -12 -17.5 -33q0 -40 73 -55l9 -2
q60 16 60 57q0 19 -17.5 32t-52.5 13q-37 0 -54.5 -12zM248 523.5q20 12.5 20 34.5q0 19 -17.5 31.5t-55.5 20.5l-19 5q-68 -19 -68 -57q0 -23 21.5 -35t59.5 -12q39 0 59 12.5z" />
    <glyph glyph-name="uni2079" unicode="&#x2079;" horiz-adv-x="364" 
d="M286 775q38 -45 38 -128q0 -92 -42.5 -141.5t-128.5 -49.5q-29 0 -54.5 4.5t-42.5 12.5q0 22 7 56q37 -15 88 -15t75.5 28.5t27.5 84.5q-13 -20 -38 -31.5t-56 -11.5q-56 0 -90 30t-34 83q0 35 16 63t47 44t74 16q75 0 113 -45zM217 649q20 7 37 20q-6 93 -79 93
q-34 0 -51.5 -16.5t-17.5 -42.5q0 -28 18.5 -44.5t52.5 -16.5q20 0 40 7z" />
    <glyph glyph-name="uni207D" unicode="&#x207d;" horiz-adv-x="253" 
d="M63 655q0 151 68 275q33 -1 57 -16q-29 -63 -43.5 -125t-14.5 -134q0 -78 14.5 -146.5t45.5 -130.5q-14 -5 -29 -8t-30 -4q-68 128 -68 289z" />
    <glyph glyph-name="uni207E" unicode="&#x207e;" horiz-adv-x="253" 
d="M93 370q-15 3 -30 8q31 62 45.5 130.5t14.5 146.5q0 73 -14.5 135t-43.5 124q24 15 58 16q67 -125 67 -275q0 -160 -67 -289q-15 1 -30 4z" />
    <glyph glyph-name="uni207F" unicode="&#x207f;" horiz-adv-x="390" 
d="M314.5 666q34.5 -36 34.5 -99v-273h-78v256q0 43 -15.5 65t-54.5 22q-37 0 -79 -16v-327h-77v370q47 21 87.5 29.5t81.5 8.5q66 0 100.5 -36z" />
    <glyph glyph-name="uni2080" unicode="&#x2080;" horiz-adv-x="374" 
d="M76 -178.5q-36 44.5 -36 136.5t36 137t111 45t111 -45t36 -137t-36 -136.5t-111 -44.5t-111 44.5zM229.5 -150.5q15.5 11.5 22 37.5t6.5 71q0 46 -6.5 72t-22 37.5t-42.5 11.5t-42 -12t-21.5 -38t-6.5 -71t6.5 -70.5t21.5 -37.5t42 -12t42.5 11.5z" />
    <glyph glyph-name="uni2081" unicode="&#x2081;" horiz-adv-x="261" 
d="M113 130.5q44 8.5 84 9.5v-352h-73v285q-44 -8 -100 -25q0 19 2 33t6 28q37 13 81 21.5z" />
    <glyph glyph-name="uni2082" unicode="&#x2082;" horiz-adv-x="321" 
d="M283 -157q0 -14 -2 -30.5t-4 -24.5h-249v23q0 30 9 52t30.5 42t60.5 42q29 17 43.5 27.5t20.5 21t6 25.5q0 58 -85 58q-22 0 -44 -4t-40 -11q0 31 7 62q43 13 94 13q69 0 106 -28.5t37 -78.5q0 -39 -17 -65.5t-62 -51.5q-44 -24 -64 -40t-26 -32h179z" />
    <glyph glyph-name="uni2083" unicode="&#x2083;" horiz-adv-x="320" 
d="M287 -118q0 -50 -43 -77.5t-127 -27.5q-44 0 -89 9q0 20 9 56q38 -8 80 -8q50 0 72.5 12t22.5 38q0 28 -23.5 39t-70.5 11h-48v55h38q44 0 68 11t24 39q0 21 -19 32t-55 11q-51 0 -91 -14q0 12 2.5 28.5t5.5 28.5q35 14 90 14q66 0 103 -24t37 -71q0 -31 -20.5 -50
t-59.5 -29q94 -13 94 -83z" />
    <glyph glyph-name="uni2084" unicode="&#x2084;" horiz-adv-x="333" 
d="M314 -142h-51v-70h-65v70h-188q0 16 1.5 28.5t3.5 26.5q32 58 80 119.5t95 101.5q17 3 35.5 4t37.5 1v-225h59q-1 -23 -8 -56zM198 -86v152q-64 -65 -120 -152h120z" />
    <glyph glyph-name="uni2085" unicode="&#x2085;" horiz-adv-x="343" 
d="M262.5 -20q42.5 -28 42.5 -84q0 -58 -44.5 -89t-125.5 -31q-40 0 -92 8q0 27 8 62q48 -8 80 -8q50 0 74 14t24 43q0 27 -24.5 40.5t-76.5 13.5q-38 0 -70 -7l16 190h221q0 -15 -1.5 -33t-3.5 -27h-149l-7 -64h16q70 0 112.5 -28z" />
    <glyph glyph-name="uni2086" unicode="&#x2086;" horiz-adv-x="364" 
d="M294 -18q34 -30 34 -83q0 -35 -16 -63t-47 -44t-74 -16q-75 0 -113 45t-38 128q0 91 42.5 141t128.5 50q29 0 54.5 -4.5t42.5 -12.5q0 -22 -7 -56q-37 15 -88 15t-75 -28t-27 -84q14 20 38.5 31t54.5 11q56 0 90 -30zM240.5 -150q17.5 17 17.5 43q0 28 -18 44.5t-53 16.5
q-20 0 -40 -7t-36 -20q6 -94 78 -94q34 0 51.5 17z" />
    <glyph glyph-name="uni2087" unicode="&#x2087;" horiz-adv-x="304" 
d="M288 130q0 -32 -5 -55q-50 -76 -85 -146.5t-56 -140.5h-74q39 131 135 285h-191q0 13 1.5 30.5t3.5 26.5h271z" />
    <glyph glyph-name="uni2088" unicode="&#x2088;" horiz-adv-x="375" 
d="M339 -122q0 -31 -18.5 -54t-53 -35.5t-81.5 -12.5q-71 0 -110 25t-39 71q0 59 78 81q-34 14 -51.5 36t-17.5 53q0 30 17 52t49 34.5t78 12.5q44 0 75 -11.5t47 -31.5t16 -46q0 -29 -16.5 -49t-53.5 -32q81 -29 81 -93zM134.5 76q-17.5 -12 -17.5 -33q0 -40 73 -55l9 -2
q60 16 60 57q0 19 -17.5 32t-52.5 13q-37 0 -54.5 -12zM248 -155.5q20 12.5 20 34.5q0 19 -17.5 31.5t-55.5 20.5l-19 5q-68 -19 -68 -57q0 -23 21.5 -35t59.5 -12q39 0 59 12.5z" />
    <glyph glyph-name="uni2089" unicode="&#x2089;" horiz-adv-x="364" 
d="M286 96q38 -45 38 -128q0 -92 -42.5 -141.5t-128.5 -49.5q-29 0 -54.5 4.5t-42.5 12.5q0 22 7 56q37 -15 88 -15t75.5 28.5t27.5 84.5q-13 -20 -38 -31.5t-56 -11.5q-56 0 -90 30t-34 83q0 35 16 63t47 44t74 16q75 0 113 -45zM217 -30q20 7 37 20q-6 93 -79 93
q-34 0 -51.5 -16.5t-17.5 -42.5q0 -28 18.5 -44.5t52.5 -16.5q20 0 40 7z" />
    <glyph glyph-name="uni208D" unicode="&#x208d;" horiz-adv-x="253" 
d="M63 -15q0 151 68 275q33 -1 57 -16q-29 -63 -43.5 -125t-14.5 -134q0 -78 14.5 -146.5t45.5 -130.5q-14 -5 -29 -8t-30 -4q-68 128 -68 289z" />
    <glyph glyph-name="uni208E" unicode="&#x208e;" horiz-adv-x="253" 
d="M93 -300q-15 3 -30 8q31 62 45.5 130.5t14.5 146.5q0 73 -14.5 135t-43.5 124q24 15 58 16q67 -125 67 -275q0 -160 -67 -289q-15 1 -30 4z" />
    <glyph glyph-name="uni2099" unicode="&#x2099;" horiz-adv-x="390" 
d="M314.5 160q34.5 -36 34.5 -99v-273h-78v256q0 43 -15.5 65t-54.5 22q-37 0 -79 -16v-327h-77v370q47 21 87.5 29.5t81.5 8.5q66 0 100.5 -36z" />
    <glyph glyph-name="colonmonetary" unicode="&#x20a1;" 
d="M439 614l-98 -550h2q46 0 116 29q-2 -38 -11 -84q-27 -12 -56.5 -18t-56.5 -6h-8l-21 -117h-62l22 125q-18 3 -45 15l-25 -139h-63l32 177q-47 43 -71.5 116t-24.5 176q0 162 53.5 253t159.5 111l17 97q9 6 30 9.5t35 3.5l-19 -105q13 0 47 -4l17 95q10 5 31 9t34 4
l-21 -120q20 -6 35 -14q-2 -45 -12 -78q-13 9 -37 15zM379 627q-28 2 -36 2h-12l-94 -533q17 -13 43 -23zM186 164l80 451q-56 -25 -82.5 -93.5t-26.5 -183.5q0 -108 29 -174z" />
    <glyph glyph-name="franc" unicode="&#x20a3;" 
d="M209 615v-225h225q-2 -43 -8 -77h-217v-108h141q-4 -48 -8 -69h-133v-136h-85v136h-95v69h95v487h333q-2 -43 -7 -77h-241z" />
    <glyph glyph-name="uni20A5" unicode="&#x20a5;" 
d="M479.5 545.5q28.5 -40.5 28.5 -109.5v-357h-89v347q0 38 -13.5 58.5t-44.5 20.5q-17 0 -36 -8l-11 -59v-5v-354h-69l-18 -91h-67l71 371v69q0 42 -13.5 59.5t-45.5 17.5q-21 0 -47 -7v-419h-84v474q25 14 61 23.5t69 9.5q63 0 98 -27l25 130q12 6 33.5 9.5t37.5 3.5
l-23 -121q22 5 46 5q63 0 91.5 -40.5z" />
    <glyph glyph-name="uni20A6" unicode="&#x20a6;" 
d="M544 319h-68v-319h-76l-150 319h-95v-11v-308h-81v319h-70v68h70v299q23 6 47.5 10t32.5 4l151 -313h90v48v251q36 14 81 14v-313h77q-3 -37 -9 -68zM218 387l-23 48q-19 39 -42 96q2 -92 2 -144h63zM396 319h-58l7 -14q27 -55 53 -121q-2 86 -2 135z" />
    <glyph glyph-name="uni20A8" unicode="&#x20a8;" 
d="M267.5 365q-20.5 -49 -61.5 -72l94 -293h-78l-83 275h-35v-275h-72v689q17 7 46 12t51 5q86 0 122.5 -58.5t36.5 -154.5q0 -79 -20.5 -128zM104 350h34q22 0 38 11t25.5 41.5t9.5 86.5q0 74 -18.5 108t-59.5 34q-14 0 -29 -3v-278zM498.5 206q21.5 -34 21.5 -80
q0 -63 -31 -100.5t-91 -37.5q-20 0 -41 7t-38 20q0 51 7 72q14 -13 31 -19.5t34 -6.5q62 0 62 63q0 19 -7.5 33.5t-18.5 25.5t-28 25l-16 14q-37 32 -55.5 65t-18.5 83q0 42 14.5 73t40.5 48t59 17q44 0 79 -22q-2 -47 -7 -75q-30 21 -61 21q-27 0 -42.5 -15t-15.5 -46
q0 -24 11 -43t34 -38l16 -14q40 -36 61.5 -70z" />
    <glyph glyph-name="uni20A9" unicode="&#x20a9;" 
d="M537 337h-52l-47 -337h-98l-44 337h-41l-43 -337h-99l-51 337h-54v68h44l-43 287h84l38 -287h64l28 287h107l29 -287h60l31 287h84l-40 -287h51q-4 -48 -8 -68zM287 405l-12 91l-12 -91h24zM188 337h-49l28 -214zM412 337h-46l23 -217z" />
    <glyph glyph-name="Euro" unicode="&#x20ac;" 
d="M279.5 104q39.5 -40 107.5 -40q28 0 60.5 7.5t55.5 21.5q-2 -38 -11 -84q-27 -12 -56.5 -18t-56.5 -6q-101 0 -162 61t-80 182h-96v72h89q-1 15 -1 46q0 24 1 35h-89v72h95q17 127 79 190.5t167 63.5q33 0 68.5 -8t58.5 -22q-1 -42 -13 -78q-21 14 -50.5 22t-58.5 8
q-71 0 -110.5 -43t-52.5 -133h244q-1 -30 -8 -72h-242q-1 -11 -1 -35q0 -31 1 -46h240q-1 -36 -9 -72h-223q14 -84 53.5 -124z" />
    <glyph glyph-name="uni20AD" unicode="&#x20ad;" 
d="M219 319h-22v-319h-84v319h-89v67h89v300q17 6 40.5 10t43.5 4v-314h20l184 306h91l-186 -306h150q-1 -16 -3.5 -34.5t-5.5 -32.5h-136l194 -319h-99z" />
    <glyph glyph-name="uni20AE" unicode="&#x20ae;" 
d="M317 615v-182l134 44q0 -32 -5 -70l-129 -43v-82l134 44q0 -32 -5 -69l-129 -43v-214h-85v185l-124 -41v70l124 40v82l-124 -41v69l124 41v210h-175q2 35 7 77h429q-2 -43 -8 -77h-168z" />
    <glyph glyph-name="uni20B1" unicode="&#x20b1;" 
d="M539 501h-73q2 -22 2 -35q0 -16 -2 -46h72q-1 -18 -3.5 -37t-6.5 -35h-77q-23 -69 -74.5 -106t-127.5 -37h-83v-204h-84v347h-78v72h78v81h-78v72h78v119q40 7 76 11t75 4q85 0 139 -36t78 -98h98q-1 -34 -9 -72zM166 573h190q-35 62 -118 62q-36 0 -72 -8v-54zM377 501
h-211v-81h211q2 28 2 44q0 13 -2 37zM359 348h-193v-73h78q84 0 115 73z" />
    <glyph glyph-name="uni20B2" unicode="&#x20b2;" 
d="M494 22q-30 -15 -71.5 -25t-83.5 -11v-117h-68v119q-115 17 -171.5 111t-56.5 249q0 157 57.5 247.5t170.5 107.5v96q13 6 32.5 9.5t35.5 3.5v-105q93 -3 151 -31q-2 -28 -13 -76q-62 30 -138 31v-569q32 1 70 10v283h85v-333zM271 67v557q-70 -19 -105 -87.5t-35 -188.5
q0 -246 140 -281z" />
    <glyph glyph-name="uni20B4" unicode="&#x20b4;" 
d="M508 453q0 -28 -7 -72h-460v72h321q25 32 25 74q0 48 -33.5 76t-100.5 28q-35 0 -73.5 -7.5t-73.5 -21.5q-9 36 -13 73q73 32 162 32q107 0 162 -43t55 -121q0 -54 -27 -90h63zM41 300h458q-1 -32 -8 -72h-320q-12 -24 -12 -53q0 -54 38 -84t104 -30q40 0 83 11t78 32
q5 -16 7 -32.5t3 -43.5q-32 -21 -77 -32t-93 -11q-74 0 -125.5 22t-77 61t-25.5 89q0 38 19 71h-52v72z" />
    <glyph glyph-name="uni20B5" unicode="&#x20b5;" 
d="M359 65q26 2 53 9t47 19q-2 -38 -11 -84q-44 -18 -89 -23v-117h-68v119q-102 16 -154 106t-52 252q0 326 206 358v95q13 6 32.5 9.5t35.5 3.5v-106q30 -2 58 -9.5t47 -19.5q0 -40 -12 -78q-19 12 -43.5 20t-49.5 9v-563zM201.5 156q28.5 -67 89.5 -85v551
q-61 -18 -89.5 -85.5t-28.5 -190.5t28.5 -190z" />
    <glyph glyph-name="uni20B8" unicode="&#x20b8;" 
d="M500 692q0 -30 -7 -72h-444v72h451zM49 539h442q-1 -32 -8 -72h-166v-467h-85v467h-183v72z" />
    <glyph glyph-name="uni20B9" unicode="&#x20b9;" 
d="M403 521h75q-3 -38 -10 -69h-65q-10 -77 -68 -121t-168 -48l255 -282h-105l-252 280v68h84q77 0 116.5 24.5t48.5 78.5h-249v69h249q-9 56 -48.5 79.5t-113.5 23.5h-88v68h420q-1 -20 -4.5 -41.5t-4.5 -26.5h-120q39 -39 48 -103z" />
    <glyph glyph-name="uni20BA" unicode="&#x20ba;" 
d="M514 262q-2 -129 -64 -195.5t-186 -66.5h-147v260l-82 -28v69l82 28v82l-82 -28v69l82 28v206q18 6 44 10t47 4v-189l170 57q0 -38 -4 -69l-166 -57v-82l170 57q0 -38 -4 -69l-166 -57v-210h59q79 0 121 40.5t49 132.5q46 7 77 8z" />
    <glyph glyph-name="uni20BC" unicode="&#x20bc;" 
d="M417.5 506q43.5 -31 66 -82.5t22.5 -118.5v-305h-85v304q0 76 -26.5 117t-83.5 49v-314h-74v314q-56 -10 -82.5 -50.5t-26.5 -115.5v-304h-84v305q0 66 22.5 117t66 82.5t104.5 39.5v148q13 6 35 9.5t39 3.5v-161q63 -7 106.5 -38z" />
    <glyph glyph-name="uni20BD" unicode="&#x20bd;" 
d="M208 264v-79h219q-2 -33 -8 -68h-211v-116h-84v116h-85v68h85v79h-85v68h85v360q40 7 74.5 11t77.5 4q123 0 178.5 -59t55.5 -155q0 -112 -59 -170.5t-175 -58.5h-68zM208 629v-292h63q80 0 115 38t35 117q0 69 -34 106t-110 37q-35 0 -69 -6z" />
    <glyph glyph-name="uni20BF" unicode="&#x20bf;" 
d="M433.5 67q-42.5 -50 -119.5 -63v-135h-58v131h-47v-131h-57v131h-78v692q35 8 78 11v96q12 6 27.5 9.5t29.5 3.5v-105h17q20 0 30 -1v93q12 6 28 9.5t30 3.5v-114q72 -16 107 -60t35 -111q0 -58 -26.5 -98.5t-73.5 -61.5q60 -19 90 -65t30 -111q0 -74 -42.5 -124z
M158 628v-232h87q53 0 89 26.5t36 90.5q0 58 -34.5 88.5t-105.5 30.5q-24 0 -72 -4zM354.5 102.5q37.5 29.5 37.5 94.5q0 60 -38.5 92t-107.5 32h-88v-248h98q61 0 98.5 29.5z" />
    <glyph glyph-name="afii61289" unicode="&#x2113;" horiz-adv-x="360" 
d="M181 82q18 -20 57 -20q18 0 36 4.5t33 13.5q-3 -41 -10 -74q-33 -18 -79 -18q-67 0 -104 37t-37 112v417q0 72 33.5 112.5t98.5 40.5q59 0 91 -35t32 -94q0 -74 -47 -139t-122 -115v-177q0 -45 18 -65zM174.5 614.5q-11.5 -20.5 -11.5 -68.5v-154q41 36 64 78.5t23 88.5
q0 39 -10 57.5t-31 18.5q-23 0 -34.5 -20.5z" />
    <glyph glyph-name="trademark" unicode="&#x2122;" horiz-adv-x="728" 
d="M650 381h-55l-7 114q-4 72 -5 111q-11 -42 -36 -118l-35 -107h-42l-36 104q-11 30 -19 57.5t-18 61.5q-1 -50 -5 -109l-8 -114h-54l27 306q17 5 31 7.5t32 2.5l72 -242l68 232q16 6 28.5 8t34.5 2zM80 675q3 15 3 17h230q0 -18 -4 -46h-86v-265h-53v265h-93q0 14 3 29z
" />
    <glyph glyph-name="uni2126" unicode="&#x2126;" 
d="M365 80h129q-2 -38 -8 -80h-181v148q108 30 108 236q0 81 -18 136t-50.5 82.5t-77.5 27.5t-77.5 -28t-50 -82.5t-17.5 -132.5q0 -106 28.5 -164t82.5 -75v-147h-1v-1h-194q1 19 3 40.5t4 39.5h129l1 22q-42 20 -74 60t-50 98t-18 130q0 96 28 167.5t80.5 110.5t126.5 39
q75 0 128.5 -40t81 -111.5t27.5 -166.5q0 -71 -18.5 -128.5t-50.5 -97t-72 -58.5z" />
    <glyph glyph-name="estimated" unicode="&#x212e;" horiz-adv-x="831" 
d="M204.5 38q-89.5 47 -137 126.5t-47.5 173.5q0 95 48 179t138 135t209 51q143 0 231.5 -53.5t126.5 -136.5t38 -177h-641q-3 0 -4 -1t-1 -3v-183q0 -22 7 -30q41 -48 103.5 -75t138.5 -27q78 0 139.5 29t118.5 82h70q-41 -48 -85 -78t-102 -44.5t-139 -14.5
q-122 0 -211.5 47zM660 358q3 0 4.5 1t1.5 4v187q0 7 -3 14t-8 12q-52 52 -118.5 77.5t-124.5 25.5q-62 0 -125 -25.5t-113 -75.5q-4 -4 -6.5 -12t-2.5 -16v-187q0 -3 1 -4t4 -1h490z" />
    <glyph glyph-name="oneeighth" unicode="&#x215b;" horiz-adv-x="779" 
d="M113 687.5q44 8.5 84 9.5v-352h-73v285q-44 -8 -100 -25q0 19 2 33t6 28q37 13 81 21.5zM467 692q36 5 82 7l-354 -699q-38 -5 -82 -7zM715 90q0 -31 -18.5 -54t-53 -35.5t-81.5 -12.5q-71 0 -110 25t-39 71q0 59 78 81q-34 14 -51.5 36t-17.5 53q0 30 17 52t49 34.5
t78 12.5q44 0 75 -11.5t47 -31.5t16 -46q0 -29 -16.5 -49t-53.5 -32q81 -29 81 -93zM510.5 288q-17.5 -12 -17.5 -33q0 -40 73 -55l9 -2q60 16 60 57q0 19 -17.5 32t-52.5 13q-37 0 -54.5 -12zM624 56.5q20 12.5 20 34.5q0 19 -17.5 31.5t-55.5 20.5l-19 5q-68 -19 -68 -57
q0 -23 21.5 -35t59.5 -12q39 0 59 12.5z" />
    <glyph glyph-name="threeeighths" unicode="&#x215c;" horiz-adv-x="792" 
d="M287 439q0 -50 -43 -77.5t-127 -27.5q-44 0 -89 9q0 20 9 56q38 -8 80 -8q50 0 72.5 12t22.5 38q0 28 -23.5 39t-70.5 11h-48v55h38q44 0 68 11t24 39q0 21 -19 32t-55 11q-51 0 -91 -14q0 12 2.5 28.5t5.5 28.5q35 14 90 14q66 0 103 -24t37 -71q0 -31 -20.5 -50
t-59.5 -29q94 -13 94 -83zM521 692q36 5 82 7l-354 -699q-38 -5 -82 -7zM759 90q0 -31 -18.5 -54t-53 -35.5t-81.5 -12.5q-71 0 -110 25t-39 71q0 59 78 81q-34 14 -51.5 36t-17.5 53q0 30 17 52t49 34.5t78 12.5q44 0 75 -11.5t47 -31.5t16 -46q0 -29 -16.5 -49t-53.5 -32
q81 -29 81 -93zM554.5 288q-17.5 -12 -17.5 -33q0 -40 73 -55l9 -2q60 16 60 57q0 19 -17.5 32t-52.5 13q-37 0 -54.5 -12zM668 56.5q20 12.5 20 34.5q0 19 -17.5 31.5t-55.5 20.5l-19 5q-68 -19 -68 -57q0 -23 21.5 -35t59.5 -12q39 0 59 12.5z" />
    <glyph glyph-name="fiveeighths" unicode="&#x215d;" horiz-adv-x="821" 
d="M262.5 537q42.5 -28 42.5 -84q0 -58 -44.5 -89t-125.5 -31q-40 0 -92 8q0 27 8 62q48 -8 80 -8q50 0 74 14t24 43q0 27 -24.5 40.5t-76.5 13.5q-38 0 -70 -7l16 190h221q0 -15 -1.5 -33t-3.5 -27h-149l-7 -64h16q70 0 112.5 -28zM538 692q36 5 82 7l-354 -699
q-38 -5 -82 -7zM783 90q0 -31 -18.5 -54t-53 -35.5t-81.5 -12.5q-71 0 -110 25t-39 71q0 59 78 81q-34 14 -51.5 36t-17.5 53q0 30 17 52t49 34.5t78 12.5q44 0 75 -11.5t47 -31.5t16 -46q0 -29 -16.5 -49t-53.5 -32q81 -29 81 -93zM578.5 288q-17.5 -12 -17.5 -33
q0 -40 73 -55l9 -2q60 16 60 57q0 19 -17.5 32t-52.5 13q-37 0 -54.5 -12zM692 56.5q20 12.5 20 34.5q0 19 -17.5 31.5t-55.5 20.5l-19 5q-68 -19 -68 -57q0 -23 21.5 -35t59.5 -12q39 0 59 12.5z" />
    <glyph glyph-name="seveneighths" unicode="&#x215e;" horiz-adv-x="678" 
d="M288 687q0 -32 -5 -55q-50 -76 -85 -146.5t-56 -140.5h-74q39 131 135 285h-191q0 13 1.5 30.5t3.5 26.5h271zM427 692q36 5 82 7l-354 -699q-38 -5 -82 -7zM662 90q0 -31 -18.5 -54t-53 -35.5t-81.5 -12.5q-71 0 -110 25t-39 71q0 59 78 81q-34 14 -51.5 36t-17.5 53
q0 30 17 52t49 34.5t78 12.5q44 0 75 -11.5t47 -31.5t16 -46q0 -29 -16.5 -49t-53.5 -32q81 -29 81 -93zM457.5 288q-17.5 -12 -17.5 -33q0 -40 73 -55l9 -2q60 16 60 57q0 19 -17.5 32t-52.5 13q-37 0 -54.5 -12zM571 56.5q20 12.5 20 34.5q0 19 -17.5 31.5t-55.5 20.5
l-19 5q-68 -19 -68 -57q0 -23 21.5 -35t59.5 -12q39 0 59 12.5z" />
    <glyph glyph-name="arrowleft" unicode="&#x2190;" horiz-adv-x="640" 
d="M628 302l-502 2l189 -216q-8 -11 -21.5 -22.5t-27.5 -18.5l-254 290l254 289q13 -8 26 -20t22 -26l-186 -211l500 1v-68z" />
    <glyph glyph-name="arrowup" unicode="&#x2191;" horiz-adv-x="640" 
d="M608 409q-8 -13 -20 -26t-26 -22l-211 186l1 -500h-68l2 502l-216 -189q-12 8 -23 21.5t-18 27.5l290 254z" />
    <glyph glyph-name="arrowright" unicode="&#x2192;" horiz-adv-x="640" 
d="M628 337l-254 -290q-14 7 -27.5 18.5t-21.5 22.5l189 216l-502 -2v68l500 -1l-186 211q9 14 22 26t26 20z" />
    <glyph glyph-name="arrowdown" unicode="&#x2193;" horiz-adv-x="640" 
d="M608 292l-289 -253l-290 253q7 14 18 27.5t23 22.5l216 -190l-2 502h68l-1 -499l211 186q26 -16 46 -49z" />
    <glyph glyph-name="arrowboth" unicode="&#x2194;" horiz-adv-x="785" 
d="M773 337l-254 -290q-14 7 -27.5 18.5t-21.5 22.5l189 216h-31v-2h-471v2h-31l189 -216q-8 -11 -21.5 -22.5t-27.5 -18.5l-254 290l254 289q13 -8 26 -20t22 -26l-186 -211h29v1h471v-1h29l-186 211q9 14 22 26t26 20z" />
    <glyph glyph-name="arrowupdn" unicode="&#x2195;" horiz-adv-x="640" 
d="M608 241l-289 -253l-290 253q7 14 18 27.5t23 22.5l215 -189v481l-215 -189q-12 8 -23 21.5t-18 27.5l290 254l289 -254q-20 -33 -46 -49l-209 184v-472l209 184q26 -16 46 -49zM314 608h5l-3 2z" />
    <glyph glyph-name="uni2196" unicode="&#x2196;" horiz-adv-x="640" 
d="M509 96l-327 376l-37 -278q-6 -1 -19 -1q-26 0 -47 7l50 381l386 1q4 -15 4 -36q0 -15 -3 -29l-287 1l332 -377z" />
    <glyph glyph-name="uni2197" unicode="&#x2197;" horiz-adv-x="640" 
d="M561 200q-23 -7 -48 -7q-13 0 -19 1l-37 278l-327 -376l-52 45l332 377l-287 -1q-3 14 -3 29q0 21 4 36l386 -1z" />
    <glyph glyph-name="uni2198" unicode="&#x2198;" horiz-adv-x="640" 
d="M511 541q22 0 46 -8l-50 -381h-386q-4 13 -4 35q0 16 3 29l287 -1l-332 377l51 45l328 -376l37 278q14 2 20 2z" />
    <glyph glyph-name="uni2199" unicode="&#x2199;" horiz-adv-x="640" 
d="M517 223q3 -13 3 -29q0 -23 -4 -36h-386l-51 382q23 7 50 7q11 0 17 -1l37 -278l327 375l52 -45l-333 -377z" />
    <glyph glyph-name="partialdiff" unicode="&#x2202;" 
d="M443 633.5q54 -73.5 54 -199.5q0 -108 -27 -209.5t-87 -169t-155 -67.5q-62 0 -101 29t-56.5 77t-17.5 108q0 80 26 150t77.5 113t124.5 43q45 0 77 -18t52 -55q-1 104 -37 151.5t-104 47.5q-57 0 -112 -23q0 16 3 37.5t9 39.5q55 19 106 19q114 0 168 -73.5zM322.5 109
q35.5 41 56 106t28.5 140q-44 83 -122 83q-45 0 -78 -31.5t-50 -83t-17 -111.5q0 -70 23.5 -107t75.5 -37q48 0 83.5 41z" />
    <glyph glyph-name="emptyset" unicode="&#x2205;" horiz-adv-x="835" 
d="M698 577q40 -47 61.5 -106t21.5 -126q0 -102 -48.5 -184.5t-132 -129.5t-182.5 -47q-68 0 -130 23t-112 65l-99 -96l-41 38l101 98q-40 47 -61.5 106.5t-21.5 126.5q0 102 49 184t132.5 129t182.5 47q68 0 130 -22.5t111 -64.5l99 96l41 -39zM149.5 249
q15.5 -45 44.5 -82l408 396q-37 32 -84.5 49t-99.5 17q-78 0 -143 -37t-103 -102t-38 -145q0 -51 15.5 -96zM686.5 440.5q-15.5 45.5 -44.5 82.5l-409 -396q37 -32 84.5 -49.5t100.5 -17.5q77 0 142.5 37t103.5 102t38 146q0 50 -15.5 95.5z" />
    <glyph glyph-name="uni2206" unicode="&#x2206;" 
d="M537 0h-524l207 684q21 6 49.5 9t55.5 3zM424 77l-150 526l-153 -526h303z" />
    <glyph glyph-name="product" unicode="&#x220f;" 
d="M64 692h422v-904h-88v825h-247v-825h-87v904z" />
    <glyph glyph-name="summation" unicode="&#x2211;" 
d="M175 -134h313q-2 -43 -8 -78h-417q0 29 5 66l257 405l-261 369q2 35 10 64h414q-2 -43 -8 -79h-309l249 -352z" />
    <glyph glyph-name="minus" unicode="&#x2212;" 
d="M85 374h389q-1 -26 -9 -73h-389q1 29 9 73z" />
    <glyph glyph-name="uni2215" unicode="&#x2215;" 
d="M348 750q36 6 82 8l-255 -818h-79z" />
    <glyph glyph-name="uni2219" unicode="&#x2219;" 
d="M231 302.5q-18 17.5 -18 43.5q0 27 18 44.5t44 17.5t43 -17.5t17 -44.5q0 -26 -17 -43.5t-43 -17.5t-44 17.5z" />
    <glyph glyph-name="radical" unicode="&#x221a;" horiz-adv-x="900" 
d="M850 617h-272l-291 -829h-95l-174 447h88l134 -358l275 815h345q-1 -34 -10 -75z" />
    <glyph glyph-name="infinity" unicode="&#x221e;" 
d="M470.5 497q28.5 -20 44 -57.5t15.5 -86.5q0 -47 -15.5 -85.5t-44.5 -60.5t-66 -22q-46 0 -76.5 20.5t-56.5 72.5q-25 -48 -52.5 -69.5t-72.5 -21.5q-38 0 -66.5 20.5t-44 57.5t-15.5 86q0 47 15.5 85.5t44 60.5t66.5 22q45 0 74.5 -22t56.5 -76q18 33 35 53.5t39 31.5
t53 11q38 0 66.5 -20zM185.5 266q13.5 8 26.5 26.5t30 53.5q-17 40 -29 61.5t-26 32t-34 10.5q-31 0 -49 -27t-18 -71q0 -41 17.5 -67.5t50.5 -26.5q18 0 31.5 8zM446 282q18 27 18 70q0 42 -17.5 68t-50.5 26q-18 0 -31.5 -8.5t-26.5 -28t-30 -55.5q17 -37 29.5 -58
t26.5 -31t33 -10q31 0 49 27z" />
    <glyph glyph-name="integral" unicode="&#x222b;" 
d="M84 -213q2 36 8 72q32 -10 61 -10q40 0 59.5 23.5t19.5 71.5v603q0 78 39.5 119t117.5 41q43 0 76 -10q-2 -46 -7 -73q-37 11 -61 11q-41 0 -60 -23t-19 -69v-602q0 -81 -39.5 -123t-116.5 -42q-44 0 -78 11z" />
    <glyph glyph-name="approxequal" unicode="&#x2248;" 
d="M309 370.5q-20 8.5 -48 25.5q-20 13 -34.5 19.5t-26.5 6.5q-19 0 -29.5 -13t-20.5 -43q-43 6 -64 12q15 63 42.5 87t64.5 24q22 0 42.5 -9t48.5 -26q23 -14 36 -20t26 -6q19 0 31 14t23 52q35 -3 64 -11q-16 -66 -45.5 -93.5t-66.5 -27.5q-23 0 -43 8.5zM309 186.5
q-20 8.5 -48 25.5q-20 13 -34.5 19.5t-26.5 6.5q-19 0 -29.5 -13t-20.5 -43q-43 6 -64 12q15 63 42.5 87t64.5 24q22 0 42.5 -9t48.5 -26q23 -14 36 -20t26 -6q19 0 31 14t23 52q35 -3 64 -11q-16 -66 -45.5 -93.5t-66.5 -27.5q-23 0 -43 8.5z" />
    <glyph glyph-name="notequal" unicode="&#x2260;" 
d="M286 288h188q-2 -39 -9 -74h-215l-67 -134l-53 29l52 105h-105q0 26 8 74h133l48 96h-189q0 27 8 73h217l64 130l55 -28l-51 -102h104q-2 -38 -9 -73h-131z" />
    <glyph glyph-name="lessequal" unicode="&#x2264;" 
d="M452 215l-372 141q0 21 6 61l376 140q0 -46 -5 -79l-267 -93l272 -93q-1 -31 -10 -77zM473 173q-1 -28 -9 -73h-389q1 26 9 73h389z" />
    <glyph glyph-name="greaterequal" unicode="&#x2265;" 
d="M87 294l267 93l-272 93q1 31 10 77l372 -141q0 -21 -6 -61l-376 -140q0 45 5 79zM473 173q-1 -28 -9 -73h-389q1 26 9 73h389z" />
    <glyph glyph-name="lozenge" unicode="&#x25ca;" horiz-adv-x="401" 
d="M0 355l154 337h95l152 -337l-154 -355h-91zM317 355l-116 264l-117 -264l118 -283z" />
    <glyph glyph-name="uniFEFF" unicode="&#xfeff;" horiz-adv-x="0" 
 />
    <glyph glyph-name="f_b.dlig" horiz-adv-x="803" 
d="M234 707q43 0 79 -10q-1 -37 -8 -73q-16 5 -34.5 8t-30.5 3q-48 0 -69 -23.5t-21 -74.5v-41h151q-2 -35 -8 -72h-143v-424h-86v538q0 169 170 169zM710.5 442q58.5 -66 58.5 -188q0 -126 -62 -196t-186 -70q-86 0 -165 30v674q38 13 86 13v-218q47 21 100 21
q110 0 168.5 -66zM643.5 110q37.5 51 37.5 140q0 92 -35.5 139.5t-111.5 47.5q-45 0 -92 -21v-345q38 -12 84 -12q80 0 117.5 51z" />
    <glyph glyph-name="f_f_b.dlig" horiz-adv-x="1074" 
d="M377.5 665q42.5 42 127.5 42q43 0 79 -10q-2 -41 -9 -73q-39 11 -65 11q-48 0 -68.5 -23.5t-20.5 -74.5v-41h151q0 -5 -2.5 -29t-5.5 -43h-143v-424h-86v424h-185v-424h-86v537q0 85 44 127.5t130 42.5q45 0 79 -10q0 -29 -6 -73q-38 11 -74 11q-42 0 -64.5 -25
t-22.5 -75v-39h185v42q0 85 42.5 127zM981.5 442q58.5 -66 58.5 -188q0 -126 -62.5 -196t-186.5 -70q-87 0 -164 30v674q36 13 86 13v-218q47 21 100 21q110 0 168.5 -66zM914.5 110q37.5 51 37.5 140q0 92 -35.5 139.5t-111.5 47.5q-47 0 -92 -21v-345q37 -12 84 -12
q80 0 117.5 51z" />
    <glyph glyph-name="f_f_h.dlig" horiz-adv-x="1077" 
d="M506 707q45 0 79 -10q0 -29 -8 -73q-16 5 -34.5 8t-30.5 3q-48 0 -68.5 -23.5t-20.5 -74.5v-41h151q-4 -42 -9 -72h-142v-424h-86v424h-187v-424h-86v537q0 85 44 127.5t130 42.5q45 0 79 -10q0 -29 -6 -73q-38 11 -74 11q-42 0 -64.5 -25t-22.5 -75v-39h187v42
q0 169 169 169zM1018 331v-331h-86v320q0 60 -26.5 88.5t-87.5 28.5q-51 0 -104 -21v-416h-86v692q35 13 86 13v-223q54 24 115 24q189 0 189 -175z" />
    <glyph glyph-name="f_f_j.dlig" horiz-adv-x="779" 
d="M631.5 615.5q-15.5 15.5 -15.5 40.5t15.5 40.5t39.5 15.5t39.5 -15.5t15.5 -40.5q0 -24 -15.5 -40t-39.5 -16t-39.5 15.5zM423 424v-424h-86v424h-187v-424h-86v537q0 85 44 127.5t130 42.5q45 0 79 -10q0 -29 -6 -73q-38 11 -74 11q-42 0 -64.5 -25t-22.5 -75v-39h187
v42q0 169 170 169q45 0 79 -10q-1 -37 -8 -73q-16 5 -34.5 8t-30.5 3q-48 0 -69 -23.5t-21 -74.5v-41h151q-2 -35 -8 -72h-143zM629 496h86v-573q0 -78 -34 -114.5t-104 -36.5q-34 0 -60 9q2 34 9 69q22 -5 40 -5q32 0 47.5 17t15.5 56v578z" />
    <glyph glyph-name="f_f_k.dlig" horiz-adv-x="1024" 
d="M506 707q45 0 79 -10q0 -29 -8 -73q-16 5 -34.5 8t-30.5 3q-48 0 -68.5 -23.5t-20.5 -74.5v-41h151q-4 -42 -9 -72h-142v-424h-86v424h-187v-424h-86v537q0 85 44 127.5t130 42.5q45 0 79 -10q0 -29 -6 -73q-38 11 -74 11q-42 0 -64.5 -25t-22.5 -75v-39h187v42
q0 169 169 169zM625 692q36 13 86 13v-705h-86v692zM1025 0h-104l-204 261v6l190 229h100l-195 -230z" />
    <glyph glyph-name="f_h.dlig" horiz-adv-x="805" 
d="M234 707q43 0 79 -10q-1 -37 -8 -73q-16 5 -34.5 8t-30.5 3q-48 0 -69 -23.5t-21 -74.5v-41h151q-2 -35 -8 -72h-143v-424h-86v538q0 169 170 169zM746 331v-331h-86v320q0 60 -26.5 88.5t-87.5 28.5q-52 0 -104 -21v-416h-86v692q35 13 86 13v-223q54 24 115 24
q189 0 189 -175z" />
    <glyph glyph-name="f_j.dlig" horiz-adv-x="505" 
d="M358.5 615.5q-15.5 15.5 -15.5 40.5t15.5 40.5t39.5 15.5t39.5 -15.5t15.5 -40.5q0 -24 -15.5 -40t-39.5 -16t-39.5 15.5zM150 424v-424h-86v538q0 169 170 169q43 0 79 -10q-1 -37 -8 -73q-16 5 -34.5 8t-30.5 3q-48 0 -69 -23.5t-21 -74.5v-41h151q-2 -35 -8 -72h-143z
M356 496h86v-573q0 -78 -34.5 -114.5t-104.5 -36.5q-33 0 -59 9q2 35 9 69q20 -5 39 -5q33 0 48.5 17t15.5 56v578z" />
    <glyph glyph-name="f_k.dlig" horiz-adv-x="752" 
d="M234 707q43 0 79 -10q-1 -37 -8 -73q-16 5 -34.5 8t-30.5 3q-48 0 -69 -23.5t-21 -74.5v-41h151q-2 -35 -8 -72h-143v-424h-86v538q0 169 170 169zM353 692q36 13 86 13v-705h-86v692zM753 0h-104l-204 261v6l190 229h99l-194 -230z" />
    <glyph glyph-name="t_f.dlig" horiz-adv-x="604" 
d="M164 82q19 -21 58 -21q18 0 37.5 5t35.5 14q-2 -25 -5.5 -47.5t-4.5 -26.5q-35 -18 -82 -18q-68 0 -106 37.5t-38 115.5v491q36 13 86 13v-149h152q-3 -45 -8 -72h-144v-274q0 -47 19 -68zM462.5 611q-21.5 -24 -21.5 -76v-39h160q0 -5 -2.5 -29t-5.5 -43h-152v-424h-86
v537q0 85 44 127.5t130 42.5q51 0 87 -10q-2 -44 -7 -73q-38 11 -73 11q-52 0 -73.5 -24z" />
    <glyph glyph-name="t_t.dlig" horiz-adv-x="628" 
d="M164 82q19 -21 58 -21q18 0 37.5 5t35.5 14q-2 -25 -5.5 -47.5t-4.5 -26.5q-35 -18 -82 -18q-68 0 -106 37.5t-38 115.5v491q36 13 86 13v-149h152q-3 -45 -8 -72h-144v-274q0 -47 19 -68zM465 82q19 -21 58 -21q18 0 37.5 5t35.5 14q-2 -25 -5.5 -47.5t-4.5 -26.5
q-35 -18 -82 -18q-68 0 -106 37.5t-38 115.5v491q36 13 86 13v-149h152q-3 -45 -8 -72h-144v-274q0 -47 19 -68z" />
    <glyph glyph-name="zero.pnum" horiz-adv-x="537" 
d="M96 75q-56 90 -56 271q0 183 55.5 272t173.5 89q117 0 172.5 -89t55.5 -272q0 -182 -55.5 -271.5t-172.5 -89.5t-173 90zM350.5 95q30.5 30 44 91t13.5 160q0 98 -13.5 159.5t-44 92t-81.5 30.5t-82 -30t-44.5 -92t-13.5 -160q0 -99 13.5 -160t44 -91t82.5 -30
q51 0 81.5 30z" />
    <glyph glyph-name="one.pnum" horiz-adv-x="365" 
d="M149.5 686q62.5 16 122.5 21v-707h-87v615q-44 -11 -86.5 -24.5t-74.5 -26.5q0 20 2 43t6 41q55 22 117.5 38z" />
    <glyph glyph-name="two.pnum" horiz-adv-x="477" 
d="M439 80q-2 -50 -10 -80h-400v31q0 61 25.5 110.5t65.5 89.5t103 88q57 44 85.5 87t28.5 98q0 61 -38 92.5t-114 31.5q-38 0 -76.5 -9t-72.5 -26q0 43 7 82q66 32 154 32q78 0 129.5 -25t76 -69.5t24.5 -103.5q0 -76 -38.5 -136t-118.5 -120q-49 -37 -76.5 -61.5
t-47.5 -52t-27 -59.5h320z" />
    <glyph glyph-name="three.pnum" horiz-adv-x="474" 
d="M404 303q36 -40 36 -109q0 -65 -31 -112t-92 -72t-148 -25q-70 0 -140 17q0 18 3 40t7 37q28 -7 61 -11t63 -4q187 0 187 131q0 62 -43.5 92.5t-132.5 30.5h-83v77h76q78 0 121 31.5t43 89.5q0 51 -36.5 81.5t-109.5 30.5q-37 0 -75.5 -8t-72.5 -22q0 15 2 37.5t6 42.5
q30 14 69 21.5t80 7.5q70 0 120.5 -21.5t76.5 -61t26 -92.5q0 -60 -32 -105.5t-84 -66.5q67 -17 103 -57z" />
    <glyph glyph-name="four.pnum" horiz-adv-x="511" 
d="M496.5 213q-2.5 -22 -6.5 -37h-83v-176h-84v176h-313q0 46 4 75q49 108 131.5 226t175.5 215q36 7 86 7v-446h93q-1 -18 -3.5 -40zM323 253v332q-136 -159 -224 -332h224z" />
    <glyph glyph-name="five.pnum" horiz-adv-x="489" 
d="M343 413q52 -24 80 -73t28 -121q0 -113 -69.5 -173.5t-200.5 -60.5q-73 0 -138 17q0 42 11 78q22 -7 55 -11.5t67 -4.5q186 0 186 151q0 146 -173 146q-28 0 -61 -4.5t-63 -12.5l29 348h338q-2 -45 -8 -80h-250l-16 -181q28 6 63 6q70 0 122 -24z" />
    <glyph glyph-name="six.pnum" horiz-adv-x="528" 
d="M398.5 417q44.5 -26 69 -75.5t24.5 -118.5q0 -73 -26 -126.5t-75 -82.5t-116 -29q-114 0 -174.5 85t-60.5 256q0 129 31 213.5t96 126t166 41.5q35 0 66 -5t54 -15q0 -34 -9 -79q-21 10 -51 15t-60 5q-71 0 -116 -28t-67 -88t-25 -158q25 44 69 66.5t99 22.5
q61 0 105.5 -26zM371 104.5q34 40.5 34 114.5q0 73 -35.5 110t-94.5 37q-41 0 -79.5 -18.5t-70.5 -55.5q4 -118 40.5 -173t108.5 -55q63 0 97 40.5z" />
    <glyph glyph-name="seven.pnum" horiz-adv-x="461" 
d="M446 692q0 -21 -7 -63q-170 -310 -241 -629h-91q32 148 91.5 303.5t140.5 308.5h-327q0 17 2.5 39.5t6.5 40.5h425z" />
    <glyph glyph-name="eight.pnum" horiz-adv-x="533" 
d="M460.5 290.5q35.5 -46.5 35.5 -110.5q0 -60 -28.5 -104t-81 -67.5t-123.5 -23.5q-70 0 -121 22.5t-78 64.5t-27 99q0 65 35.5 109t101.5 68q-57 28 -87.5 73.5t-30.5 104.5q0 54 25 95t73 63.5t115 22.5t114 -22t71 -61.5t24 -91.5q0 -113 -115 -168q62 -27 97.5 -73.5z
M174.5 605.5q-31.5 -29.5 -31.5 -77.5q0 -50 32 -83t90 -49l12 -4q60 26 87.5 59.5t27.5 77.5q0 48 -31 77t-93 29t-93.5 -29.5zM371.5 88.5q37.5 31.5 37.5 86.5q0 47 -30.5 82.5t-94.5 52.5l-32 10q-68 -24 -98 -59.5t-30 -83.5q0 -59 39.5 -89.5t104.5 -30.5
q66 0 103.5 31.5z" />
    <glyph glyph-name="nine.pnum" horiz-adv-x="528" 
d="M427.5 622.5q60.5 -85.5 60.5 -255.5q0 -130 -31 -214t-95.5 -126t-165.5 -42q-35 0 -66 5.5t-54 15.5q0 38 8 78q21 -9 51.5 -14.5t59.5 -5.5q71 0 116 28.5t67 88.5t25 158q-25 -44 -69 -67t-99 -23q-60 0 -105 26t-69.5 75.5t-24.5 118.5q0 74 26 127.5t75 82.5
t117 29q113 0 173.5 -85.5zM403 401q-4 119 -40.5 173.5t-108.5 54.5q-62 0 -96 -40.5t-34 -114.5q0 -73 35 -110t94 -37q85 0 150 74z" />
    <glyph glyph-name="zero.dnom" horiz-adv-x="374" 
d="M76 33.5q-36 44.5 -36 136.5t36 137t111 45t111 -45t36 -137t-36 -136.5t-111 -44.5t-111 44.5zM229.5 61.5q15.5 11.5 22 37.5t6.5 71q0 46 -6.5 72t-22 37.5t-42.5 11.5t-42 -12t-21.5 -38t-6.5 -71t6.5 -70.5t21.5 -37.5t42 -12t42.5 11.5z" />
    <glyph glyph-name="one.dnom" horiz-adv-x="261" 
d="M113 342.5q44 8.5 84 9.5v-352h-73v285q-44 -8 -100 -25q0 19 2 33t6 28q37 13 81 21.5z" />
    <glyph glyph-name="two.dnom" horiz-adv-x="321" 
d="M283 55q0 -14 -2 -30.5t-4 -24.5h-249v23q0 30 9 52t30.5 42t60.5 42q29 17 43.5 27.5t20.5 21t6 25.5q0 58 -85 58q-22 0 -44 -4t-40 -11q0 31 7 62q43 13 94 13q69 0 106 -28.5t37 -78.5q0 -39 -17 -65.5t-62 -51.5q-44 -24 -64 -40t-26 -32h179z" />
    <glyph glyph-name="three.dnom" horiz-adv-x="320" 
d="M287 94q0 -50 -43 -77.5t-127 -27.5q-44 0 -89 9q0 20 9 56q38 -8 80 -8q50 0 72.5 12t22.5 38q0 28 -23.5 39t-70.5 11h-48v55h38q44 0 68 11t24 39q0 21 -19 32t-55 11q-51 0 -91 -14q0 12 2.5 28.5t5.5 28.5q35 14 90 14q66 0 103 -24t37 -71q0 -31 -20.5 -50
t-59.5 -29q94 -13 94 -83z" />
    <glyph glyph-name="four.dnom" horiz-adv-x="333" 
d="M314 70h-51v-70h-65v70h-188q0 16 1.5 28.5t3.5 26.5q32 58 80 119.5t95 101.5q17 3 35.5 4t37.5 1v-225h59q-1 -23 -8 -56zM198 126v152q-64 -65 -120 -152h120z" />
    <glyph glyph-name="five.dnom" horiz-adv-x="343" 
d="M262.5 192q42.5 -28 42.5 -84q0 -58 -44.5 -89t-125.5 -31q-40 0 -92 8q0 27 8 62q48 -8 80 -8q50 0 74 14t24 43q0 27 -24.5 40.5t-76.5 13.5q-38 0 -70 -7l16 190h221q0 -15 -1.5 -33t-3.5 -27h-149l-7 -64h16q70 0 112.5 -28z" />
    <glyph glyph-name="six.dnom" horiz-adv-x="364" 
d="M294 194q34 -30 34 -83q0 -35 -16 -63t-47 -44t-74 -16q-75 0 -113 45t-38 128q0 91 42.5 141t128.5 50q29 0 54.5 -4.5t42.5 -12.5q0 -22 -7 -56q-37 15 -88 15t-75 -28t-27 -84q14 20 38.5 31t54.5 11q56 0 90 -30zM240.5 62q17.5 17 17.5 43q0 28 -18 44.5t-53 16.5
q-20 0 -40 -7t-36 -20q6 -94 78 -94q34 0 51.5 17z" />
    <glyph glyph-name="seven.dnom" horiz-adv-x="304" 
d="M288 342q0 -32 -5 -55q-50 -76 -85 -146.5t-56 -140.5h-74q39 131 135 285h-191q0 13 1.5 30.5t3.5 26.5h271z" />
    <glyph glyph-name="eight.dnom" horiz-adv-x="375" 
d="M339 90q0 -31 -18.5 -54t-53 -35.5t-81.5 -12.5q-71 0 -110 25t-39 71q0 59 78 81q-34 14 -51.5 36t-17.5 53q0 30 17 52t49 34.5t78 12.5q44 0 75 -11.5t47 -31.5t16 -46q0 -29 -16.5 -49t-53.5 -32q81 -29 81 -93zM134.5 288q-17.5 -12 -17.5 -33q0 -40 73 -55l9 -2
q60 16 60 57q0 19 -17.5 32t-52.5 13q-37 0 -54.5 -12zM248 56.5q20 12.5 20 34.5q0 19 -17.5 31.5t-55.5 20.5l-19 5q-68 -19 -68 -57q0 -23 21.5 -35t59.5 -12q39 0 59 12.5z" />
    <glyph glyph-name="nine.dnom" horiz-adv-x="364" 
d="M286 308q38 -45 38 -128q0 -92 -42.5 -141.5t-128.5 -49.5q-29 0 -54.5 4.5t-42.5 12.5q0 22 7 56q37 -15 88 -15t75.5 28.5t27.5 84.5q-13 -20 -38 -31.5t-56 -11.5q-56 0 -90 30t-34 83q0 35 16 63t47 44t74 16q75 0 113 -45zM217 182q20 7 37 20q-6 93 -79 93
q-34 0 -51.5 -16.5t-17.5 -42.5q0 -28 18.5 -44.5t52.5 -16.5q20 0 40 7z" />
    <glyph glyph-name="zero.numr" horiz-adv-x="374" 
d="M76 378.5q-36 44.5 -36 136.5t36 137t111 45t111 -45t36 -137t-36 -136.5t-111 -44.5t-111 44.5zM229.5 406.5q15.5 11.5 22 37.5t6.5 71q0 46 -6.5 72t-22 37.5t-42.5 11.5t-42 -12t-21.5 -38t-6.5 -71t6.5 -70.5t21.5 -37.5t42 -12t42.5 11.5z" />
    <glyph glyph-name="one.numr" horiz-adv-x="261" 
d="M113 687.5q44 8.5 84 9.5v-352h-73v285q-44 -8 -100 -25q0 19 2 33t6 28q37 13 81 21.5z" />
    <glyph glyph-name="two.numr" horiz-adv-x="321" 
d="M283 400q0 -14 -2 -30.5t-4 -24.5h-249v23q0 30 9 52t30.5 42t60.5 42q29 17 43.5 27.5t20.5 21t6 25.5q0 58 -85 58q-22 0 -44 -4t-40 -11q0 31 7 62q43 13 94 13q69 0 106 -28.5t37 -78.5q0 -39 -17 -65.5t-62 -51.5q-44 -24 -64 -40t-26 -32h179z" />
    <glyph glyph-name="three.numr" horiz-adv-x="320" 
d="M287 439q0 -50 -43 -77.5t-127 -27.5q-44 0 -89 9q0 20 9 56q38 -8 80 -8q50 0 72.5 12t22.5 38q0 28 -23.5 39t-70.5 11h-48v55h38q44 0 68 11t24 39q0 21 -19 32t-55 11q-51 0 -91 -14q0 12 2.5 28.5t5.5 28.5q35 14 90 14q66 0 103 -24t37 -71q0 -31 -20.5 -50
t-59.5 -29q94 -13 94 -83z" />
    <glyph glyph-name="four.numr" horiz-adv-x="333" 
d="M314 415h-51v-70h-65v70h-188q0 16 1.5 28.5t3.5 26.5q32 58 80 119.5t95 101.5q17 3 35.5 4t37.5 1v-225h59q-1 -23 -8 -56zM198 471v152q-64 -65 -120 -152h120z" />
    <glyph glyph-name="five.numr" horiz-adv-x="343" 
d="M262.5 537q42.5 -28 42.5 -84q0 -58 -44.5 -89t-125.5 -31q-40 0 -92 8q0 27 8 62q48 -8 80 -8q50 0 74 14t24 43q0 27 -24.5 40.5t-76.5 13.5q-38 0 -70 -7l16 190h221q0 -15 -1.5 -33t-3.5 -27h-149l-7 -64h16q70 0 112.5 -28z" />
    <glyph glyph-name="six.numr" horiz-adv-x="364" 
d="M294 539q34 -30 34 -83q0 -35 -16 -63t-47 -44t-74 -16q-75 0 -113 45t-38 128q0 91 42.5 141t128.5 50q29 0 54.5 -4.5t42.5 -12.5q0 -22 -7 -56q-37 15 -88 15t-75 -28t-27 -84q14 20 38.5 31t54.5 11q56 0 90 -30zM240.5 407q17.5 17 17.5 43q0 28 -18 44.5t-53 16.5
q-20 0 -40 -7t-36 -20q6 -94 78 -94q34 0 51.5 17z" />
    <glyph glyph-name="seven.numr" horiz-adv-x="304" 
d="M288 687q0 -32 -5 -55q-50 -76 -85 -146.5t-56 -140.5h-74q39 131 135 285h-191q0 13 1.5 30.5t3.5 26.5h271z" />
    <glyph glyph-name="eight.numr" horiz-adv-x="375" 
d="M339 435q0 -31 -18.5 -54t-53 -35.5t-81.5 -12.5q-71 0 -110 25t-39 71q0 59 78 81q-34 14 -51.5 36t-17.5 53q0 30 17 52t49 34.5t78 12.5q44 0 75 -11.5t47 -31.5t16 -46q0 -29 -16.5 -49t-53.5 -32q81 -29 81 -93zM134.5 633q-17.5 -12 -17.5 -33q0 -40 73 -55l9 -2
q60 16 60 57q0 19 -17.5 32t-52.5 13q-37 0 -54.5 -12zM248 401.5q20 12.5 20 34.5q0 19 -17.5 31.5t-55.5 20.5l-19 5q-68 -19 -68 -57q0 -23 21.5 -35t59.5 -12q39 0 59 12.5z" />
    <glyph glyph-name="nine.numr" horiz-adv-x="364" 
d="M286 653q38 -45 38 -128q0 -92 -42.5 -141.5t-128.5 -49.5q-29 0 -54.5 4.5t-42.5 12.5q0 22 7 56q37 -15 88 -15t75.5 28.5t27.5 84.5q-13 -20 -38 -31.5t-56 -11.5q-56 0 -90 30t-34 83q0 35 16 63t47 44t74 16q75 0 113 -45zM217 527q20 7 37 20q-6 93 -79 93
q-34 0 -51.5 -16.5t-17.5 -42.5q0 -28 18.5 -44.5t52.5 -16.5q20 0 40 7z" />
    <glyph glyph-name="glyph374" horiz-adv-x="304" 
d="M192 688.5q17 -16.5 17 -39.5q0 -24 -17 -40.5t-40 -16.5t-40 16.5t-17 40.5q0 23 17 39.5t40 16.5t40 -16.5zM196 4q-19 -5 -45 -9t-45 -4l9 485h73z" />
    <glyph glyph-name="glyph375" horiz-adv-x="444" 
d="M301.5 686.5q16.5 -16.5 16.5 -40.5q0 -23 -16.5 -39.5t-39.5 -16.5q-24 0 -40.5 16.5t-16.5 39.5q0 24 16.5 40.5t40.5 16.5q23 0 39.5 -16.5zM304 453q0 -50 -20.5 -84.5t-65.5 -69.5q-44 -34 -64 -65t-20 -71q0 -44 30.5 -71.5t97.5 -27.5q36 0 74.5 8.5t66.5 24.5
q0 -39 -8 -77q-28 -16 -66 -24.5t-78 -8.5q-67 0 -113 21t-69.5 60t-23.5 92q0 42 14 73.5t38.5 57t63.5 53.5q39 29 56 55t17 65v18h68q2 -18 2 -29z" />
    <glyph glyph-name="colon.aalt" horiz-adv-x="249" 
d="M94 100.5q-14 8.5 -22.5 22.5t-8.5 31q0 25 18 43t44 18q16 0 30 -8t22.5 -22t8.5 -31t-8.5 -31t-22.5 -22.5t-30 -8.5q-17 0 -31 8.5zM94 465.5q-14 8.5 -22.5 22.5t-8.5 31q0 25 18 43t44 18q16 0 30 -8t22.5 -22t8.5 -31t-8.5 -31t-22.5 -22.5t-30 -8.5q-17 0 -31 8.5
z" />
    <glyph glyph-name="bullet.aalt" horiz-adv-x="406" 
d="M150 242.5q-24 13.5 -37 36.5t-13 51t13 51.5t37 37t55 13.5q30 0 53 -13.5t35.5 -36.5t12.5 -52t-12.5 -52t-35.5 -36t-53 -13q-31 0 -55 13.5z" />
    <glyph glyph-name="slash.case" horiz-adv-x="356" 
d="M266 686q42 8 82 9l-255 -695h-79z" />
    <glyph glyph-name="backslash.aalt" horiz-adv-x="351" 
d="M256 0l-247 692q17 6 38.5 11t35.5 4l252 -707h-79z" />
    <glyph glyph-name="parenleft.case" horiz-adv-x="296" 
d="M131.5 4q-26.5 68 -40.5 149.5t-14 183.5t14 183t40 148.5t67 140.5q38 0 72 -15q-39 -73 -63 -140t-36 -144t-12 -173q0 -97 12 -173t35 -141t61 -137q-14 -9 -32.5 -14.5t-36.5 -5.5q-40 70 -66.5 138z" />
    <glyph glyph-name="parenright.case" horiz-adv-x="256" 
d="M138.5 667q26.5 -68 40.5 -150t14 -184t-14 -183t-40 -148.5t-67 -140.5q-36 0 -72 15q39 73 63 140t36 144t12 173q0 97 -12 173t-35 141t-61 137q15 9 33 14.5t36 5.5q40 -69 66.5 -137z" />
    <glyph glyph-name="braceleft.aalt" horiz-adv-x="349" 
d="M205.5 -27q5.5 -21 20 -30.5t42.5 -9.5h65q0 -32 -8 -67h-57q-82 0 -115.5 42t-33.5 121v187q0 42 -20 62.5t-63 27.5v65q45 6 64 26t19 63v187q0 79 33.5 121t114.5 42h66q-1 -32 -8 -67h-58q-26 0 -40.5 -10t-20.5 -31t-6 -56v-188q0 -50 -24 -81.5t-69 -38.5
q45 -8 69 -40.5t24 -81.5v-186q0 -36 5.5 -57z" />
    <glyph glyph-name="braceright.aalt" horiz-adv-x="277" 
d="M213 398q20 -21 62 -28v-65q-45 -6 -63.5 -26t-18.5 -63v-187q0 -79 -33.5 -121t-115.5 -42h-66q1 32 8 67h58q27 0 41.5 10t20 31t5.5 56v188q0 50 24.5 81.5t68.5 38.5q-44 8 -68.5 40.5t-24.5 81.5v186q0 36 -5.5 57t-20 30.5t-41.5 9.5h-66q2 40 8 67h58
q81 0 115 -42t34 -121v-187q0 -41 20 -62z" />
    <glyph glyph-name="bracketleft.aalt" horiz-adv-x="316" 
d="M77 810h220q-1 -25 -9 -67h-130v-777h139q-1 -16 -3.5 -32.5t-5.5 -33.5h-211v910z" />
    <glyph glyph-name="bracketright.aalt" horiz-adv-x="277" 
d="M199 -107h-219q1 32 8 67h130v777h-138q1 25 8 66h211v-910z" />
    <glyph glyph-name="hyphen.aalt" horiz-adv-x="362" 
d="M49 395h273q-2 -37 -8 -75h-274q2 42 9 75z" />
    <glyph glyph-name="endash.aalt" horiz-adv-x="525" 
d="M49 395h436q-2 -37 -8 -75h-437q2 42 9 75z" />
    <glyph glyph-name="emdash.aalt" horiz-adv-x="878" 
d="M49 395h789q-2 -37 -8 -75h-790q2 41 9 75z" />
    <glyph glyph-name="guillemotleft.aalt" horiz-adv-x="523" 
d="M247 355l152 229q33 -9 67 -29l-131 -200l131 -199q-13 -8 -31.5 -16.5t-35.5 -12.5zM47 355l152 229q33 -9 67 -29l-131 -200l131 -199q-13 -8 -31.5 -16.5t-35.5 -12.5z" />
    <glyph glyph-name="guillemotright.aalt" horiz-adv-x="523" 
d="M88.5 139.5q-18.5 8.5 -31.5 16.5l131 199l-131 200q34 20 67 29l152 -229l-152 -228q-17 4 -35.5 12.5zM288.5 139.5q-18.5 8.5 -31.5 16.5l131 199l-131 200q34 20 67 29l152 -229l-152 -228q-17 4 -35.5 12.5z" />
    <glyph glyph-name="guilsinglleft.aalt" horiz-adv-x="323" 
d="M47 355l152 229q33 -9 67 -29l-131 -200l131 -199q-13 -8 -31.5 -16.5t-35.5 -12.5z" />
    <glyph glyph-name="guilsinglright.aalt" horiz-adv-x="323" 
d="M88.5 139.5q-18.5 8.5 -31.5 16.5l131 199l-131 200q34 20 67 29l152 -229l-152 -228q-17 4 -35.5 12.5z" />
    <glyph glyph-name="cent.aalt" horiz-adv-x="421" 
d="M289 157q26 1 53.5 7.5t49.5 18.5q-4 -40 -13 -74q-14 -9 -39.5 -14.5t-50.5 -7.5v-99h-68v102q-89 15 -139.5 79.5t-50.5 175.5q0 109 47.5 175.5t142.5 81.5v84q10 6 31 10t37 4v-94q29 -1 55.5 -6t47.5 -14q0 -16 -2.5 -35.5t-5.5 -34.5q-43 15 -95 17v-376z
M149 230.5q25 -45.5 72 -63.5v358q-97 -32 -97 -181q0 -68 25 -113.5z" />
    <glyph glyph-name="currency.aalt" horiz-adv-x="586" 
d="M454 245l65 -65l-54 -54l-65 65q-23 -15 -50 -23.5t-56 -8.5t-56.5 8.5t-50.5 23.5l-65 -65l-54 54l65 65q-32 48 -32 106q0 59 31 107l-65 64l55 55l65 -64q48 31 107 31q29 0 56 -8t50 -23l65 64l55 -55l-65 -64q31 -46 31 -107q0 -58 -32 -106zM192.5 290.5
q15.5 -26.5 42 -41.5t59.5 -15q32 0 58.5 15t42 41.5t15.5 60.5t-15.5 61t-42 42t-58.5 15q-33 0 -59.5 -15t-42 -42t-15.5 -61t15.5 -60.5z" />
    <glyph glyph-name="dollar.aalt" horiz-adv-x="481" 
d="M425.5 90q-18.5 -40 -57 -67t-94.5 -35v-119h-68v116q-48 2 -90.5 13t-69.5 29q1 25 3 41.5t8 33.5q28 -18 68 -28t81 -12v259l-14 6q-72 33 -111.5 80.5t-39.5 117.5q0 74 43 120.5t122 58.5v95q13 6 32.5 9.5t35.5 3.5v-105q76 -3 139 -31q-1 -24 -4.5 -40t-9.5 -34
q-27 12 -60 19t-65 9v-247l8 -4q81 -39 121.5 -86t40.5 -115q0 -48 -18.5 -88zM146 463.5q20 -25.5 60 -47.5v210q-39 -10 -59.5 -35.5t-20.5 -63.5t20 -63.5zM337 104q21 28 21 72q0 37 -19 63t-65 50v-223q42 10 63 38z" />
    <glyph glyph-name="Euro.aalt" horiz-adv-x="543" 
d="M273.5 103.5q39.5 -39.5 107.5 -39.5q28 0 60.5 7.5t55.5 21.5q-3 -42 -12 -84q-26 -12 -56 -18t-57 -6q-101 0 -162 61t-80 182h-96v72h89q-1 15 -1 46q0 24 1 35h-89v72h95q17 127 79 190.5t167 63.5q34 0 69 -8t58 -22q-1 -39 -12 -78q-22 14 -51.5 22t-58.5 8
q-70 0 -109.5 -43t-52.5 -133h244q-1 -34 -9 -72h-241q-1 -11 -1 -35q0 -31 1 -46h240q-1 -18 -3.5 -37t-6.5 -35h-223q15 -85 54.5 -124.5z" />
    <glyph glyph-name="florin.aalt" horiz-adv-x="383" 
d="M264 624q-16 -10 -22 -30t-6 -52v-81h127q-3 -36 -9 -69h-118v-243q0 -79 -38.5 -120t-115.5 -41q-42 0 -75 11q1 28 7 73q35 -11 61 -11q75 0 75 92v239h-108v69h108v85q0 161 152 161q40 0 74 -10q-2 -43 -7 -74q-13 5 -29.5 8t-30.5 3q-29 0 -45 -10z" />
    <glyph glyph-name="uni20BA.aalt" horiz-adv-x="552" 
d="M525 262q-2 -129 -63.5 -195.5t-185.5 -66.5h-147v260l-82 -28v69l82 28v82l-82 -28v69l82 28v206q18 6 44 10t47 4v-189l170 57q0 -34 -3 -69l-167 -57v-82l170 57q0 -34 -3 -69l-167 -57v-210h59q79 0 121 40.5t49 132.5q46 7 76 8z" />
    <glyph glyph-name="uni20BC.aalt" horiz-adv-x="605" 
d="M449 505.5q46 -31.5 70 -83t24 -117.5v-305h-85v297q0 74 -30.5 115t-88.5 50v-306h-74v306q-58 -9 -88.5 -50.5t-30.5 -115.5v-296h-84v305q0 66 24.5 117t70.5 83t108 39v148q13 6 35 9.5t39 3.5v-161q64 -7 110 -38.5z" />
    <glyph glyph-name="uni20B9.aalt" horiz-adv-x="495" 
d="M407 521h75q-4 -40 -10 -69h-64q-10 -77 -68 -121t-169 -48l256 -282h-105l-252 280v68h85q76 0 115 24.5t48 78.5h-248v69h248q-9 56 -47.5 79t-113.5 23h-87v69h420q-2 -28 -9 -69h-135q50 -38 61 -102z" />
    <glyph glyph-name="sterling.aalt" horiz-adv-x="504" 
d="M452 81q-5 -57 -10 -81h-410v77q33 9 57 23t38.5 40.5t14.5 69.5q0 20 -3 54l-6 69h-106v70h100l-4 39q-5 48 -5 79q0 95 54.5 140.5t157.5 45.5q51 0 95 -10q-1 -36 -7 -79q-39 11 -87 11q-61 0 -93 -27.5t-32 -87.5q0 -24 5 -67l4 -44h174q-1 -32 -8 -70h-160l6 -62
q4 -36 4 -50q0 -90 -66 -140h287z" />
    <glyph glyph-name="uni20A9.aalt" horiz-adv-x="784" 
d="M766 334h-87l-75 -334h-104l-69 334h-84l-69 -334h-106l-73 334h-89v69h73l-63 289h93l55 -289h121l59 289h85l59 -289h122l55 289h90l-65 -289h80q-4 -48 -8 -69zM417 403l-28 135l-28 -135h56zM274 334h-93l45 -237zM601 334h-95l49 -238z" />
    <glyph glyph-name="yen.aalt" horiz-adv-x="544" 
d="M316 317v-72h161q0 -3 -3 -27t-7 -40h-151v-178h-88v178h-160v67h160v72h-160v66h130l-181 309h98l159 -290l159 290h93l-180 -309h133q-1 -15 -3.5 -34t-6.5 -32h-153z" />
    <glyph glyph-name="glyph520" horiz-adv-x="0" 
d="M-133 693q23 6 42.5 9.5t40.5 3.5q-4 -57 -22.5 -102.5t-49.5 -76.5h-22q11 76 11 166z" />
    <glyph glyph-name="uni0308.aalt" horiz-adv-x="0" 
d="M-330 782.5q-15 15.5 -15 39.5q0 23 15.5 38t38.5 15t38 -15t15 -38q0 -24 -15 -39.5t-38 -15.5q-24 0 -39 15.5zM-140 782.5q-15 15.5 -15 38.5q0 24 15 38.5t38 14.5t37.5 -14.5t14.5 -38.5t-14.5 -39t-37.5 -15t-38 15.5z" />
    <glyph glyph-name="uni0307.aalt" horiz-adv-x="0" 
d="M-140.5 781q-14.5 15 -14.5 39t15 38.5t38 14.5t37.5 -14.5t14.5 -38.5t-14.5 -39t-37.5 -15q-24 0 -38.5 15z" />
    <glyph glyph-name="gravecomb.aalt" horiz-adv-x="0" 
d="M-67 763q-47 5 -90.5 36.5t-72.5 74.5q10 4 26.5 6t33.5 2q15 0 31 -1.5t24 -3.5l65 -114h-17z" />
    <glyph glyph-name="acutecomb.aalt" horiz-adv-x="0" 
d="M-166 877q9 2 24.5 3.5t31.5 1.5q36 0 60 -8q-29 -43 -72.5 -74.5t-90.5 -36.5h-17z" />
    <glyph glyph-name="uni030B.aalt" horiz-adv-x="0" 
d="M-285 879q17 5 55 5q31 0 41 -2q-12 -27 -36.5 -54t-56 -45t-60.5 -21h-13zM-146 879q19 5 55 5q31 0 41 -2q-12 -27 -36.5 -53t-55.5 -44.5t-61 -22.5h-12z" />
    <glyph glyph-name="uni0302.aalt" horiz-adv-x="0" 
d="M-249 884q24 6 53 6t53 -6l93 -121h-31q-33 5 -60 24t-55 52q-56 -66 -119 -76h-28z" />
    <glyph glyph-name="uni030C.aalt" horiz-adv-x="0" 
d="M-144 766q-20 -5 -53 -5t-53 5l-93 122h31q33 -6 60.5 -25t54.5 -52q57 68 119 77h28z" />
    <glyph glyph-name="uni0306.aalt" horiz-adv-x="0" 
d="M-288.5 791q-35.5 31 -44.5 85q14 2 31.5 3.5t32.5 1.5q15 -62 78 -62t79 62q14 0 31 -1.5t31 -3.5q-8 -54 -43 -85t-98 -31q-62 0 -97.5 31z" />
    <glyph glyph-name="uni030A.aalt" horiz-adv-x="0" 
d="M-208 756q-24 13 -37.5 35t-13.5 50q0 27 13.5 49.5t37.5 35t54 12.5t53.5 -13t37 -35t13.5 -50q0 -27 -13.5 -49t-37.5 -35t-53 -13q-30 0 -54 13zM-117 804q14 14 14 36t-14 36t-37 14t-37.5 -14t-14.5 -35q0 -23 14 -37t38 -14q23 0 37 14z" />
    <glyph glyph-name="tildecomb.aalt" horiz-adv-x="0" 
d="M-161 757q-21 10 -52 29q-35 23 -46 23q-10 0 -14 -6t-4 -21v-34h-65v43q0 42 18 62t51 20q22 0 43.5 -10.5t52.5 -30.5q3 -2 13.5 -8.5t17.5 -9.5t11 -3q20 0 20 26v35h65v-46q0 -79 -72 -79q-18 0 -39 10z" />
    <glyph glyph-name="uni0304.aalt" horiz-adv-x="0" 
d="M-295 855h245q-2 -37 -9 -64h-245q2 37 9 64z" />
    <glyph glyph-name="glyph555" horiz-adv-x="0" 
d="M-287 781.5q-14 15.5 -14 39.5q0 23 14 38t37 15q24 0 38 -14.5t14 -38.5t-14 -39.5t-38 -15.5q-23 0 -37 15.5zM-139 781.5q-14 15.5 -14 39.5t14 38.5t38 14.5q23 0 37 -15t14 -38q0 -24 -14 -39.5t-37 -15.5q-24 0 -38 15.5z" />
    <glyph glyph-name="glyph556" horiz-adv-x="0" 
d="M-226 872q10 3 23.5 4.5t24.5 1.5q25 0 46 -6l82 -109h-25q-32 5 -57.5 20t-46.5 41q-42 -49 -103 -61h-26z" />
    <glyph glyph-name="glyph557" horiz-adv-x="0" 
d="M-257 792.5q-31 31.5 -38 77.5q13 2 29.5 3t29.5 1q12 -53 65 -53q27 0 42.5 13t21.5 40q13 0 28.5 -1t28.5 -3q-6 -45 -35.5 -77t-84.5 -32q-56 0 -87 31.5z" />
    <glyph glyph-name="glyph558" horiz-adv-x="0" 
d="M-149.5 754.5q-16.5 9.5 -38.5 27.5q-10 9 -19 15t-15 6q-10 0 -14 -6t-4 -21v-30h-57v44q0 43 14 62t46 19q22 0 38.5 -10t37.5 -29q9 -8 17.5 -14t14.5 -6q19 0 19 26v33h60v-47q0 -42 -15 -60.5t-49 -18.5q-19 0 -35.5 9.5z" />
    <glyph glyph-name="glyph559" horiz-adv-x="0" 
d="M-262 854h212q-4 -40 -8 -64h-213q2 37 9 64z" />
    <glyph glyph-name="glyph560" horiz-adv-x="0" 
d="M-282 619q-14 15 -14 38t14 37.5t37 14.5q22 0 35.5 -14.5t13.5 -37.5t-13.5 -38t-35.5 -15q-23 0 -37 15zM-137 619q-14 15 -14 38t14 37.5t37 14.5q22 0 36 -14.5t14 -37.5q0 -24 -14 -38.5t-36 -14.5q-23 0 -37 15z" />
    <glyph glyph-name="glyph561" horiz-adv-x="0" 
d="M-50 579h-25q-22 5 -43 26.5t-49 61.5q-30 -45 -49.5 -64t-44.5 -24h-22l77 144q16 4 39 4t39 -3z" />
    <glyph glyph-name="glyph562" horiz-adv-x="0" 
d="M-50 725l-77 -144q-15 -4 -39 -4q-23 0 -38 3l-79 145h25q22 -5 44 -27t48 -61q31 45 50.5 64t43.5 24h22z" />
    <glyph glyph-name="glyph563" horiz-adv-x="0" 
d="M-242.5 612.5q-27.5 34.5 -31.5 93.5q13 2 28.5 3.5t30.5 1.5q3 -70 54 -70q47 0 54 70q37 0 57 -5q-3 -58 -31 -93t-80 -35q-54 0 -81.5 34.5z" />
    <glyph glyph-name="glyph564" horiz-adv-x="0" 
d="M-138 600q-14 10 -31 27q-3 3 -9.5 9t-11 9t-8.5 3q-8 0 -11.5 -6t-3.5 -20v-32h-52v41q0 74 56 74q17 0 31.5 -10t30.5 -27q8 -8 15.5 -14.5t13.5 -6.5q16 0 16 25v33h52v-43q0 -38 -15 -55t-43 -17q-16 0 -30 10z" />
    <glyph glyph-name="glyph565" horiz-adv-x="0" 
d="M-257 690h207q-1 -29 -9 -66h-207q2 35 9 66z" />
    <glyph glyph-name="glyph566" horiz-adv-x="0" 
d="M-175.5 -189.5q-26.5 24.5 -26.5 69.5q0 37 19 67t63 69l45 -16q-33 -32 -47 -58t-14 -52q0 -22 12 -34.5t33 -12.5q23 0 41 10q-1 -20 -7 -58q-18 -9 -47 -9q-45 0 -71.5 24.5z" />
    </font>
</defs>
</svg>
